<svg width="158" height="158" viewBox="0 0 158 158" fill="none" xmlns="http://www.w3.org/2000/svg">
<path d="M130.609 125.785H111.807V127.79C111.807 130.284 112.798 132.675 114.561 134.438C116.324 136.201 118.715 137.191 121.208 137.191C123.702 137.191 126.093 136.201 127.856 134.438C129.619 132.675 130.609 130.284 130.609 127.79V125.785Z" fill="#FFF0F4"/>
<path d="M58.7491 137.051C57.0626 137.053 55.4068 136.599 53.957 135.738" stroke="#CCDDE2" stroke-width="0.89044" stroke-miterlimit="10"/>
<path d="M49.3766 23.5736L49.3466 17.3026C49.347 14.809 50.3378 12.4177 52.101 10.6544C53.8642 8.89121 56.2556 7.90045 58.7491 7.90002H121.207" stroke="#CCDDE2" stroke-width="0.89044" stroke-miterlimit="10"/>
<path d="M111.808 127.648V125.784V34.3951V17.3026" stroke="#CCDDE2" stroke-width="0.89044" stroke-miterlimit="10"/>
<path d="M111.808 32.2147H130.61V17.3026C130.61 14.8093 129.62 12.4181 127.857 10.6551C126.094 8.89207 123.703 7.90161 121.209 7.90161C118.716 7.90161 116.325 8.89207 114.562 10.6551C112.799 12.4181 111.808 14.8093 111.808 17.3026V34.3951" fill="#FFF0F4"/>
<path d="M111.808 32.2147H130.61V17.3026C130.61 14.8093 129.62 12.4181 127.857 10.6551C126.094 8.89207 123.703 7.90161 121.209 7.90161C118.716 7.90161 116.325 8.89207 114.562 10.6551C112.799 12.4181 111.808 14.8093 111.808 17.3026V34.3951" stroke="#CCDDE2" stroke-width="0.89044" stroke-miterlimit="10"/>
<path d="M111.807 125.785V127.65C111.807 130.143 112.798 132.534 114.561 134.297C116.324 136.06 118.715 137.051 121.208 137.051" stroke="#CCDDE2" stroke-width="0.89044" stroke-miterlimit="10"/>
<path d="M63.1207 137.051H58.7488" stroke="#CCDDE2" stroke-width="0.89044" stroke-miterlimit="10"/>
<path d="M111.809 125.784H130.611V127.648C130.61 130.142 129.619 132.533 127.856 134.296C126.093 136.059 123.701 137.05 121.208 137.051H75.8209" stroke="#CCDDE2" stroke-width="0.89044" stroke-miterlimit="10"/>
<path d="M101.289 49.2375H86.1007" stroke="#CCDDE2" stroke-width="0.89044" stroke-miterlimit="10"/>
<path d="M101.289 55.1262H86.1007" stroke="#CCDDE2" stroke-width="0.89044" stroke-miterlimit="10"/>
<path d="M101.289 61.0165H86.1007" stroke="#CCDDE2" stroke-width="0.89044" stroke-miterlimit="10"/>
<path d="M101.289 66.9052H86.1007" stroke="#CCDDE2" stroke-width="0.89044" stroke-miterlimit="10"/>
<path d="M101.289 72.7937H86.1007" stroke="#CCDDE2" stroke-width="0.89044" stroke-miterlimit="10"/>
<path d="M101.289 78.6824H86.1007" stroke="#CCDDE2" stroke-width="0.89044" stroke-miterlimit="10"/>
<path d="M101.289 98.3566H86.1007" stroke="#CCDDE2" stroke-width="0.89044" stroke-miterlimit="10"/>
<path d="M101.289 101.103H86.1007" stroke="#CCDDE2" stroke-width="0.89044" stroke-miterlimit="10"/>
<path d="M101.289 103.849H86.1007" stroke="#CCDDE2" stroke-width="0.89044" stroke-miterlimit="10"/>
<path d="M101.289 106.595H86.1007" stroke="#CCDDE2" stroke-width="0.89044" stroke-miterlimit="10"/>
<path d="M104.58 41.5161H82.5566C80.7607 41.5161 79.3049 42.9719 79.3049 44.7678V111.314C79.3049 113.11 80.7607 114.566 82.5566 114.566H104.58C106.376 114.566 107.832 113.11 107.832 111.314V44.7678C107.832 42.9719 106.376 41.5161 104.58 41.5161Z" stroke="#CCDDE2" stroke-width="0.89044" stroke-miterlimit="10"/>
<path d="M83.9596 54.0171C83.9596 54.0171 92.3684 68.6163 89.0757 75.3344C89.0757 75.3344 86.6567 80.0539 81.3036 79.5846C75.9506 79.1154 78.684 68.3319 73.8682 65.4768C69.0523 62.6218 76.5952 50.7828 76.6695 50.876C76.7438 50.9693 83.9596 54.0171 83.9596 54.0171Z" fill="#FFE6ED"/>
<path d="M86.1002 35.6464H74.0859" stroke="#CCDDE2" stroke-width="0.89044" stroke-miterlimit="10"/>
<path d="M86.1008 28.7275H76.0252" stroke="#CCDDE2" stroke-width="0.89044" stroke-miterlimit="10"/>
<path d="M86.1008 32.1877H74.6174" stroke="#CCDDE2" stroke-width="0.89044" stroke-miterlimit="10"/>
<path d="M86.1005 25.2689H72.5078" stroke="#CCDDE2" stroke-width="0.89044" stroke-miterlimit="10"/>
<path d="M84.6329 55.4248C76.4548 54.0707 74.2049 62.0861 74.2049 62.0861C74.2049 62.0861 76.6033 66.706 76.6633 66.9572C76.8687 69.7364 74.3091 69.8897 74.3091 69.8897L65.2684 71.7857L61.5696 65.9839C61.5696 65.9839 58.8157 47.4237 58.0936 47.4347C57.3715 47.4458 57.7776 47.1487 57.7776 47.1487C58.4886 46.572 58.1157 43.8576 58.1157 43.8576C58.0114 42.6979 59.9517 42.2618 61.9346 41.6693C63.9175 41.0768 62.9395 42.2902 62.6077 43.8576C62.2759 45.4249 61.914 48.9136 65.8656 49.2391C69.8172 49.5646 70.1695 47.7254 71.1539 46.0791C71.8333 44.9431 71.4952 43.4089 71.2234 42.5699C73.0763 43.2144 74.8574 44.0488 76.5385 45.06C76.8008 45.218 77.052 45.376 77.3001 45.5577C80.8519 47.994 82.8569 51.5996 84.6329 55.4248Z" fill="#CE617F"/>
<path d="M40.4606 79.1169C40.4606 79.1169 40.0957 79.3129 41.3217 79.3208C42.5478 79.3287 56.5956 78.3064 67.722 84.2867C67.722 84.2867 71.1174 86.0247 72.3656 88.6665C72.3656 88.6665 72.7053 88.9951 73.3831 87.3914C74.0609 85.7877 75.7341 80.7017 75.7341 80.7017C75.7341 80.7017 76.1781 80.2767 75.2396 80.2277C74.3011 80.1787 62.9156 78.8483 58.1235 77.488C53.3313 76.1276 48.3038 75.4466 47.6275 73.9835L47.7855 73.0608C47.7855 73.0608 41.9474 72.68 41.7957 73.628C41.6441 74.576 40.4606 79.1169 40.4606 79.1169Z" fill="#CE617F"/>
<path d="M67.6829 32.3238C68.4208 31.6308 68.4437 30.4566 67.7341 29.7008C67.0244 28.9451 65.8511 28.8942 65.1131 29.5871C64.3752 30.2801 64.3523 31.4543 65.062 32.21C65.7716 32.9657 66.9451 33.0166 67.6829 32.3238Z" fill="#FFF0F4"/>
<path d="M62.4334 31.5229C63.1719 30.8294 63.1948 29.6541 62.4846 28.8977C61.7744 28.1414 60.6 28.0905 59.8615 28.784C59.1228 29.4776 59.0999 30.6529 59.8103 31.4091C60.5205 32.1655 61.6949 32.2165 62.4334 31.5229Z" fill="#FFF0F4"/>
<path d="M63.6487 38.9202C63.6487 38.9202 63.4812 39.8571 63.1289 41.4592C62.2583 41.4434 61.2124 42.2492 60.356 42.2366C59.9926 39.7828 60.5266 37.8868 61.1239 36.6307C61.778 38.2597 62.8255 38.7795 63.6487 38.9202Z" fill="#E6B3C1"/>
<path d="M77.6998 45.7742C75.9903 44.7678 74.2365 43.499 72.2931 42.9587L71.1871 42.4562C71.1871 42.4562 71.1033 42.2461 71.1002 42.2429C70.8948 41.6694 70.5487 40.9062 70.4524 40.3074C70.3342 39.5985 70.3225 38.8758 70.4176 38.1634C70.5756 37.1048 71.1365 34.877 72.0513 34.196C72.8145 33.6319 73.1178 33.7646 73.5697 32.8609C73.8857 32.2162 74.0437 31.1229 73.4749 30.622C72.8429 30.0722 72.549 30.3376 71.7653 30.3913C68.7839 30.5952 67.1517 28.4037 66.1342 25.8994C65.9887 25.4782 65.7861 25.0791 65.5322 24.7128C65.2162 24.3099 64.7723 24.2072 64.4136 23.877C64.3321 23.8114 64.272 23.7229 64.2414 23.6229C64.2107 23.5231 64.2107 23.4161 64.2414 23.3161C64.2891 23.2249 64.3559 23.1451 64.4373 23.0823C65.153 22.4624 66.0036 22.0177 66.9211 21.7835C68.3724 21.413 69.8937 21.413 71.3451 21.7835C72.9069 22.3289 74.2278 23.4054 75.077 24.825C76.2905 26.879 76.5322 28.9915 75.7548 31.0581C74.9648 33.1769 74.0658 35.6654 75.3741 37.7668C77.1168 40.5586 78.1612 42.5163 77.6998 45.7742Z" fill="#E6B3C1"/>
<path d="M64.8574 38.8791C64.4615 38.9747 64.0502 38.9888 63.6487 38.9202C62.8255 38.7796 61.7764 38.2597 61.1207 36.6308C60.9872 36.2983 60.8815 35.9553 60.8047 35.6053C60.4887 34.2702 60.3923 32.4153 60.6799 29.8431C60.7352 29.3501 60.811 28.8493 60.9106 28.35C61.0766 27.4807 61.3274 26.6298 61.6595 25.8093C61.6595 25.8093 61.6595 25.8093 61.6595 25.7999C62.4858 23.8012 63.8826 22.1358 66.1641 21.5481C67.8743 21.1103 69.6759 21.1912 71.3402 21.7803C72.902 22.3258 74.2229 23.4022 75.0721 24.8218C76.2856 26.8758 76.5273 28.9883 75.7499 31.0549C74.9599 33.1737 74.0609 35.6622 75.3692 37.7636C77.1072 40.5586 78.1563 42.5163 77.7028 45.7742" stroke="black" stroke-width="0.89044" stroke-miterlimit="10"/>
<path d="M59.6595 42.3156C59.0923 39.1114 60.0593 36.8172 60.8019 35.6053" stroke="black" stroke-width="0.89044" stroke-miterlimit="10"/>
<path d="M60.909 28.3483C60.909 28.3483 62.4084 26.8726 64.02 29.3248" stroke="black" stroke-width="0.89044" stroke-miterlimit="10"/>
<path d="M64.2426 36.0051C64.7988 36.4791 65.6567 36.3448 66.1876 35.7981C66.7627 35.2024 67.0756 34.3476 67.2936 33.5624C67.3094 33.5071 67.3236 33.4502 67.3363 33.3933C66.4373 34.463 64.9568 34.5515 63.6691 34.4993C63.6667 34.8875 63.7606 35.2702 63.9424 35.6132C64.0167 35.7616 64.1186 35.8946 64.2426 36.0051Z" stroke="black" stroke-width="0.89044" stroke-linecap="round" stroke-linejoin="round"/>
<path d="M65.5811 28.0229C65.5811 28.0229 66.1009 27.2329 67.7709 27.8791C69.441 28.5254 69.4331 29.4844 69.4331 29.4844" stroke="black" stroke-width="0.89044" stroke-miterlimit="10"/>
<path d="M61.6818 29.8952C61.6818 29.8952 62.4718 29.5254 63.0738 29.9378" stroke="black" stroke-width="0.89044" stroke-miterlimit="10"/>
<path d="M65.8767 30.3881C65.8767 30.3881 66.6667 30.0168 67.2687 30.4292" stroke="black" stroke-width="0.89044" stroke-miterlimit="10"/>
<path d="M63.6487 38.9202C63.6487 38.9202 63.3011 40.6898 62.9488 42.2919C62.8982 42.5194 62.8508 42.7438 62.8034 42.965C62.5712 44.0441 62.3831 45.0032 62.3673 45.2955C62.2425 47.7208 64.4956 49.1933 66.7139 49.2376C69.8249 49.2976 71.732 46.4583 71.5282 43.5496C71.3512 43.0155 71.1727 42.4799 70.9973 41.9459C70.7714 41.2601 70.4712 40.5902 70.3542 39.8713C70.2536 39.1638 70.2621 38.4449 70.3795 37.7399C70.5375 36.686 70.7903 35.1155 71.7051 34.4345C72.4667 33.8721 73.2583 33.5102 73.7102 32.6081C74.0341 31.9634 74.0451 31.1197 73.47 30.6204C72.838 30.0706 71.7968 30.1038 71.0115 30.1575C65.9555 30.5193 65.2682 25.3875 63.9252 24.6275C62.8192 24.0034 61.9455 25.3021 61.6674 25.7856L61.6563 25.8062C61.6573 25.8082 61.6576 25.8103 61.6576 25.8125C61.6576 25.8147 61.6573 25.8168 61.6563 25.8188C61.6058 25.9089 61.5805 25.9626 61.5805 25.9626" stroke="black" stroke-width="0.89044" stroke-miterlimit="10"/>
<path d="M63.7702 30.5493C63.7702 30.5493 63.1904 32.2589 63.2235 32.518C63.2567 32.7771 63.8777 32.616 63.8777 32.616" stroke="black" stroke-width="0.89044" stroke-miterlimit="10"/>
<path d="M67.8471 32.4989C68.6791 31.7176 68.7047 30.3932 67.9043 29.5408C67.1039 28.6884 65.7805 28.6307 64.9484 29.4122C64.1164 30.1935 64.0908 31.5179 64.8912 32.3703C65.6917 33.2225 67.0151 33.2802 67.8471 32.4989Z" stroke="black" stroke-width="0.89044" stroke-miterlimit="10"/>
<path d="M62.5968 31.6969C63.4288 30.9156 63.4544 29.5912 62.654 28.7388C61.8534 27.8864 60.5301 27.8288 59.6981 28.6101C58.8661 29.3914 58.8405 30.7159 59.6409 31.5681C60.4413 32.4206 61.7647 32.4782 62.5968 31.6969Z" stroke="black" stroke-width="0.89044" stroke-miterlimit="10"/>
<path d="M61.1005 28.6596C61.1766 28.6599 61.2526 28.6658 61.328 28.677C61.7222 28.7385 62.0774 28.9505 62.3184 29.2684C62.5595 29.5865 62.6677 29.9856 62.6205 30.3818C62.5814 30.7308 62.4146 31.0532 62.152 31.2867C61.8894 31.5201 61.5497 31.648 61.1985 31.6458C61.1223 31.6455 61.0463 31.6397 60.9709 31.6284C60.5767 31.5662 60.2219 31.3538 59.9809 31.0356C59.74 30.7174 59.6316 30.3183 59.6785 29.922C59.7197 29.5746 59.8875 29.2545 60.1498 29.0232C60.4122 28.7917 60.7507 28.665 61.1005 28.6675V28.6596ZM61.1005 28.3104C60.6633 28.3093 60.2408 28.468 59.9126 28.7566C59.5843 29.0453 59.3729 29.4441 59.3183 29.8778C59.2843 30.1436 59.3075 30.4137 59.3862 30.6699C59.4649 30.9261 59.5973 31.1625 59.7747 31.3635C59.952 31.5645 60.1702 31.7253 60.4146 31.8353C60.659 31.9452 60.9242 32.0018 61.1921 32.0013C61.6292 32.0027 62.0515 31.8444 62.3798 31.5561C62.7081 31.2676 62.9195 30.8691 62.9744 30.4355C63.0339 29.9469 62.9009 29.4541 62.6037 29.0616C62.3065 28.6691 61.8682 28.4076 61.3817 28.3326C61.2887 28.3174 61.1947 28.31 61.1005 28.3104Z" fill="white"/>
<path d="M64.3216 30.6331L63.2204 30.4656" stroke="black" stroke-width="0.89044" stroke-miterlimit="10"/>
<path d="M49.7019 62.0261V56.5846H37.5154C37.4774 56.5846 37.4427 56.5846 37.4048 56.5846L37.3352 56.5925C37.334 56.5919 37.3326 56.5915 37.3313 56.5915C37.3299 56.5915 37.3286 56.5919 37.3273 56.5925C37.3036 56.5925 37.2815 56.602 37.2578 56.6067C37.2362 56.61 37.2148 56.6159 37.1946 56.6241C37.1738 56.6296 37.1535 56.6375 37.1346 56.6478C37.1251 56.6478 37.1172 56.6478 37.1077 56.6557C37.0982 56.6636 37.0587 56.6762 37.035 56.6889C37.0052 56.7028 36.9767 56.7192 36.9497 56.7379C36.9249 56.7505 36.9015 56.7658 36.8802 56.7837C36.8437 56.808 36.8099 56.8361 36.7791 56.8674C36.7445 56.8954 36.7132 56.9271 36.6859 56.9622C36.6581 56.9954 36.6321 57.0303 36.6084 57.0665C36.5846 57.1013 36.5636 57.1376 36.5452 57.1755C36.5245 57.2131 36.5081 57.2528 36.4963 57.294C36.482 57.3343 36.4704 57.3754 36.4615 57.4173C36.4457 57.4884 36.4373 57.5609 36.4362 57.6337L36.3746 60.9075C36.3713 60.9443 36.3713 60.9813 36.3746 61.0181C36.3713 61.0342 36.3713 61.0509 36.3746 61.0671V61.0813C36.3738 61.0917 36.3738 61.1023 36.3746 61.1129C36.3773 61.1323 36.382 61.1513 36.3888 61.1698C36.3915 61.196 36.3985 61.2216 36.4094 61.2456C36.431 61.3206 36.4607 61.3933 36.4978 61.4621C36.5317 61.5223 36.5707 61.5795 36.6148 61.6327C36.6374 61.66 36.6615 61.6858 36.6874 61.7101C36.7119 61.7346 36.7378 61.7578 36.7649 61.7796L36.8138 61.8191C36.8407 61.8365 36.866 61.8539 36.896 61.8713C36.9309 61.8932 36.9673 61.9128 37.005 61.9297C37.0442 61.9482 37.085 61.9636 37.1267 61.9756C37.2289 62.0075 37.3354 62.0239 37.4427 62.0245H39.7842L40.5031 61.7354C40.9613 61.7354 41.4748 61.4952 41.9346 61.4952L42.3944 62.0846L49.7019 62.0261Z" fill="#FFF0F4"/>
<path d="M69.1389 57.6701V60.947C69.1389 61.2339 69.0248 61.5093 68.822 61.7122C68.6189 61.9152 68.3437 62.0293 68.0566 62.0293H49.7033V56.5862H68.0566C68.199 56.5862 68.3397 56.6141 68.4712 56.6687C68.6027 56.7232 68.7219 56.803 68.8224 56.9036C68.9231 57.0044 69.0027 57.1239 69.0571 57.2553C69.1113 57.3868 69.1391 57.5277 69.1389 57.6701Z" fill="#E6B3C1"/>
<path d="M49.7019 62.026H51.5473V73.1113H40.3878C39.986 73.1301 39.5834 73.093 39.1917 73.0007C39.1522 72.9896 39.1112 72.9754 39.0701 72.9612L39.048 72.9517C38.7386 72.847 38.4751 72.6381 38.3022 72.3608C38.3033 72.3578 38.3033 72.3545 38.3022 72.3513L38.2674 72.2944C38.5929 72.3718 38.9231 72.435 39.2518 72.484C39.3164 72.4979 39.382 72.5079 39.4477 72.514C39.6057 72.5362 39.7637 72.5535 39.9296 72.5709C39.95 72.5741 39.9708 72.5741 39.9912 72.5709L40.2472 72.593C40.3327 72.6025 40.4188 72.6073 40.5047 72.6073C40.5085 72.6088 40.5125 72.6098 40.5166 72.6098C40.5207 72.6098 40.5248 72.6088 40.5284 72.6073C40.6232 72.6073 40.7164 72.6167 40.8112 72.6199C40.8312 72.6239 40.8515 72.6239 40.8713 72.6199C40.8991 72.6246 40.9274 72.6246 40.955 72.6199C41.132 72.6294 41.3105 72.6294 41.4891 72.6199C41.7387 72.6199 41.9868 72.6088 42.2317 72.5946C42.4246 72.5845 42.6167 72.5622 42.8068 72.5283C42.873 72.5188 42.9384 72.505 43.0027 72.4872C43.0563 72.4764 43.109 72.4622 43.1607 72.4445L43.1876 72.435C43.2887 72.4006 43.386 72.3562 43.4783 72.3023C43.8512 72.0859 44.134 71.6703 44.0613 71.2406C44.022 71.0426 43.9213 70.8618 43.7737 70.7239C43.7611 70.7128 43.75 70.7002 43.7358 70.6891L43.7248 70.6812C43.6496 70.615 43.5668 70.5578 43.4783 70.5106C43.2206 70.3812 42.9446 70.2916 42.6598 70.2452L42.5556 70.2246C42.6077 70.2325 42.6614 70.2388 42.7136 70.2483H42.7483C43.1601 70.3196 43.5802 70.3302 43.9949 70.2799L44.0739 70.272L44.1055 70.2625C44.3293 70.2227 44.5419 70.1361 44.7298 70.0083C44.9177 69.8807 45.0765 69.7148 45.1957 69.5215C45.2174 69.4814 45.2359 69.4397 45.251 69.3967C45.2605 69.3796 45.2686 69.3616 45.2747 69.343C45.3116 69.2272 45.3281 69.1058 45.3237 68.9843C45.3239 68.941 45.3207 68.8977 45.3142 68.8548C45.2948 68.7007 45.2447 68.5522 45.1668 68.4179C45.0889 68.2834 44.9848 68.1662 44.8608 68.0727C44.8195 68.0404 44.775 68.0123 44.7281 67.9889C44.5484 67.9011 44.3539 67.8475 44.1545 67.8309H44.1166C44.0107 67.8183 43.897 67.8135 43.7911 67.8072C42.9648 67.7646 42.1416 67.7172 41.3168 67.6745H41.2268L40.0118 67.6113L39.2786 67.5702H39.2297L38.5771 67.5355C38.6498 67.5355 38.7225 67.5434 38.7936 67.5497H38.8552L39.1064 67.5639C39.8127 67.6066 40.5205 67.6476 41.2268 67.6729H41.3168C41.3168 67.6729 41.3168 67.6729 41.3311 67.6729C41.4733 67.6729 41.617 67.6824 41.7592 67.6871H41.7908C42.1574 67.6966 42.5208 67.7014 42.8874 67.7014C43.2615 67.7211 43.6361 67.6734 43.9934 67.5607C44.1623 67.4983 44.3165 67.4021 44.4468 67.2779C44.4645 67.264 44.48 67.2476 44.4926 67.2289C44.6167 67.1059 44.7023 66.9494 44.7391 66.7786C44.7747 66.5838 44.7481 66.3827 44.6633 66.2035C44.6557 66.1801 44.6451 66.1579 44.6317 66.1372C44.5532 65.9885 44.4457 65.8569 44.3157 65.7501C44.0021 65.5167 43.6368 65.3622 43.2508 65.2998C43.028 65.2539 42.8068 65.216 42.5808 65.1907C42.5763 65.1892 42.5712 65.1892 42.5666 65.1907C42.2686 65.1566 41.9691 65.1381 41.6692 65.1354H41.5886C41.4306 65.1354 41.2568 65.1354 41.0909 65.1354C40.3009 65.1591 39.5299 65.3061 38.7478 65.2934C38.74 65.2694 38.74 65.2434 38.7478 65.2192C38.7561 65.202 38.7662 65.1855 38.7778 65.1702C38.8078 65.1369 38.8451 65.111 38.8868 65.0944C39.1402 65.0144 39.3976 64.9474 39.6578 64.8937C39.9225 64.8117 40.1802 64.7093 40.4289 64.5872C40.5126 64.5461 40.5964 64.5003 40.6801 64.4576C40.6864 64.4541 40.6923 64.4499 40.6975 64.445C41.0165 64.2671 41.3153 64.0552 41.5886 63.813L41.6581 63.7529C41.7008 63.715 41.745 63.6771 41.7845 63.6376C42.0127 63.4344 42.1966 63.1865 42.3249 62.9092C42.3544 62.8384 42.3765 62.765 42.3912 62.6896C42.3976 62.6662 42.4023 62.6425 42.4055 62.6185C42.4119 62.5773 42.4151 62.5355 42.4149 62.4937C42.4149 62.4542 42.396 62.1113 42.3897 62.0718" fill="#FFF0F4"/>
<path d="M67.0302 62.026V71.22C67.0304 71.2888 67.0268 71.3573 67.0192 71.4254L63.5163 72.1491C62.4719 72.3687 62.0295 72.1949 61.8083 71.6593C60.9946 69.7016 58.8285 69.7633 58.8285 69.7633L57.1173 69.7554C56.8424 69.7554 56.5722 69.7206 56.3005 69.7032C56.1309 69.6931 55.9611 69.7178 55.8013 69.7754C55.6416 69.8331 55.4951 69.9227 55.3711 70.0387C55.2471 70.1546 55.148 70.2948 55.0799 70.4504C55.0118 70.6059 54.9759 70.7737 54.9748 70.9435C54.975 71.203 55.056 71.4559 55.2068 71.6672C55.3574 71.8784 55.5702 72.0375 55.8154 72.1222L57.1315 72.3845C57.1843 72.3948 57.2341 72.4172 57.2769 72.4501C57.3196 72.4828 57.3542 72.5251 57.3777 72.5734C57.4012 72.622 57.4132 72.6752 57.4128 72.7289C57.4123 72.7828 57.3993 72.8359 57.3749 72.8838C57.2963 72.9822 57.1949 73.0598 57.0794 73.1097H51.5494V62.026H67.0302Z" fill="#E6B3C1"/>
<path d="M47.7999 56.5846H49.7022H51.5477" stroke="black" stroke-width="0.89044" stroke-miterlimit="10"/>
<path d="M42.3222 62.0292H68.0557C68.2009 62.0301 68.3445 62.0006 68.4775 61.9423C68.6061 61.8878 68.7226 61.8083 68.8204 61.7084C68.9209 61.6083 69.0005 61.489 69.0549 61.3577C69.109 61.2265 69.1367 61.0858 69.1364 60.9437V57.6699C69.1364 57.5279 69.1084 57.3871 69.0539 57.2558C68.9996 57.1245 68.9199 57.0052 68.8194 56.9048C68.7188 56.8043 68.5995 56.7245 68.4682 56.6701C68.3369 56.6158 68.1961 56.5876 68.0541 56.5876H37.5158C37.4779 56.5876 37.4432 56.5876 37.4052 56.5876L37.3357 56.5955C37.2311 56.6132 37.1298 56.6467 37.0355 56.6951C37.0071 56.7093 36.9786 56.7267 36.9502 56.7441C36.9254 56.7569 36.902 56.7722 36.8807 56.7899C36.845 56.8153 36.8112 56.8433 36.7796 56.8736C36.7465 56.9033 36.7154 56.9349 36.6863 56.9684C36.6585 57.0018 36.6326 57.0365 36.6089 57.0727C36.5852 57.1075 36.5663 57.1454 36.5457 57.1817C36.5252 57.2181 36.511 57.2607 36.4967 57.3002C36.4825 57.3405 36.471 57.3818 36.462 57.4235C36.4463 57.4947 36.4378 57.5672 36.4367 57.6399L36.3782 60.9168V60.969C36.3767 60.9875 36.3767 61.006 36.3782 61.0243C36.3782 61.0464 36.3782 61.0669 36.3782 61.0875C36.3774 61.0981 36.3774 61.1087 36.3782 61.1191C36.3782 61.1365 36.3877 61.1586 36.3925 61.176C36.3972 61.1933 36.4051 61.2281 36.413 61.2518C36.434 61.3246 36.4626 61.3951 36.4983 61.4619C36.5321 61.5223 36.5713 61.5793 36.6152 61.6326C36.6389 61.6579 36.6626 61.6847 36.6879 61.71C36.7126 61.7345 36.7383 61.7577 36.7653 61.7795L36.8143 61.819C36.8412 61.8364 36.8665 61.8538 36.8965 61.8712C36.9317 61.8927 36.9682 61.9121 37.0055 61.9296C37.0447 61.9483 37.0854 61.9636 37.1272 61.9754C37.2321 62.0104 37.342 62.0279 37.4526 62.0276H39.7737" stroke="black" stroke-width="0.89044" stroke-miterlimit="10"/>
<path d="M38.2521 72.2881C38.2663 72.3071 38.2806 72.3276 38.2979 72.3482C38.3496 72.4202 38.4073 72.4878 38.4702 72.5504C38.5112 72.5942 38.5556 72.6348 38.6029 72.6721C38.6503 72.7084 38.6993 72.7463 38.7482 72.7779C38.7972 72.8152 38.8502 72.8471 38.9062 72.8727C38.9536 72.8996 38.9995 72.9217 39.0484 72.9454L39.0706 72.9549C39.1262 72.9816 39.1845 73.0027 39.2444 73.0181C39.296 73.0348 39.3488 73.0481 39.4024 73.0576C39.4238 73.0645 39.4461 73.0693 39.4687 73.0718C39.5182 73.083 39.5683 73.0909 39.6188 73.0955C39.6815 73.104 39.7449 73.1077 39.8084 73.1066H57.0715C57.187 73.0566 57.2884 72.979 57.367 72.8806C57.391 72.8326 57.4038 72.7796 57.4041 72.7259C57.4044 72.672 57.3924 72.619 57.3689 72.5708C57.3453 72.5224 57.3109 72.4802 57.2684 72.4474C57.2259 72.4145 57.1763 72.3919 57.1236 72.3813L55.8075 72.1191C55.5621 72.0344 55.3495 71.8753 55.1989 71.664C55.0482 71.4528 54.9671 71.1998 54.9669 70.9404C54.968 70.7705 55.0038 70.6027 55.072 70.4471C55.1401 70.2916 55.2392 70.1515 55.3632 70.0355C55.4872 69.9194 55.6335 69.8298 55.7934 69.7721C55.9532 69.7145 56.1229 69.69 56.2926 69.7001C56.5643 69.7175 56.8345 69.7491 57.1094 69.7522L58.8206 69.7601C58.8206 69.7601 60.9867 69.6969 61.8004 71.6561C62.0216 72.1917 62.464 72.3655 63.5084 72.1459L67.0192 71.4223C67.0268 71.354 67.0304 71.2854 67.0302 71.2169V62.0292H49.7024" stroke="black" stroke-width="0.89044" stroke-miterlimit="10"/>
<path d="M67.9808 48.0652V50.1776C67.9808 50.3628 67.9073 50.5406 67.7763 50.6714C67.6453 50.8024 67.4677 50.876 67.2824 50.876H50.8204V47.3668H67.2824C67.4677 47.3668 67.6453 47.4404 67.7763 47.5714C67.9073 47.7024 67.9808 47.88 67.9808 48.0652Z" fill="#E6B3C1"/>
<path d="M50.8209 47.3668V50.876H42.9209C42.8283 50.8758 42.7366 50.8572 42.6513 50.8213C42.5658 50.7855 42.4886 50.733 42.4235 50.6671C42.3585 50.6011 42.3073 50.5229 42.2729 50.4369C42.2383 50.3511 42.2212 50.2592 42.2225 50.1666L42.2604 48.051C42.2637 47.8682 42.3388 47.6939 42.4694 47.5659C42.6001 47.4379 42.7758 47.3663 42.9588 47.3668H50.8209Z" fill="#FFF0F4"/>
<path d="M66.6209 50.876V55.3648C66.6201 55.6885 66.4911 55.9987 66.2624 56.2274C66.0334 56.4564 65.7233 56.5853 65.3995 56.5861H52.0122V50.876H66.6209Z" fill="#E6B3C1"/>
<path d="M52.012 50.876V56.5861H44.4375C44.1136 56.5856 43.8033 56.4568 43.5743 56.2279C43.3452 55.999 43.2165 55.6885 43.2162 55.3648V50.876H52.012Z" fill="#FFF0F4"/>
<path d="M49.7021 56.5862V62.0277" stroke="black" stroke-width="0.89044" stroke-miterlimit="10"/>
<path d="M51.5475 62.0276V73.1129" stroke="black" stroke-width="0.89044" stroke-miterlimit="10"/>
<path d="M67.9808 48.0652V50.1776C67.9808 50.3628 67.9073 50.5406 67.7763 50.6714C67.6453 50.8024 67.4677 50.876 67.2824 50.876H50.8204V47.3668H67.2824C67.4677 47.3668 67.6453 47.4404 67.7763 47.5714C67.9073 47.7024 67.9808 47.88 67.9808 48.0652Z" stroke="black" stroke-width="0.89044" stroke-miterlimit="10"/>
<path d="M50.8209 47.3668V50.876H42.9209C42.8283 50.8758 42.7366 50.8572 42.6513 50.8213C42.5658 50.7855 42.4886 50.733 42.4235 50.6671C42.3585 50.6011 42.3073 50.5229 42.2729 50.4369C42.2383 50.3511 42.2212 50.2592 42.2225 50.1666L42.2604 48.051C42.2637 47.8682 42.3388 47.6939 42.4694 47.5659C42.6001 47.4379 42.7758 47.3663 42.9588 47.3668H50.8209Z" stroke="black" stroke-width="0.89044" stroke-miterlimit="10"/>
<path d="M66.6209 50.876V55.3648C66.6201 55.6885 66.4911 55.9987 66.2624 56.2274C66.0334 56.4564 65.7233 56.5853 65.3995 56.5861H52.0122V50.876H66.6209Z" stroke="black" stroke-width="0.89044" stroke-miterlimit="10"/>
<path d="M52.012 50.876V56.5861H44.4375C44.1136 56.5856 43.8033 56.4568 43.5743 56.2279C43.3452 55.999 43.2165 55.6885 43.2162 55.3648V50.876H52.012Z" stroke="black" stroke-width="0.89044" stroke-miterlimit="10"/>
<path d="M59.5848 37.4713V39.5838C59.5859 39.6762 59.5685 39.7678 59.5339 39.8535C59.4993 39.9391 59.4481 40.017 59.383 40.0827C59.3181 40.1485 59.2408 40.2006 59.1555 40.2361C59.0704 40.2717 58.9789 40.29 58.8864 40.29H47.0364V36.7729H58.8864C59.0716 36.7729 59.2494 36.8466 59.3803 36.9776C59.5113 37.1085 59.5848 37.2861 59.5848 37.4713Z" fill="#E6B3C1"/>
<path d="M47.0429 36.7714H39.5901V40.2821H47.0429V36.7714Z" fill="#FFF0F4"/>
<path d="M58.226 40.29V46.2214C58.2252 46.5451 58.0963 46.8553 57.8673 47.084C57.6386 47.313 57.3284 47.4419 57.0047 47.4427H48.2357V40.29H58.226Z" fill="#E6B3C1"/>
<path d="M48.2358 40.29V47.4427H40.6613C40.6288 47.446 40.596 47.446 40.5633 47.4427V40.29H48.2358Z" fill="#FFF0F4"/>
<path d="M59.5848 37.4713V39.5838C59.5859 39.6762 59.5685 39.7678 59.5339 39.8535C59.4993 39.9391 59.4481 40.017 59.383 40.0827C59.3181 40.1485 59.2408 40.2006 59.1555 40.2361C59.0704 40.2717 58.9789 40.29 58.8864 40.29H47.0364V36.7729H58.8864C59.0716 36.7729 59.2494 36.8466 59.3803 36.9776C59.5113 37.1085 59.5848 37.2861 59.5848 37.4713Z" stroke="black" stroke-width="0.89044" stroke-miterlimit="10"/>
<path d="M47.0431 36.7729V40.29H39.1431C39.0503 40.29 38.9587 40.2717 38.8732 40.2358C38.7877 40.2001 38.7103 40.1477 38.6452 40.0816C38.5803 40.0156 38.5291 39.9374 38.4947 39.8513C38.4602 39.7653 38.4433 39.6734 38.4447 39.5806L38.4826 37.4634C38.486 37.2808 38.561 37.1066 38.6918 36.979C38.8225 36.8512 38.9982 36.7801 39.181 36.7808L47.0431 36.7729Z" stroke="black" stroke-width="0.89044" stroke-miterlimit="10"/>
<path d="M58.226 40.29V46.2214C58.2252 46.5451 58.0963 46.8553 57.8673 47.084C57.6386 47.313 57.3284 47.4419 57.0047 47.4427H48.2357V40.29H58.226Z" stroke="black" stroke-width="0.89044" stroke-miterlimit="10"/>
<path d="M48.236 40.29V47.4427H40.6615C40.3377 47.4422 40.0272 47.3135 39.7983 47.0845C39.5694 46.8556 39.4406 46.5451 39.4401 46.2214V40.29H48.236Z" stroke="black" stroke-width="0.89044" stroke-miterlimit="10"/>
<path d="M56.9669 30.2017V31.589C56.9669 31.6493 56.9549 31.7091 56.9318 31.7647C56.9087 31.8204 56.8748 31.871 56.8321 31.9135C56.7893 31.9562 56.7387 31.9898 56.683 32.0127C56.6272 32.0356 56.5673 32.0473 56.5071 32.0472H48.7319V29.7435H56.5071C56.5673 29.7434 56.6272 29.7551 56.683 29.778C56.7387 29.8009 56.7893 29.8345 56.8321 29.8772C56.8748 29.9197 56.9087 29.9703 56.9318 30.026C56.9549 30.0817 56.9669 30.1414 56.9669 30.2017Z" fill="#E6B3C1"/>
<path d="M48.7318 29.7435H43.8369V32.0472H48.7318V29.7435Z" fill="#FFF0F4"/>
<path d="M56.0744 32.0471V35.9418C56.0734 36.1543 55.9886 36.3578 55.8382 36.5079C55.6877 36.658 55.4841 36.7424 55.2717 36.7429H49.5158V32.0471H56.0744Z" fill="#E6B3C1"/>
<path d="M49.5156 32.0455H44.5528V36.7413H49.5156V32.0455Z" fill="#FFF0F4"/>
<path d="M56.9669 30.2017V31.589C56.9669 31.6493 56.9549 31.7091 56.9318 31.7647C56.9087 31.8204 56.8748 31.871 56.8321 31.9135C56.7893 31.9562 56.7387 31.9898 56.683 32.0127C56.6272 32.0356 56.5673 32.0473 56.5071 32.0472H48.7319V29.7435H56.5071C56.5673 29.7434 56.6272 29.7551 56.683 29.778C56.7387 29.8009 56.7893 29.8345 56.8321 29.8772C56.8748 29.9197 56.9087 29.9703 56.9318 30.026C56.9549 30.0817 56.9669 30.1414 56.9669 30.2017Z" stroke="black" stroke-width="0.89044" stroke-miterlimit="10"/>
<path d="M48.7321 29.7435V32.0471H43.545C43.4835 32.047 43.4227 32.0345 43.3661 32.0103C43.3095 31.9863 43.2583 31.9511 43.2157 31.907C43.173 31.8627 43.1395 31.8105 43.1174 31.7531C43.0953 31.6957 43.0849 31.6346 43.0868 31.5731L43.112 30.1843C43.1144 30.0646 43.1639 29.9503 43.2495 29.8664C43.3351 29.7825 43.4503 29.7356 43.5702 29.7356L48.7321 29.7435Z" stroke="black" stroke-width="0.89044" stroke-miterlimit="10"/>
<path d="M56.0744 32.0471V35.9418C56.0734 36.1543 55.9886 36.3578 55.8382 36.5079C55.6877 36.658 55.4841 36.7424 55.2717 36.7429H49.5158V32.0471H56.0744Z" stroke="black" stroke-width="0.89044" stroke-miterlimit="10"/>
<path d="M49.5156 32.0471V36.7429H44.5418C44.3294 36.7424 44.1259 36.6579 43.9758 36.5078C43.8256 36.3577 43.741 36.1542 43.7407 35.9418V32.0471H49.5156Z" stroke="black" stroke-width="0.89044" stroke-miterlimit="10"/>
<path d="M55.6019 24.2782V25.4379C55.6015 25.5397 55.561 25.6372 55.489 25.7091C55.4171 25.781 55.3197 25.8216 55.218 25.8219H48.7226V23.8943H55.218C55.2684 23.8943 55.3183 23.9042 55.3649 23.9235C55.4116 23.943 55.4539 23.9712 55.4894 24.0068C55.5252 24.0425 55.5534 24.0848 55.5727 24.1314C55.592 24.1779 55.6019 24.2278 55.6019 24.2782Z" fill="#E6B3C1"/>
<path d="M48.7242 23.8943H44.7868V25.8203H48.7242V23.8943Z" fill="#FFF0F4"/>
<path d="M54.8563 25.8203V29.072C54.8554 29.2494 54.7846 29.4192 54.6592 29.5447C54.5337 29.6701 54.3639 29.7411 54.1864 29.7419H49.3769V25.8203H54.8563Z" fill="#E6B3C1"/>
<path d="M49.3767 25.8203V29.7435H45.2229C45.1205 29.7439 45.0194 29.7205 44.9276 29.6754C44.8358 29.63 44.7557 29.5641 44.6936 29.4828H45.3635V25.8203H49.3767Z" fill="#FFF0F4"/>
<path d="M55.6019 24.2782V25.4379C55.6015 25.5397 55.561 25.6372 55.489 25.7091C55.4171 25.781 55.3197 25.8216 55.218 25.8219H48.7226V23.8943H55.218C55.2684 23.8943 55.3183 23.9042 55.3649 23.9235C55.4116 23.943 55.4539 23.9712 55.4894 24.0068C55.5252 24.0425 55.5534 24.0848 55.5727 24.1314C55.592 24.1779 55.6019 24.2278 55.6019 24.2782Z" stroke="black" stroke-width="0.89044" stroke-miterlimit="10"/>
<path d="M48.7225 23.8943V25.8203H44.3885C44.3376 25.8201 44.2874 25.8099 44.2406 25.7901C44.1937 25.7704 44.1514 25.7415 44.1158 25.7051C44.0803 25.6688 44.0521 25.6258 44.0333 25.5786C44.0145 25.5315 44.0054 25.4809 44.0062 25.43L44.0267 24.2703C44.0283 24.1702 44.0694 24.0744 44.1409 24.0041C44.2123 23.9338 44.3087 23.8943 44.4091 23.8943H48.7225Z" stroke="black" stroke-width="0.89044" stroke-miterlimit="10"/>
<path d="M54.8563 25.8203V29.072C54.8554 29.2494 54.7846 29.4192 54.6592 29.5447C54.5337 29.6701 54.3639 29.7411 54.1864 29.7419H49.3769V25.8203H54.8563Z" stroke="black" stroke-width="0.89044" stroke-miterlimit="10"/>
<path d="M49.3766 25.8203V29.7435H45.2212C45.0442 29.7417 44.875 29.6703 44.7505 29.5445C44.6258 29.4188 44.556 29.2489 44.556 29.072V25.8203H49.3766Z" stroke="black" stroke-width="0.89044" stroke-miterlimit="10"/>
<path d="M47.4885 146.213C45.6683 146.368 43.8477 146.521 42.0264 146.673C41.5954 146.706 41.1931 146.902 40.9004 147.22C40.6076 147.538 40.4459 147.955 40.448 148.387C40.448 148.612 40.4924 148.836 40.5787 149.043C40.6649 149.252 40.7913 149.44 40.9508 149.599C41.1102 149.759 41.2993 149.885 41.5075 149.971C41.7156 150.056 41.9387 150.1 42.1639 150.1L56.722 150.084C56.7797 150.084 56.8364 150.071 56.8879 150.045C56.9394 150.02 56.9844 149.982 57.0192 149.936C57.0538 149.891 57.0775 149.837 57.0882 149.781C57.0988 149.724 57.0963 149.666 57.0807 149.61C53.6761 137.183 51.8223 124.383 51.5617 111.501" stroke="black" stroke-width="0.89044" stroke-miterlimit="10"/>
<path d="M74.9081 69.7059V69.7017" stroke="black" stroke-width="0.89044" stroke-miterlimit="10"/>
<path d="M71.5392 87.1907C71.3481 88.025 71.1521 88.8576 70.9452 89.6887C70.8899 89.9131 70.8314 90.139 70.7745 90.3602C68.5799 98.9459 65.3077 107.562 66.9525 116.25C69.204 128.138 76.8449 140.778 82.476 149.588C82.6056 149.793 80.7048 150.102 80.4615 150.1C76.1118 150.062 70.1567 150.026 65.5542 149.988C65.1202 149.985 64.705 149.81 64.3987 149.502C64.0927 149.195 63.9202 148.779 63.9189 148.345V148.316C63.9173 147.925 64.0548 147.547 64.3066 147.248C64.5583 146.949 64.9083 146.75 65.2935 146.686C67.0141 146.4 69.4173 146.114 70.4964 145.829L68.354 143.383C64.622 138.896 60.514 134.3 57.7822 129.102C53.4988 120.935 51.0451 111.864 50.3167 102.678C49.9185 97.6867 50.2329 92.6639 51.4227 87.8006" stroke="black" stroke-width="0.89044" stroke-miterlimit="10"/>
<path d="M58.2262 43.0186C58.91 42.6728 59.6169 42.3745 60.3418 42.1259C61.0806 41.8717 61.8374 41.6731 62.6059 41.5318C62.6059 41.5318 62.6138 41.5318 62.6201 41.5318L62.8066 41.4971C62.8682 41.486 62.9282 41.4765 62.9899 41.4686C63.0515 41.4607 63.0847 41.4513 63.1305 41.4449" stroke="black" stroke-width="0.89044" stroke-miterlimit="10"/>
<path d="M41.9285 73.1129C41.5186 74.6803 41.1279 76.2535 40.7561 77.8324C40.2462 80.0096 39.7797 82.1948 39.3562 84.3878C37.3022 95.1128 36.4206 106.162 37.9563 117.015C38.6898 122.22 39.8858 127.348 41.5303 132.341C42.3529 134.834 43.2862 137.287 44.3301 139.699C44.6271 140.38 46.9086 146.216 47.4822 146.216" stroke="black" stroke-width="0.89044" stroke-miterlimit="10"/>
<path d="M69.0127 79.5482C69.0457 79.5503 69.0784 79.555 69.1106 79.5624L69.2686 79.5845C70.4931 79.7757 71.7476 79.94 73.0069 80.0585C81.7648 80.8896 90.5781 79.5766 89.8039 70.5422C89.3299 64.8874 87.4339 61.6278 85.1571 56.5671C84.9833 56.1836 84.809 55.8029 84.6341 55.4248C82.8582 51.5996 80.8532 47.9988 77.314 45.5529C77.0659 45.3791 76.8147 45.2148 76.5524 45.0552C74.8713 44.044 73.0902 43.2096 71.2373 42.5651L71.2104 42.5573" stroke="black" stroke-width="0.89044" stroke-miterlimit="10"/>
<path d="M72.3416 58.4995L76.3974 66.2873C76.6109 66.6904 76.7017 67.147 76.6588 67.6009C76.6158 68.0549 76.4409 68.4864 76.1557 68.8422C75.4747 69.7049 74.4272 69.855 73.416 70.1062L67.017 71.4255L63.5157 72.1491C62.4713 72.3688 62.0289 72.195 61.8077 71.6593C60.994 69.7017 58.8278 69.7633 58.8278 69.7633L57.1167 69.7554C56.8418 69.7554 56.5716 69.7207 56.2998 69.7033C56.1303 69.6932 55.9604 69.7177 55.8007 69.7753C55.641 69.833 55.4947 69.9226 55.3706 70.0387C55.2466 70.1547 55.1475 70.2948 55.0794 70.4503C55.0112 70.6059 54.9755 70.7737 54.9742 70.9436C54.9745 71.203 55.0556 71.456 55.2062 71.6672C55.3569 71.8785 55.5696 72.0376 55.8148 72.1223L57.1309 72.3846C57.1837 72.3951 57.2333 72.4177 57.2758 72.4506C57.3183 72.4835 57.3527 72.5256 57.3763 72.574C57.3998 72.6223 57.4118 72.6754 57.4115 72.7292C57.4112 72.7829 57.3984 72.8358 57.3742 72.8838C57.2959 72.9823 57.1944 73.0598 57.0788 73.1098H48.2118C48.1124 73.1186 48.016 73.1496 47.9301 73.2003C47.844 73.251 47.7702 73.3204 47.7143 73.403C47.6583 73.4858 47.6215 73.58 47.6064 73.6787C47.5913 73.7775 47.5985 73.8784 47.6272 73.974C47.7852 74.655 48.5673 75.0358 49.1772 75.2112C53.6802 76.5163 58.2006 77.567 62.8094 78.4281C64.9573 78.8294 67.1097 79.2138 69.2669 79.5815" stroke="black" stroke-width="0.89044" stroke-miterlimit="10"/>
<path d="M39.7779 62.0292C38.3812 62.6612 37.024 62.6327 36.3746 64.0705C35.7101 65.626 35.407 67.3121 35.4882 69.0017C35.6115 71.0684 36.9782 72.187 39.1222 72.4635C40.0035 72.6115 40.8981 72.6645 41.7908 72.6215C42.3249 72.5931 42.8968 72.5962 43.3882 72.3703C44.0408 72.0764 44.3662 71.2153 43.7342 70.7018C43.4056 70.4332 42.9553 70.3352 42.5398 70.2515C43.0011 70.2752 43.4404 70.2926 43.8038 70.3005C44.5543 70.321 45.3142 69.8044 45.3142 68.9986C45.3142 68.1327 44.6032 67.8531 43.8654 67.8151L38.5629 67.5418L42.0642 67.7109C42.8747 67.7519 44.3583 67.8926 44.6759 66.8908C44.7429 66.6758 44.7394 66.4451 44.6661 66.2323C44.5928 66.0195 44.4535 65.8356 44.2683 65.7074C43.6363 65.2666 42.7799 65.2034 42.0405 65.1623C40.9624 65.0781 39.8786 65.1058 38.8062 65.2445C38.9058 65.2176 38.6245 65.2445 38.7162 65.2176C39.5804 64.9459 40.0197 64.9016 40.7702 64.4087" stroke="black" stroke-width="0.89044" stroke-miterlimit="10"/>
<path d="M39.7784 62.0292C39.919 61.966 40.0944 61.8823 40.2808 61.8017C40.3346 61.778 40.393 61.7559 40.4499 61.7322C40.5068 61.7085 40.5605 61.6895 40.6174 61.669L40.7849 61.6137L40.8686 61.5884C40.9034 61.5757 40.9413 61.5678 40.976 61.5584L41.0361 61.5473C41.1037 61.5301 41.1723 61.5163 41.2415 61.5062C41.3461 61.4915 41.4519 61.4877 41.5575 61.4952L41.6302 61.5046C41.6479 61.5043 41.6654 61.507 41.6823 61.5125C41.7171 61.5125 41.7518 61.5268 41.785 61.5362C41.8242 61.5465 41.8623 61.5609 41.8988 61.5789C41.959 61.6072 42.0154 61.6432 42.0662 61.6863C42.0828 61.6988 42.0983 61.7132 42.1121 61.729C42.162 61.78 42.2065 61.8361 42.2448 61.8965C42.2448 61.8965 43.128 63.0973 40.698 64.4592" stroke="black" stroke-width="0.89044" stroke-miterlimit="10"/>
<path d="M42.6015 70.2674C42.6015 70.2674 39.9234 69.9972 39.5253 69.9688" stroke="black" stroke-width="0.89044" stroke-miterlimit="10"/>
<path d="M40.3962 79.4029C40.3962 79.4029 62.4103 77.9572 71.5396 87.1907C72.0025 87.5715 73.543 89.4596 70.7748 90.3618" stroke="black" stroke-width="0.89044" stroke-miterlimit="10"/>
<path d="M75.8508 80.264C75.8508 80.264 74.0148 87.216 72.1788 89.4596" stroke="black" stroke-width="0.89044" stroke-miterlimit="10"/>
<path d="M71.3168 86.9695C71.3168 86.9695 73.257 88.1102 71.8666 89.8056L70.6927 90.3617L71.5174 87.2855L71.3168 86.9695Z" fill="black"/>
<path d="M77.9128 83.1649C78.8245 73.6185 76.5177 70.6449 74.7686 69.7349L74.9076 69.6969C81.0507 68.869 82.3336 80.6226 82.5485 83.3497L77.9128 83.1649Z" fill="#FFF0F4"/>
<path d="M77.8133 83.9154C78.7249 74.369 76.5177 70.6434 74.7686 69.7397L74.9076 69.7017C81.0507 68.8738 82.3731 81.1868 82.5864 83.9217L77.8133 83.9154Z" fill="#FFF0F4"/>
<path d="M69.0556 84.0023H64.0739V112.975H69.0556V84.0023Z" fill="white"/>
<path d="M74.908 69.7017C81.86 68.7664 82.5868 83.9217 82.5868 83.9217H77.8136C78.6194 69.1029 72.3689 70.3337 72.3689 70.3337C72.5806 70.3006 74.908 69.7017 74.908 69.7017Z" stroke="black" stroke-width="0.89044" stroke-miterlimit="10"/>
<path d="M93.5753 85.2868H70.3667V112.888H93.5753V85.2868Z" fill="#E6B3C1"/>
<path d="M93.5755 83.8253H69.1392V112.888H93.5755V83.8253Z" fill="white"/>
<path d="M93.8729 85.004V111.806C93.8729 112.565 93.1303 113.182 92.2123 113.182H65.5213C64.6034 113.182 63.8592 112.565 63.8592 111.806V85.004C63.8592 84.244 64.6034 83.6278 65.5213 83.6278H92.2123C93.1303 83.6215 93.8729 84.2377 93.8729 85.004Z" fill="#E6B3C1"/>
<path d="M92.446 86.2806V110.696C92.4472 110.86 92.4163 111.022 92.355 111.173C92.2937 111.324 92.2031 111.462 92.0884 111.579C91.9739 111.695 91.8375 111.788 91.6871 111.851C91.5367 111.915 91.3754 111.948 91.212 111.949H71.394C71.2307 111.948 71.0693 111.915 70.9189 111.851C70.7685 111.788 70.6322 111.695 70.5176 111.579C70.4029 111.462 70.3124 111.324 70.2511 111.173C70.1898 111.022 70.1588 110.86 70.1601 110.696V86.2806C70.1588 86.1174 70.1898 85.9555 70.2511 85.8041C70.3124 85.6528 70.4029 85.515 70.5176 85.3987C70.6322 85.2822 70.7685 85.1897 70.9189 85.126C71.0693 85.0625 71.2307 85.029 71.394 85.0277H91.212C91.3754 85.029 91.5367 85.0625 91.6871 85.126C91.8375 85.1897 91.9739 85.2822 92.0884 85.3987C92.2031 85.515 92.2937 85.6528 92.355 85.8041C92.4163 85.9555 92.4472 86.1174 92.446 86.2806Z" fill="#E6B3C1"/>
<path d="M93.5752 83.9154H69.1373V112.888H93.5752V83.9154Z" stroke="black" stroke-width="0.89044" stroke-miterlimit="10"/>
<path d="M69.0364 83.9154H64.1573V112.888H69.0364V83.9154Z" stroke="black" stroke-width="0.89044" stroke-miterlimit="10"/>
<path d="M64.1573 112.888L66.5652 109.429L69.0364 112.888" stroke="black" stroke-width="0.89044" stroke-miterlimit="10"/>
<path d="M66.5972 83.9154L66.5656 109.429" stroke="black" stroke-width="0.89044" stroke-miterlimit="10"/>
<path d="M73.8682 80.0586V83.9154" stroke="black" stroke-width="0.89044" stroke-miterlimit="10"/>
<path d="M77.867 80.264C77.867 80.264 74.1903 80.2008 73.5188 80.0096C73.5188 80.0096 73.868 79.5783 73.868 81.1298C73.868 82.6814 73.7306 83.909 74.0576 83.909C74.3847 83.909 77.649 83.819 77.649 83.819C77.649 83.819 77.9097 83.5851 77.8607 82.871C77.8117 82.1568 77.867 80.264 77.867 80.264Z" fill="black"/>
<path d="M27.3907 150.092H130.609" stroke="black" stroke-width="0.89044" stroke-miterlimit="10"/>
<path d="M97.0501 29.4575C98.078 29.4575 98.9113 28.6242 98.9113 27.5962C98.9113 26.5683 98.078 25.735 97.0501 25.735C96.0221 25.735 95.1888 26.5683 95.1888 27.5962C95.1888 28.6242 96.0221 29.4575 97.0501 29.4575Z" fill="#FFF0F4"/>
<path d="M92.3368 35.1787C92.3368 33.9288 92.8334 32.73 93.7172 31.846C94.6011 30.9622 95.8 30.4656 97.0499 30.4656C98.3 30.4656 99.4988 30.9622 100.383 31.846C101.266 32.73 101.763 33.9288 101.763 35.1787H92.3368Z" fill="#FFF0F4"/>
<path d="M101.913 24.125H92.1867C91.3752 24.125 90.7173 24.7829 90.7173 25.5944V35.3209C90.7173 36.1325 91.3752 36.7903 92.1867 36.7903H101.913C102.725 36.7903 103.383 36.1325 103.383 35.3209V25.5944C103.383 24.7829 102.725 24.125 101.913 24.125Z" stroke="#CCDDE2" stroke-width="0.89044" stroke-miterlimit="10"/>
<path d="M97.5095 119.685L98.8873 122.477C98.9243 122.551 98.9789 122.616 99.0462 122.664C99.1137 122.713 99.1919 122.745 99.2744 122.757L102.354 123.204C102.448 123.218 102.537 123.258 102.611 123.319C102.684 123.381 102.738 123.462 102.768 123.553C102.797 123.644 102.801 123.742 102.778 123.834C102.755 123.927 102.707 124.012 102.638 124.079L100.409 126.252C100.349 126.31 100.305 126.382 100.279 126.461C100.254 126.54 100.248 126.624 100.262 126.707L100.788 129.773C100.804 129.868 100.794 129.965 100.758 130.053C100.722 130.142 100.662 130.219 100.584 130.275C100.507 130.332 100.415 130.365 100.32 130.372C100.224 130.379 100.129 130.36 100.044 130.315L97.2883 128.866C97.2152 128.828 97.1338 128.808 97.0513 128.808C96.9687 128.808 96.8873 128.828 96.8143 128.866L94.0588 130.315C93.974 130.36 93.8784 130.379 93.7829 130.372C93.6874 130.365 93.5957 130.332 93.5183 130.275C93.441 130.219 93.3808 130.142 93.3448 130.053C93.3088 129.965 93.2984 129.868 93.3146 129.773L93.8408 126.707C93.8552 126.624 93.8493 126.54 93.8237 126.461C93.7981 126.382 93.7534 126.31 93.6938 126.252L91.4645 124.079C91.3959 124.012 91.3475 123.927 91.3246 123.834C91.3019 123.742 91.3053 123.644 91.3349 123.553C91.3644 123.462 91.419 123.381 91.4921 123.319C91.5651 123.258 91.6541 123.218 91.7489 123.204L94.8299 122.757C94.912 122.745 94.9901 122.713 95.0572 122.664C95.1244 122.616 95.1787 122.551 95.2154 122.477L96.5931 119.685C96.636 119.6 96.7015 119.529 96.7824 119.479C96.8633 119.43 96.9564 119.403 97.0513 119.403C97.1463 119.403 97.2394 119.43 97.3203 119.479C97.4012 119.529 97.4666 119.6 97.5095 119.685Z" fill="#FFF0F4"/>
<path d="M76.6695 126.7H87.1322" stroke="#CCDDE2" stroke-width="0.89044" stroke-miterlimit="10"/>
</svg>
