<svg width="158" height="158" viewBox="0 0 158 158" fill="none" xmlns="http://www.w3.org/2000/svg">
<path d="M101.603 76.0453C90.9905 82.3653 78.0439 74.9188 78.6522 74.7892C98.7151 70.4269 100.488 57.7695 100.488 57.7695C96.4825 47.983 85.5647 51.1335 85.5647 51.1335C85.2487 65.0217 68.7188 65.8038 68.7188 65.8038C67.657 61.2976 67.7155 50.7764 67.7155 50.7764C62.7053 47.2735 61.6909 48.7603 61.6909 48.7603C63.2709 34.8563 69.6336 30.3739 69.6336 30.3739C70.6938 29.3864 75.4322 27.1665 77.8654 26.8789L77.9523 27.2644C77.9523 27.2644 75.4922 33.4075 80.207 33.8119C84.1743 34.1595 86.429 29.2758 87.0436 27.7258C92.2023 29.3247 97.1256 32.9034 100.401 38.9232C108.149 53.1654 101.603 76.0453 101.603 76.0453Z" fill="#3FBDF1"/>
<path d="M102.751 70.0525L128.538 87.1165C133.538 90.425 132.895 97.9553 127.411 100.368L97.2332 113.649C94.4267 114.884 91.3494 115.376 88.2978 115.078C85.2462 114.779 82.3229 113.7 79.809 111.945L68.2197 103.842" stroke="black" stroke-width="1.11986" stroke-miterlimit="10"/>
<path d="M102.751 75.5556L101.883 74.9805L128.543 92.6164C133.543 95.9249 132.9 103.455 127.416 105.868L97.2381 119.149C94.4315 120.384 91.3543 120.876 88.3027 120.577C85.2511 120.279 82.3278 119.2 79.8139 117.445L65.0788 106.95" stroke="black" stroke-width="1.11986" stroke-miterlimit="10"/>
<path d="M125.191 99.4262L97.4544 111.635C94.8749 112.769 92.047 113.221 89.2427 112.947C86.4382 112.672 83.7515 111.681 81.4411 110.067L70.8124 102.6C72.2758 101.479 73.9156 100.609 75.6646 100.025C80.046 98.5368 84.3216 96.7542 88.4626 94.6893C91.606 93.1343 94.3671 90.9043 96.5489 88.1586C98.7306 85.4127 100.279 82.219 101.084 78.8056C101.64 76.4435 102.128 74.0546 102.528 71.653L126.939 87.7895C131.533 90.8294 130.23 97.211 125.191 99.4262Z" fill="#3FBDF1"/>
<path d="M53.7202 134.809C53.7202 134.809 58.5834 132.793 59.5156 131.273C59.5156 131.273 59.691 134.723 58.7809 135.902C57.8708 137.081 52.4325 140.197 52.1402 139.806C51.8479 139.416 53.7202 134.809 53.7202 134.809Z" fill="#3FBDF1"/>
<path d="M38.7498 143.031C38.7498 143.031 39.6346 144.232 42.7741 143.031C45.9135 141.83 52.7439 137.408 52.7439 137.408C52.7439 137.408 50.8384 142.524 50.1479 143.086C49.4575 143.649 36.413 150.038 36.413 150.038C36.413 150.038 30.5812 150.868 32.779 146.72L38.7498 143.031Z" fill="#3FBDF1"/>
<path d="M57.5232 76.1844C50.3342 78.9826 42.7265 85.557 44.9148 103.763L45.5231 108.494" stroke="black" stroke-width="1.11986" stroke-miterlimit="10"/>
<path d="M57.512 64.295C58.6875 62.617 59.7493 60.8032 60.4002 58.8503C61.0512 56.8974 61.0844 54.7818 61.2661 52.7278C61.7496 47.2199 62.4985 42.6648 64.6236 37.5345C66.4643 33.0947 72.0243 27.3751 77.5559 26.8332L78.0536 26.7905" stroke="black" stroke-width="1.11986" stroke-miterlimit="10"/>
<path d="M71.416 75.7816C71.3891 75.7042 71.3623 75.6315 71.3338 75.5557" stroke="black" stroke-width="1.11986" stroke-miterlimit="10"/>
<path d="M68.7186 65.4626C68.4469 63.8652 68.2446 62.3168 68.0866 60.8474C68.0871 60.8197 68.0839 60.7921 68.0771 60.7652C67.2492 52.5603 68.0866 46.5911 68.0866 46.5911" stroke="black" stroke-width="1.11986" stroke-miterlimit="10"/>
<path d="M88.0438 15.664L86.7798 16.1571C86.7798 16.1966 86.7798 16.6895 86.726 17.38C86.6673 18.2046 86.5361 19.0226 86.3342 19.8243C86.4464 19.2776 86.6091 17.9788 85.895 17.0751C85.8839 17.0566 85.8711 17.039 85.857 17.0229C85.383 16.4525 84.7984 16.6785 84.3292 17.0703C84.0051 17.3444 83.722 17.6638 83.4886 18.0183C83.5705 16.9627 83.3812 15.9038 82.9388 14.942C82.6503 14.2859 82.2674 13.6754 81.8028 13.1297C82.5185 15.5945 81.6005 17.2078 81.6005 17.2078C79.1752 17.7782 77.4925 17.6565 76.238 17.44C75.181 16.4541 75.5475 12.9038 75.5475 12.9038C74.4842 13.7728 74.7402 17.1351 74.7402 17.1351C74.6043 16.2577 74.6209 15.3634 74.7891 14.4917C74.2609 15.2386 73.9557 16.1203 73.9091 17.034L73.8901 17.0245C73.8168 17.0057 73.7446 16.9829 73.6737 16.9566C73.5435 16.888 73.4174 16.8121 73.296 16.729L72.5961 16.255C73.6531 10.8624 77.3487 7.47175 83.0589 8.46715C83.4316 8.53139 83.7983 8.62651 84.1554 8.75155C87.9174 10.7123 88.0438 15.664 88.0438 15.664Z" fill="#3FBDF1"/>
<path d="M55.458 68.1833L54.0186 63.851C53.9869 63.7502 53.9298 63.659 53.8529 63.5863C53.7761 63.5137 53.6819 63.4617 53.5794 63.4354C53.5667 63.4354 53.5525 63.4354 53.5383 63.426C53.5241 63.4165 53.5209 63.426 53.5114 63.426C53.4784 63.4238 53.4451 63.4238 53.4119 63.426C53.2523 63.4264 53.0987 63.4874 52.9821 63.5966C52.8654 63.7045 52.772 63.8355 52.7082 63.9813C52.6442 64.127 52.6112 64.2844 52.6108 64.4435C52.611 64.568 52.6307 64.6917 52.6693 64.81C52.9853 65.7249 53.5478 67.376 53.8148 68.128" fill="#3FBDF1"/>
<path d="M55.1325 68.1833L53.581 63.4354C53.5683 63.4354 53.5541 63.4354 53.5399 63.4259C53.5257 63.4164 53.5225 63.4259 53.513 63.4259L52.6993 63.2679C52.2648 63.1873 51.8303 63.1004 51.3958 63.0198C50.8744 62.9155 50.3499 62.8286 49.83 62.7038C49.7073 62.6691 49.5812 62.6479 49.454 62.6406C49.2938 62.6402 49.1397 62.7019 49.0242 62.8128C48.9064 62.9208 48.8124 63.0521 48.7484 63.1985C48.6844 63.3448 48.652 63.5031 48.6529 63.6629C48.6521 63.786 48.6719 63.9083 48.7114 64.0247C49.0606 65.0485 49.7258 66.9856 49.9375 67.5734L55.1325 68.1833Z" fill="#3FBDF1"/>
<path d="M85.8098 46.5895C85.6518 48.3481 85.5696 50.4763 85.5143 53.1512C85.5143 58.8392 79.2261 63.5492 73.6376 64.6268L63.3898 66.9415C62.0357 67.2038 60.8363 66.3585 59.8946 65.7976C58.9261 65.2209 57.9339 64.5336 57.2355 64.0232C56.2306 63.2885 54.2951 63.8795 54.6917 65.6317C54.7772 65.9649 54.9385 66.2738 55.163 66.5345C55.3874 66.795 55.6689 67.0004 55.9857 67.1342C56.1643 67.2144 56.3479 67.2818 56.5357 67.3365C56.6056 67.354 56.6678 67.3942 56.7125 67.4507C56.7572 67.5071 56.7822 67.5768 56.7831 67.6489C56.7842 67.7209 56.7615 67.7914 56.7185 67.8492C56.6754 67.907 56.6144 67.9489 56.5452 67.9685C55.6572 68.275 54.0313 68.4567 51.4085 67.4945C48.0478 66.2573 47.7873 73.9267 52.3819 75.2618H52.3993C56.6321 76.5416 61.1872 76.3772 65.5623 76.194C70.5303 76.0058 75.4739 75.4027 80.3414 74.3912C82.8173 73.8666 85.3611 73.3215 87.6268 72.2013C91.5294 70.2721 94.342 68.0601 97.0169 64.6173C100.019 60.7574 101.3 55.6935 102.024 50.9456C102.852 45.5135 101.708 40.9268 98.7958 36.2516L98.6884 36.0809" stroke="black" stroke-width="1.11986" stroke-miterlimit="10"/>
<path d="M55.458 68.1833L54.0186 63.851C53.9869 63.7502 53.9298 63.659 53.8529 63.5863C53.7761 63.5137 53.6819 63.4617 53.5794 63.4354C53.5667 63.4354 53.5525 63.4354 53.5383 63.426C53.5241 63.4165 53.5209 63.426 53.5114 63.426C53.4784 63.4238 53.4451 63.4238 53.4119 63.426C53.2523 63.4264 53.0987 63.4874 52.9821 63.5966C52.8654 63.7045 52.772 63.8355 52.7082 63.9813C52.6442 64.127 52.6112 64.2844 52.6108 64.4435C52.611 64.568 52.6307 64.6917 52.6693 64.81C52.9853 65.7249 53.5478 67.376 53.8148 68.128" stroke="black" stroke-width="1.11986" stroke-miterlimit="10"/>
<path d="M53.581 63.4354C53.5683 63.4354 53.5541 63.4354 53.5399 63.4259C53.5257 63.4164 53.5225 63.4259 53.513 63.4259L52.6993 63.2679C52.2648 63.1873 51.8303 63.1004 51.3958 63.0198C50.8744 62.9155 50.3499 62.8286 49.83 62.7038C49.7073 62.6691 49.5812 62.6479 49.454 62.6406C49.2938 62.6402 49.1397 62.7019 49.0242 62.8128C48.9064 62.9208 48.8124 63.0521 48.7484 63.1985C48.6844 63.3448 48.652 63.5032 48.6529 63.6629C48.6521 63.786 48.6719 63.9083 48.7114 64.0247C49.0606 65.0486 49.7258 66.9856 49.9375 67.5734" stroke="black" stroke-width="1.11986" stroke-miterlimit="10"/>
<path d="M73.4182 16.8792C73.4182 18.9332 73.8179 20.8971 74.8038 22.7109C75.5938 24.1677 76.7536 25.6355 78.4126 26.1174C78.7802 26.2234 79.1612 26.2767 79.5438 26.2754C82.3594 26.2628 82.7986 22.9274 82.7986 22.9274" stroke="black" stroke-width="1.11986" stroke-miterlimit="10"/>
<path d="M86.6312 18.0704V18.0799C86.5007 19.099 86.2764 20.1041 85.9613 21.0819C85.5848 22.2484 85.4958 23.4887 85.7022 24.697L86.1399 27.2423C86.1598 27.3558 86.2113 27.4613 86.2884 27.5468C86.3655 27.6323 86.4652 27.6944 86.5759 27.7258C92.1312 29.339 97.0624 32.8987 99.9317 38.0385C103.51 44.4564 104.163 52.1858 103.874 59.3906C103.619 65.6363 102.61 71.8457 101.177 77.924C100.301 81.6389 98.6152 85.1146 96.2406 88.1028C93.866 91.0911 90.8611 93.5181 87.4402 95.2108C82.9385 97.4586 78.2893 99.3986 73.5251 101.017C71.003 101.852 68.6989 103.239 66.78 105.077C64.8611 106.914 63.3757 109.156 62.432 111.64L51.2361 141.41C50.8245 142.509 50.013 143.412 48.964 143.938L38.2358 149.327C36.881 150.006 35.3356 150.202 33.8545 149.884C33.4704 149.801 33.1203 149.604 32.8495 149.319C32.5788 149.035 32.4001 148.675 32.3366 148.287C32.2732 147.9 32.3281 147.502 32.494 147.146C32.6599 146.789 32.9291 146.492 33.2667 146.291L38.7462 143.031L46.2812 104.618C46.8115 101.191 48.0775 97.9197 49.9925 95.0285C51.9074 92.1374 54.4258 89.6953 57.3744 87.8701C57.7675 87.6304 58.1772 87.4193 58.6005 87.2381L74.9345 80.1455" stroke="black" stroke-width="1.11986" stroke-miterlimit="10"/>
<path d="M82.1409 8.09597C81.2676 7.88784 80.3635 7.84178 79.4738 7.96009C79.4373 7.9609 79.4008 7.96406 79.3648 7.96957" stroke="black" stroke-width="1.11986" stroke-miterlimit="10"/>
<path d="M78.1847 26.8837C78.1847 26.8837 75.2949 33.5086 80.4631 33.8357C85.1004 34.1327 86.802 27.8317 86.802 27.8317" stroke="black" stroke-width="1.11986" stroke-miterlimit="10"/>
<path d="M86.268 20.066C86.3012 19.9444 86.7989 18.1479 85.8477 17.0166C84.8966 15.8854 83.6073 17.8256 83.4777 18.0199C83.7305 15.2345 81.795 13.122 81.795 13.122C82.5092 15.5884 81.5896 17.1999 81.5896 17.1999C78.0552 18.0278 76.1102 17.3974 74.7308 17.1257C74.5951 16.2488 74.6123 15.355 74.7814 14.484C74.2518 15.229 73.9464 16.11 73.9013 17.023H73.8792C73.3542 16.8834 72.8563 16.6564 72.4067 16.3515L71.7067 15.8775C72.7653 10.4866 76.4594 7.09273 82.1695 8.08813C87.8796 9.08352 88.0392 15.65 88.0392 15.65L86.7673 16.1445C86.7673 16.1445 86.7783 18.3122 86.268 20.066Z" stroke="black" stroke-width="1.11986" stroke-miterlimit="10"/>
<path d="M75.6332 19.7848V22.406C75.6335 22.4379 75.6412 22.4694 75.6558 22.4976C75.6705 22.5261 75.6915 22.5506 75.7172 22.5694C75.7431 22.5882 75.773 22.6005 75.8044 22.6057C75.836 22.6108 75.8683 22.6084 75.8986 22.5988C76.1048 22.5305 76.2944 22.4196 76.4548 22.2733" stroke="black" stroke-width="1.11986" stroke-miterlimit="10"/>
<path d="M74.0654 21.7746C74.8922 21.4523 75.199 20.259 74.7509 19.1094C74.3027 17.9598 73.269 17.2893 72.4422 17.6116C71.6154 17.9339 71.3084 19.1271 71.7567 20.2767C72.2049 21.4263 73.2385 22.0969 74.0654 21.7746Z" stroke="black" stroke-width="1.11986" stroke-miterlimit="10"/>
<path d="M79.0411 22.5242C79.8679 22.2019 80.1747 21.0087 79.7266 19.8591C79.2784 18.7095 78.2448 18.0389 77.4179 18.3612C76.5911 18.6835 76.2841 19.8769 76.7324 21.0264C77.1806 22.176 78.2143 22.8467 79.0411 22.5242Z" stroke="black" stroke-width="1.11986" stroke-miterlimit="10"/>
<path d="M74.9377 19.9207C74.9377 19.9207 75.4275 19.3614 76.4545 20.0171" stroke="black" stroke-width="1.11986" stroke-miterlimit="10"/>
<path d="M77.9526 25.9515C77.9526 25.9515 78.3081 27.1555 79.3541 31.0581" stroke="black" stroke-width="1.11986" stroke-miterlimit="10"/>
<path d="M51.7654 140.004L57.9274 136.678C58.2805 136.486 58.5815 136.212 58.8043 135.877C59.0271 135.543 59.1648 135.159 59.2056 134.76C60.2294 124.703 59.9166 118.345 59.9166 118.345" stroke="black" stroke-width="1.11986" stroke-miterlimit="10"/>
<path d="M46.1725 88.4294L22.4583 71.8568" stroke="black" stroke-width="1.11986" stroke-miterlimit="10"/>
<path d="M44.8295 92.9957L22.4583 77.36" stroke="black" stroke-width="1.11986" stroke-miterlimit="10"/>
<path d="M135.542 61.4951V75.0626C135.542 75.6846 135.361 76.2934 135.022 76.8148C134.682 77.3362 134.199 77.748 133.63 77.9998L116.803 85.4511L111.659 93.2689C111.526 93.4628 111.336 93.6094 111.114 93.6878C110.893 93.7662 110.652 93.772 110.428 93.7047C110.203 93.6372 110.005 93.5001 109.864 93.313C109.722 93.1258 109.643 92.8984 109.639 92.6638V88.6253L107.914 89.3884C107.53 89.5562 107.111 89.6261 106.693 89.5916C106.276 89.5572 105.874 89.4196 105.523 89.1911C105.171 88.9628 104.883 88.6508 104.682 88.2831C104.481 87.9154 104.375 87.5037 104.373 87.0848V75.7546C104.373 74.3415 104.787 72.9591 105.562 71.7779C106.338 70.5966 107.442 69.6678 108.739 69.106L131.864 59.0809C132.264 58.9071 132.701 58.8355 133.136 58.873C133.571 58.9103 133.99 59.0551 134.355 59.2947C134.719 59.5342 135.019 59.8608 135.226 60.2449C135.434 60.629 135.542 61.0586 135.542 61.4951Z" fill="#D7E8F0"/>
<path d="M114.9 79.2283C115.729 77.6294 115.505 75.8686 114.399 75.2955C113.294 74.7225 111.725 75.5542 110.897 77.1531C110.068 78.7523 110.292 80.513 111.398 81.0861C112.503 81.6592 114.071 80.8274 114.9 79.2283Z" fill="white"/>
<path d="M122.087 76.1525C122.915 74.5534 122.691 72.7927 121.586 72.2196C120.48 71.6465 118.912 72.4783 118.083 74.0772C117.254 75.6763 117.479 77.4371 118.584 78.0102C119.69 78.5832 121.258 77.7515 122.087 76.1525Z" fill="white"/>
<path d="M129.031 72.8309C129.86 71.2319 129.636 69.471 128.53 68.8981C127.425 68.325 125.857 69.1567 125.028 70.7557C124.199 72.3546 124.423 74.1156 125.529 74.6886C126.634 75.2615 128.202 74.4298 129.031 72.8309Z" fill="white"/>
</svg>
