<svg width="158" height="158" viewBox="0 0 158 158" fill="none" xmlns="http://www.w3.org/2000/svg">
<path d="M35.5058 88.2162H18.9568V110.755H35.5058V88.2162Z" fill="#C8CDFF"/>
<path d="M22.2748 92.9372C23.0427 92.9372 23.6652 92.3147 23.6652 91.5468C23.6652 90.7789 23.0427 90.1564 22.2748 90.1564C21.507 90.1564 20.8844 90.7789 20.8844 91.5468C20.8844 92.3147 21.507 92.9372 22.2748 92.9372Z" fill="#D7E8F0"/>
<path d="M22.2748 108.396C23.0427 108.396 23.6652 107.773 23.6652 107.006C23.6652 106.238 23.0427 105.615 22.2748 105.615C21.507 105.615 20.8844 106.238 20.8844 107.006C20.8844 107.773 21.507 108.396 22.2748 108.396Z" fill="#D7E8F0"/>
<path d="M98.9777 145.937C102.511 144.726 105.501 143.164 108.123 141.14C110.181 139.538 112.023 137.676 113.602 135.6C114.665 134.224 115.881 132.145 117.135 129.525" stroke="#CCDDE2" stroke-width="0.70784" stroke-miterlimit="10"/>
<path d="M127.438 89.4138C127.975 81.8693 127.643 74.29 125.968 67.3712C122.548 53.2871 113.543 41.949 94.9166 39.3088" stroke="#CCDDE2" stroke-width="0.70784" stroke-miterlimit="10"/>
<path d="M41.8589 67.0047C41.6599 65.4626 41.4545 63.9253 41.2696 62.3927C37.446 31.1545 61.6295 32.1704 61.6295 32.1704" stroke="#CCDDE2" stroke-width="0.70784" stroke-miterlimit="10"/>
<path d="M32.5572 111.074C31.0151 112.261 29.3972 113.382 27.8282 114.55C23.7092 117.645 20.7482 121.3 19.3468 126.326C17.6925 132.271 18.4399 139.045 22.7185 143.729C27.1156 148.541 33.9491 149.966 40.2091 149.966H50.1631" stroke="#CCDDE2" stroke-width="0.70784" stroke-miterlimit="10"/>
<path d="M21.8607 103.871V94.9217C23.8973 94.9217 25.5484 93.4902 25.5484 91.7238V91.4821H35.5024V107.064H26.0066C26.0066 105.271 24.305 103.828 22.2352 103.868L21.8607 103.871Z" fill="#D7E8F0"/>
<path d="M30.9538 99.3819C30.9538 100.618 31.4448 101.804 32.3191 102.678C33.1931 103.552 34.3786 104.043 35.6148 104.043V94.7209C35.0027 94.7208 34.3964 94.8412 33.8308 95.0753C33.2653 95.3095 32.7513 95.6528 32.3186 96.0856C31.8857 96.5185 31.5423 97.0325 31.3082 97.598C31.074 98.1636 30.9536 98.7699 30.9538 99.3819Z" fill="#C8CDFF"/>
<path d="M49.0479 147.34H62.5475C63.2848 147.34 63.8826 146.742 63.8826 146.005V136.932C63.8826 136.195 63.2848 135.597 62.5475 135.597H49.0479C48.3105 135.597 47.7128 136.195 47.7128 136.932V146.005C47.7128 146.742 48.3105 147.34 49.0479 147.34Z" fill="#C8CDFF"/>
<path d="M41.1211 147.34H46.5342C46.8468 147.34 47.1469 147.215 47.3681 146.994C47.5894 146.774 47.714 146.474 47.7144 146.161V137.721C47.7151 137.644 47.7004 137.568 47.6711 137.498C47.6421 137.427 47.5991 137.363 47.5447 137.309C47.4904 137.255 47.4258 137.213 47.3548 137.185C47.2837 137.156 47.2077 137.142 47.1314 137.144L44.1199 137.171C44.039 137.173 43.9594 137.192 43.8864 137.226C43.8134 137.261 43.7488 137.311 43.6965 137.373L40.0483 141.691C39.4727 142.284 39.1497 143.077 39.1477 143.903V145.355C39.1462 145.615 39.1962 145.873 39.2946 146.114C39.3932 146.354 39.5382 146.573 39.7217 146.758C39.9051 146.942 40.1232 147.088 40.3633 147.188C40.6035 147.288 40.861 147.34 41.1211 147.34Z" fill="#C8CDFF"/>
<path d="M55.7991 144.873C57.6796 144.873 59.204 143.349 59.204 141.468C59.204 139.588 57.6796 138.064 55.7991 138.064C53.9188 138.064 52.3942 139.588 52.3942 141.468C52.3942 143.349 53.9188 144.873 55.7991 144.873Z" fill="#D7E8F0"/>
<path d="M46.1564 141.206V138.82C46.1564 138.75 46.1284 138.682 46.0786 138.632C46.0289 138.582 45.9614 138.554 45.8909 138.553H44.5558C44.5151 138.554 44.4751 138.563 44.4388 138.581C44.4023 138.599 44.3705 138.626 44.3457 138.658L42.5018 141.043C42.4713 141.083 42.4527 141.13 42.4478 141.18C42.4429 141.229 42.4519 141.279 42.4739 141.324C42.496 141.369 42.5301 141.407 42.5725 141.433C42.6148 141.459 42.6636 141.473 42.7136 141.473H45.8862C45.9214 141.474 45.9565 141.467 45.9892 141.454C46.0221 141.44 46.0519 141.421 46.0771 141.396C46.1022 141.371 46.1221 141.342 46.1357 141.309C46.1493 141.276 46.1564 141.242 46.1564 141.206Z" fill="#D7E8F0"/>
<path d="M62.5061 147.314V147.338C62.5147 147.689 62.453 148.039 62.3245 148.366C62.1961 148.693 62.0035 148.991 61.7581 149.242C61.5129 149.494 61.2196 149.693 60.8959 149.83C60.5721 149.966 60.2244 150.036 59.873 150.036C59.5218 150.036 59.174 149.966 58.8503 149.83C58.5265 149.693 58.2333 149.494 57.988 149.242C57.7427 148.991 57.5501 148.693 57.4216 148.366C57.2932 148.039 57.2314 147.689 57.2399 147.338" fill="#C8CDFF"/>
<path d="M46.5342 147.338C46.5342 148.037 46.2566 148.707 45.7626 149.2C45.2687 149.694 44.5988 149.972 43.9003 149.972C43.2018 149.972 42.5317 149.694 42.0378 149.2C41.5439 148.707 41.2664 148.037 41.2664 147.338" fill="#C8CDFF"/>
<path d="M131.577 90.6352V126.689C131.575 127.44 131.277 128.159 130.747 128.69C130.217 129.221 129.498 129.522 128.748 129.525H85.3323L86.6753 122.434C90.3093 107.145 91.5117 90.2733 91.7992 85.3785C91.774 85.9742 91.7503 86.5698 91.7155 87.1592C91.853 87.3551 92.0046 87.5447 92.1595 87.7311C92.2243 87.8038 92.2922 87.8765 92.3601 87.9507C92.4281 88.025 92.5181 88.1166 92.594 88.1941C92.6477 88.2525 92.7062 88.3062 92.7662 88.3647L92.8341 88.4279C92.9021 88.4927 92.9748 88.5559 93.049 88.6191C93.0775 88.6475 93.1075 88.6728 93.1407 88.7012C93.2102 88.755 93.2781 88.8087 93.3461 88.8671C93.414 88.9256 93.5214 88.9999 93.6099 89.0678C93.7031 89.1357 93.7948 89.1989 93.888 89.259C93.9812 89.319 94.0776 89.3806 94.1756 89.4391C94.2735 89.4976 94.3857 89.5655 94.4916 89.624C94.5595 89.6587 94.6274 89.6966 94.697 89.7314C94.7091 89.7387 94.7218 89.745 94.7349 89.7504C94.9455 89.8557 95.1604 89.9537 95.3795 90.0442C95.4917 90.0885 95.5991 90.1264 95.7113 90.1659C95.9357 90.2433 96.16 90.3239 96.3955 90.376L96.7462 90.4582C96.8631 90.4835 96.9848 90.5024 97.1065 90.5214C97.2281 90.5404 97.3419 90.5609 97.4588 90.5751H97.4683C97.552 90.5862 97.6342 90.5957 97.7132 90.6004C97.7922 90.6051 97.8712 90.6146 97.947 90.6194C97.9565 90.6194 97.966 90.6194 97.9755 90.6194C98.0545 90.6288 98.1335 90.6288 98.2109 90.6352H98.4732C99.0311 90.636 99.5877 90.5788 100.134 90.4645C101.298 90.2291 102.399 89.7469 103.361 89.0503C104.323 88.3536 105.125 87.4587 105.713 86.426C106.077 85.7909 106.355 85.1096 106.537 84.4005C106.563 84.3142 106.584 84.2267 106.601 84.1382C106.736 83.5356 106.805 82.92 106.806 82.3022C106.806 82.8227 106.853 83.3419 106.947 83.8538C106.986 84.0355 107.026 84.2204 107.075 84.4005C107.539 86.1841 108.582 87.7634 110.04 88.8905C111.499 90.0179 113.29 90.6293 115.133 90.6293C116.976 90.6293 118.767 90.0179 120.225 88.8905C121.683 87.7634 122.726 86.1841 123.191 84.4005C123.275 84.0649 123.34 83.7246 123.385 83.3814C123.431 83.0235 123.454 82.6631 123.455 82.3022C123.454 82.6696 123.478 83.0365 123.527 83.4003C123.57 83.7377 123.635 84.0718 123.722 84.4005C124.179 86.1491 125.193 87.7016 126.609 88.8248C128.025 89.948 129.767 90.5811 131.574 90.6288L131.577 90.6352Z" fill="#D7E8F0"/>
<path d="M134.901 90.0347V138.308C134.897 139.058 134.598 139.776 134.068 140.306C133.538 140.836 132.82 141.136 132.071 141.14H83.4796C83.8351 137.713 84.4987 133.809 85.3093 129.525H128.748C129.499 129.521 130.217 129.221 130.747 128.69C131.277 128.159 131.576 127.44 131.578 126.689V90.6351C131.646 90.6351 131.715 90.6351 131.783 90.6351C131.824 90.6374 131.864 90.6374 131.905 90.6351C132.932 90.6242 133.948 90.4205 134.901 90.0347Z" fill="#C8CDFF"/>
<path d="M42.7469 87.4673H42.6079C41.5023 87.4673 40.606 88.3635 40.606 89.4691V89.6082C40.606 90.7137 41.5023 91.61 42.6079 91.61H42.7469C43.8524 91.61 44.7488 90.7137 44.7488 89.6082V89.4691C44.7488 88.3635 43.8524 87.4673 42.7469 87.4673Z" fill="#D7E8F0"/>
<path d="M50.429 87.4673H50.29C49.1844 87.4673 48.2881 88.3635 48.2881 89.4691V89.6082C48.2881 90.7137 49.1844 91.61 50.29 91.61H50.429C51.5347 91.61 52.4309 90.7137 52.4309 89.6082V89.4691C52.4309 88.3635 51.5347 87.4673 50.429 87.4673Z" fill="#D7E8F0"/>
<path d="M58.1105 87.4673H57.9715C56.8659 87.4673 55.9696 88.3635 55.9696 89.4691V89.6082C55.9696 90.7137 56.8659 91.61 57.9715 91.61H58.1105C59.2162 91.61 60.1124 90.7137 60.1124 89.6082V89.4691C60.1124 88.3635 59.2162 87.4673 58.1105 87.4673Z" fill="#D7E8F0"/>
<path d="M42.7469 93.8646H42.6079C41.5023 93.8646 40.606 94.761 40.606 95.8665V96.0055C40.606 97.1112 41.5023 98.0074 42.6079 98.0074H42.7469C43.8524 98.0074 44.7488 97.1112 44.7488 96.0055V95.8665C44.7488 94.761 43.8524 93.8646 42.7469 93.8646Z" fill="#D7E8F0"/>
<path d="M50.429 93.8646H50.29C49.1844 93.8646 48.2881 94.761 48.2881 95.8665V96.0055C48.2881 97.1112 49.1844 98.0074 50.29 98.0074H50.429C51.5347 98.0074 52.4309 97.1112 52.4309 96.0055V95.8665C52.4309 94.761 51.5347 93.8646 50.429 93.8646Z" fill="#D7E8F0"/>
<path d="M58.1105 93.8646H57.9715C56.8659 93.8646 55.9696 94.761 55.9696 95.8665V96.0055C55.9696 97.1112 56.8659 98.0074 57.9715 98.0074H58.1105C59.2162 98.0074 60.1124 97.1112 60.1124 96.0055V95.8665C60.1124 94.761 59.2162 93.8646 58.1105 93.8646Z" fill="#D7E8F0"/>
<path d="M42.7469 100.262H42.6079C41.5023 100.262 40.606 101.158 40.606 102.264V102.403C40.606 103.509 41.5023 104.405 42.6079 104.405H42.7469C43.8524 104.405 44.7488 103.509 44.7488 102.403V102.264C44.7488 101.158 43.8524 100.262 42.7469 100.262Z" fill="#D7E8F0"/>
<path d="M50.429 100.262H50.29C49.1844 100.262 48.2881 101.158 48.2881 102.264V102.403C48.2881 103.509 49.1844 104.405 50.29 104.405H50.429C51.5347 104.405 52.4309 103.509 52.4309 102.403V102.264C52.4309 101.158 51.5347 100.262 50.429 100.262Z" fill="#D7E8F0"/>
<path d="M58.1105 100.262H57.9715C56.8659 100.262 55.9696 101.158 55.9696 102.264V102.403C55.9696 103.509 56.8659 104.405 57.9715 104.405H58.1105C59.2162 104.405 60.1124 103.509 60.1124 102.403V102.264C60.1124 101.158 59.2162 100.262 58.1105 100.262Z" fill="#D7E8F0"/>
<path d="M64.4419 122.134C63.9172 122.615 63.231 122.882 62.519 122.881H38.3719C37.6157 122.882 36.8898 122.583 36.3531 122.05C35.8165 121.517 35.5124 120.794 35.5073 120.037V69.8644C35.5086 69.1056 35.811 68.3781 36.3481 67.842C36.8851 67.3058 37.613 67.0046 38.3719 67.0046H60.9469L61.3719 67.7946C60.0147 71.3086 59.1805 75.9696 59.2927 82.1426C59.5565 96.538 62.1525 110.369 64.4419 122.134Z" stroke="#CCDDE2" stroke-width="0.70784" stroke-miterlimit="10"/>
<path d="M59.6243 75.1195H41.0609C40.8095 75.1195 40.5682 75.2195 40.3905 75.3973C40.2127 75.575 40.1129 75.8161 40.1129 76.0675V83.0195C40.1129 83.271 40.2127 83.5121 40.3905 83.6899C40.5682 83.8676 40.8095 83.9675 41.0609 83.9675H59.3415L59.6243 75.1195Z" fill="#D7E8F0"/>
<path d="M59.4589 76.0596H42.1705C41.6965 76.0596 41.2936 76.3945 41.2936 76.8053V82.2879C41.2936 82.6987 41.6886 83.0337 42.1705 83.0337H59.195L59.4589 76.0596Z" fill="#C8CDFF"/>
<path d="M41.0309 111.587H59.8581C60.3625 111.587 60.7714 111.179 60.7714 110.674V108.811C60.7714 108.307 60.3625 107.898 59.8581 107.898H41.0309C40.5265 107.898 40.1176 108.307 40.1176 108.811V110.674C40.1176 111.179 40.5265 111.587 41.0309 111.587Z" fill="#D7E8F0"/>
<path d="M59.4582 109.598C59.4579 109.676 59.4407 109.753 59.408 109.824C59.3753 109.895 59.3277 109.958 59.2686 110.009C58.8891 110.355 58.5859 110.776 58.3783 111.245C58.1707 111.715 58.0634 112.223 58.0631 112.736V127.588C58.0631 127.987 57.9844 128.383 57.8316 128.752C57.6787 129.121 57.4546 129.456 57.1723 129.738C56.8898 130.021 56.5545 130.244 56.1854 130.397C55.8165 130.55 55.421 130.628 55.0216 130.628H54.7972C53.4558 130.628 52.1381 129.555 51.9532 128.228C51.8339 127.422 51.414 126.69 50.7776 126.181C50.1411 125.671 49.3355 125.421 48.5224 125.481C47.7095 125.541 46.9492 125.907 46.3946 126.504C45.8399 127.102 45.5318 127.887 45.5321 128.702V137.013C45.1371 137.071 44.2776 137.19 44.1259 137.19C43.9742 137.19 41.579 139.942 40.5393 141.152H27.3621C26.9943 141.152 26.6415 141.006 26.3813 140.746C26.121 140.486 25.9749 140.133 25.9749 139.765V128.32C25.9752 127.896 26.0589 127.476 26.2214 127.084C26.3839 126.692 26.622 126.337 26.9221 126.037C27.2221 125.738 27.5783 125.5 27.9701 125.338C28.3621 125.176 28.7821 125.093 29.206 125.093H36.0679C36.4626 125.095 36.8535 125.018 37.2183 124.867C37.5831 124.717 37.9145 124.496 38.1935 124.217C38.4725 123.938 38.6936 123.606 38.844 123.242C38.9944 122.877 39.0712 122.486 39.0699 122.091V112.736C39.0709 111.758 39.4599 110.82 40.1514 110.128C40.8432 109.437 41.781 109.048 42.7592 109.047H58.9116C59.0572 109.048 59.1964 109.106 59.299 109.21C59.4014 109.313 59.4587 109.453 59.4582 109.598Z" fill="#D7E8F0"/>
<path d="M93.1854 89.8736C93.2625 89.8216 93.3489 89.7851 93.4398 89.7661C93.3483 89.783 93.2614 89.8197 93.1854 89.8736Z" fill="#C8CDFF"/>
<path d="M97.222 50.3719H111.267C112.016 50.3756 112.734 50.6751 113.264 51.2054C113.794 51.7356 114.093 52.4536 114.096 53.2033V61.3435C114.093 62.0927 113.793 62.8103 113.264 63.3403C112.734 63.87 112.016 64.1695 111.267 64.1732H96.7527C96.4573 64.172 96.1675 64.2537 95.9161 64.409C95.6647 64.5643 95.462 64.7869 95.3307 65.0517C96.2218 61.5915 97.3278 56.0726 97.222 50.3719Z" fill="#D7E8F0"/>
<path d="M140.108 74.3154V82.3086C140.108 83.9695 139.612 85.5926 138.683 86.9694C137.754 88.3461 136.434 89.4137 134.894 90.0348C133.94 90.4214 132.921 90.6251 131.892 90.6352C131.851 90.6374 131.811 90.6374 131.77 90.6352C131.702 90.6352 131.633 90.6352 131.565 90.6352C129.758 90.5873 128.016 89.9542 126.599 88.831C125.183 87.7078 124.17 86.1552 123.712 84.4068C123.626 84.078 123.561 83.7439 123.518 83.4067C123.469 83.0426 123.444 82.6758 123.445 82.3086C123.444 82.6693 123.421 83.0297 123.376 83.3877C123.331 83.7307 123.266 84.0711 123.181 84.4068C122.717 86.1905 121.674 87.7695 120.216 88.8969C118.757 90.024 116.966 90.6355 115.123 90.6355C113.28 90.6355 111.489 90.024 110.031 88.8969C108.573 87.7695 107.53 86.1905 107.065 84.4068C107.016 84.2267 106.977 84.0418 106.937 83.8601C106.844 83.3482 106.797 82.8289 106.797 82.3086C106.795 82.9262 106.726 83.5418 106.591 84.1445C106.575 84.2329 106.554 84.3204 106.528 84.4068C106.348 85.1132 106.073 85.7923 105.713 86.4261C105.126 87.4576 104.325 88.3518 103.364 89.0481C102.402 89.7444 101.303 90.2267 100.14 90.463C99.594 90.577 99.0376 90.6342 98.4797 90.6336H98.2174C98.1384 90.6336 98.0594 90.6336 97.9819 90.6178C97.9725 90.6178 97.963 90.6178 97.9535 90.6178C97.8745 90.6178 97.7955 90.6083 97.7197 90.5988C97.6438 90.5894 97.5617 90.5846 97.4748 90.5736H97.4653C97.3484 90.5593 97.2267 90.5404 97.1129 90.5198C96.9992 90.4993 96.8696 90.4819 96.7527 90.4566L96.4019 90.3745C96.1665 90.316 95.9422 90.2418 95.7178 90.1643C95.6056 90.1248 95.4982 90.0869 95.386 90.0427C95.1658 89.9542 94.9509 89.8562 94.7414 89.7488C94.7283 89.7434 94.7155 89.7371 94.7034 89.7298C94.6339 89.6951 94.566 89.6572 94.4981 89.6224C94.3906 89.5639 94.2832 89.5055 94.1821 89.4375C94.0809 89.3696 93.9924 89.3206 93.8945 89.2574C93.7965 89.1942 93.7096 89.1342 93.6164 89.0662C93.5279 88.9983 93.441 88.9351 93.3526 88.8656C93.2641 88.7961 93.2167 88.7534 93.1472 88.6997C93.114 88.6712 93.084 88.646 93.0555 88.6175C92.9813 88.5543 92.9086 88.4911 92.8406 88.4263L92.7727 88.3631C92.7127 88.3047 92.6542 88.251 92.6005 88.1925C92.5183 88.1151 92.4425 88.0345 92.3666 87.9492C92.2908 87.8639 92.2307 87.8022 92.166 87.7296C92.008 87.5431 91.8594 87.3535 91.722 87.1576C91.7567 86.5683 91.7805 85.9726 91.8057 85.3769C91.8152 85.1921 91.8247 85.0309 91.8294 84.8792C91.8642 83.9312 91.8926 82.9706 91.9132 82.0147C92.0206 76.1387 91.2685 71.6388 90.0298 68.1897L91.0979 66.1641C92.7237 67.4913 94.0067 68.5215 94.2705 68.6763C94.2705 68.6763 95.0937 65.8797 95.5962 64.0059C95.5962 64.0343 96.759 64.1417 96.759 64.1718L100.147 64.0059C100.147 64.8843 99.6631 67.0079 102.366 67.3697H133.176C135.016 67.3725 136.78 68.1056 138.08 69.408C139.379 70.7104 140.109 72.4754 140.108 74.3154Z" fill="#D7E8F0"/>
<path d="M90.218 68.7015C90.218 68.7015 92.3668 75.2838 91.8391 85.696C91.8391 85.696 93.7493 88.8276 98.6331 88.8276C103.168 88.8276 105.348 85.7403 106.549 81.7176C106.565 81.664 106.598 81.6169 106.643 81.5836C106.688 81.5501 106.742 81.5321 106.799 81.5321C106.855 81.5321 106.909 81.5501 106.954 81.5836C106.999 81.6169 107.032 81.664 107.048 81.7176C107.698 83.9201 109.81 89.2652 115.064 89.5781C120.255 89.8941 122.527 84.342 123.27 81.923C123.287 81.8685 123.321 81.8209 123.367 81.7876C123.414 81.7544 123.47 81.7372 123.527 81.7387C123.584 81.7405 123.639 81.7607 123.683 81.7966C123.727 81.8324 123.759 81.8819 123.772 81.9372C124.297 84.0354 126.048 88.4152 131.597 89.1057C131.632 89.1104 131.668 89.1104 131.704 89.1057C132.605 89.0979 133.496 88.9194 134.33 88.5795C135.679 88.0346 136.835 87.0986 137.648 85.8919C138.462 84.6851 138.896 83.263 138.895 81.8076V74.7893C138.895 73.1748 138.253 71.6263 137.112 70.4846C135.97 69.343 134.422 68.7015 132.807 68.7015H90.218Z" fill="#C8CDFF"/>
<path d="M101.093 104.185V113.256C101.089 114.808 100.47 116.295 99.3727 117.393C98.2752 118.49 96.7881 119.108 95.2361 119.113H87.3456C87.8085 116.743 88.2936 114.3 88.7676 111.772C88.845 111.354 88.9256 110.933 89.0062 110.508C89.1231 109.876 89.24 109.238 89.3569 108.592C89.5039 107.767 89.6555 106.936 89.7962 106.102C90.2354 103.574 90.6557 100.978 91.0365 98.3329H95.2424C96.7926 98.3392 98.2773 98.9578 99.3732 100.054C100.469 101.15 101.087 102.635 101.093 104.185Z" fill="#C8CDFF"/>
<path d="M111.37 119.115H120.224C123.348 119.115 125.88 116.582 125.88 113.458V103.985C125.88 100.861 123.348 98.3281 120.224 98.3281H111.37C108.246 98.3281 105.713 100.861 105.713 103.985V113.458C105.713 116.582 108.246 119.115 111.37 119.115Z" fill="#C8CDFF"/>
<path d="M88.9997 110.504H96.5631V109.534C96.5626 108.94 96.3269 108.371 95.9076 107.951C95.4883 107.531 94.9195 107.294 94.3258 107.293H93.8819V108.679C93.8819 108.757 93.8507 108.832 93.7953 108.888C93.74 108.943 93.6648 108.974 93.5864 108.974C93.508 108.974 93.4328 108.943 93.3775 108.888C93.3221 108.832 93.2909 108.757 93.2909 108.679V107.293H92.8169V108.679C92.8116 108.753 92.7781 108.823 92.7234 108.874C92.6687 108.924 92.5968 108.953 92.5223 108.953C92.4477 108.953 92.3758 108.924 92.3211 108.874C92.2665 108.823 92.2331 108.753 92.2276 108.679V107.293H90.5812" stroke="white" stroke-width="0.70784" stroke-miterlimit="10"/>
<path d="M96.2996 115.879C96.2991 115.963 96.2819 116.045 96.249 116.122C96.2162 116.199 96.1685 116.269 96.1084 116.328C95.9905 116.445 95.831 116.512 95.6644 116.512H87.8134C87.8908 116.094 87.9714 115.673 88.052 115.248H95.6644C95.8318 115.25 95.9918 115.316 96.1106 115.434C96.2293 115.552 96.2972 115.712 96.2996 115.879Z" stroke="white" stroke-width="0.70784" stroke-miterlimit="10"/>
<path d="M89.6321 112.033C89.6321 112.365 89.5046 112.685 89.2758 112.925C89.0471 113.166 88.7345 113.31 88.4029 113.327C88.5498 112.502 88.7015 111.671 88.8421 110.837C89.0768 110.937 89.2768 111.103 89.4173 111.316C89.5579 111.529 89.6324 111.778 89.6321 112.033Z" stroke="white" stroke-width="0.70784" stroke-miterlimit="10"/>
<path d="M91.874 111.736V113.417C91.877 113.458 91.8716 113.498 91.858 113.537C91.8446 113.575 91.8234 113.61 91.7958 113.64C91.7681 113.67 91.7346 113.693 91.6974 113.71C91.6601 113.726 91.6199 113.734 91.5793 113.734C91.5387 113.734 91.4986 113.726 91.4613 113.71C91.424 113.693 91.3905 113.67 91.3629 113.64C91.3352 113.61 91.314 113.575 91.3006 113.537C91.2872 113.498 91.2817 113.458 91.2847 113.417V111.736C91.2902 111.662 91.3235 111.592 91.3782 111.541C91.4329 111.49 91.5048 111.462 91.5793 111.462C91.6539 111.462 91.7258 111.49 91.7805 111.541C91.8351 111.592 91.8686 111.662 91.874 111.736Z" stroke="white" stroke-width="0.70784" stroke-miterlimit="10"/>
<path d="M92.9356 111.736V113.417C92.9386 113.458 92.9331 113.498 92.9197 113.537C92.9062 113.575 92.8851 113.61 92.8574 113.64C92.8298 113.67 92.7963 113.693 92.759 113.71C92.7217 113.726 92.6816 113.734 92.6409 113.734C92.6003 113.734 92.56 113.726 92.5229 113.71C92.4856 113.693 92.4521 113.67 92.4245 113.64C92.3968 113.61 92.3757 113.575 92.3622 113.537C92.3486 113.498 92.3433 113.458 92.3463 113.417V111.736C92.3516 111.662 92.3851 111.592 92.4398 111.541C92.4945 111.49 92.5664 111.462 92.6409 111.462C92.7155 111.462 92.7874 111.49 92.8421 111.541C92.8967 111.592 92.9301 111.662 92.9356 111.736Z" stroke="white" stroke-width="0.70784" stroke-miterlimit="10"/>
<path d="M120.238 104.515C120.579 103.695 120.908 103.046 121.104 102.68C121.151 102.59 121.161 102.485 121.131 102.388C121.101 102.291 121.035 102.209 120.946 102.161L118.882 101.292C118.802 101.246 118.711 101.221 118.618 101.221C118.526 101.221 118.435 101.246 118.354 101.292C118.274 101.339 118.208 101.406 118.162 101.486C118.116 101.567 118.092 101.658 118.092 101.75C118.092 103.553 117.574 105.25 115.773 105.25C113.97 105.25 113.453 103.553 113.453 101.75V101.673C113.453 101.585 113.43 101.498 113.387 101.421C113.344 101.344 113.282 101.278 113.207 101.231C113.133 101.184 113.047 101.156 112.959 101.151C112.871 101.145 112.783 101.162 112.703 101.199L110.6 101.975C110.547 101.998 110.5 102.032 110.463 102.076C110.425 102.119 110.398 102.171 110.383 102.226C110.368 102.282 110.365 102.34 110.375 102.396C110.385 102.453 110.408 102.507 110.442 102.553L110.47 102.593C111.602 104.169 112.298 106.016 112.487 107.948C112.676 109.879 112.352 111.826 111.548 113.593L110.805 115.226C110.753 115.342 110.73 115.468 110.74 115.595C110.749 115.721 110.79 115.843 110.859 115.95C110.927 116.057 111.022 116.144 111.133 116.205C111.244 116.266 111.369 116.297 111.496 116.298H120.66C120.789 116.298 120.915 116.265 121.028 116.203C121.141 116.14 121.236 116.05 121.304 115.94C121.372 115.831 121.411 115.706 121.417 115.577C121.423 115.448 121.396 115.32 121.339 115.204L120.554 113.634C119.853 112.224 119.463 110.682 119.408 109.109C119.354 107.536 119.637 105.97 120.238 104.515Z" stroke="white" stroke-width="0.70784" stroke-miterlimit="10"/>
<path d="M112.523 109.72H119.451" stroke="white" stroke-width="0.70784" stroke-miterlimit="10"/>
<path d="M114.084 109.722C114.117 110.9 114.095 113.939 113.126 116.298" stroke="white" stroke-width="0.70784" stroke-miterlimit="10"/>
<path d="M118.841 116.298C117.87 113.939 117.851 110.9 117.884 109.722" stroke="white" stroke-width="0.70784" stroke-miterlimit="10"/>
<path d="M115.988 116.298V109.722" stroke="white" stroke-width="0.70784" stroke-miterlimit="10"/>
<g opacity="0.54">
<path opacity="0.54" d="M76.3979 149.972H104.059V149.884C104.059 149.15 103.767 148.446 103.248 147.927C102.729 147.409 102.025 147.117 101.291 147.117H101.243C100.88 147.117 100.521 147.046 100.185 146.907C99.8493 146.768 99.5446 146.564 99.2878 146.307C99.0311 146.05 98.8276 145.745 98.689 145.409C98.5504 145.073 98.4793 144.714 98.48 144.35V141.138H83.4794C83.4794 141.138 82.0827 148.285 81.5345 149.383C81.4724 149.528 81.3818 149.659 81.2682 149.768C81.1546 149.878 81.0202 149.964 80.8729 150.021C80.7258 150.077 80.5686 150.104 80.4109 150.099C80.2532 150.095 80.0981 150.058 79.9545 149.993L76.3979 149.972Z" fill="#C8CDFF"/>
</g>
<path d="M98.8655 55.6776C97.6663 55.6776 96.9237 56.5798 96.9237 57.7174C96.9237 58.8044 97.592 59.7129 98.8023 59.7129C100.003 59.7129 100.76 58.9119 100.76 57.6589C100.765 56.6082 100.125 55.6776 98.8655 55.6776ZM98.856 58.8834H98.8418C98.3394 58.8834 98.0265 58.3952 98.0313 57.6969C98.036 56.9985 98.3394 56.5071 98.8418 56.5071C99.3442 56.5071 99.6571 57.0143 99.6571 57.6874C99.6571 58.3952 99.3585 58.8834 98.856 58.8834Z" fill="white"/>
<path d="M104.122 58.5311C104.019 58.1946 103.878 57.9465 103.619 57.8296V57.809C103.812 57.7346 103.978 57.6049 104.097 57.4362C104.216 57.2674 104.282 57.0674 104.288 56.861C104.297 56.7 104.268 56.539 104.201 56.3921C104.135 56.2452 104.034 56.1166 103.907 56.0173C103.61 55.7882 103.18 55.7092 102.58 55.7092C102.234 55.7092 101.916 55.7298 101.652 55.7535C101.56 55.7639 101.474 55.808 101.412 55.8773C101.35 55.9467 101.316 56.0364 101.316 56.1295V59.1315C101.316 59.2693 101.37 59.4015 101.468 59.499C101.565 59.5965 101.698 59.6513 101.835 59.6513C101.973 59.6513 102.106 59.5965 102.203 59.499C102.301 59.4015 102.355 59.2693 102.355 59.1315V58.1835H102.526C102.842 58.1835 103 58.2862 103.096 58.7491C103.145 58.964 103.194 59.1394 103.238 59.2864C103.271 59.393 103.337 59.4865 103.426 59.5526C103.516 59.6186 103.625 59.6539 103.736 59.6529H103.746C103.825 59.6524 103.903 59.634 103.974 59.5989C104.045 59.5638 104.107 59.5131 104.155 59.4505C104.204 59.3879 104.237 59.3153 104.253 59.2377C104.269 59.1603 104.268 59.0802 104.248 59.0035C104.209 58.8392 104.166 58.6733 104.122 58.5311ZM102.629 57.4251H102.355V56.5087C102.473 56.4894 102.592 56.4809 102.711 56.4834C103.058 56.4834 103.248 56.6541 103.248 56.9432C103.248 57.2323 103.028 57.4283 102.633 57.4283L102.629 57.4251Z" fill="white"/>
<path d="M107.104 58.7902H106.314C106.219 58.7902 106.127 58.7524 106.06 58.6851C105.993 58.6178 105.955 58.5266 105.955 58.4315C105.955 58.3364 105.993 58.2452 106.06 58.1779C106.127 58.1106 106.219 58.0729 106.314 58.0729H106.933C106.991 58.0763 107.049 58.0681 107.103 58.0484C107.158 58.0286 107.208 57.998 107.25 57.9582C107.292 57.9185 107.326 57.8705 107.349 57.8172C107.372 57.764 107.384 57.7066 107.384 57.6486C107.384 57.5907 107.372 57.5333 107.349 57.4801C107.326 57.4268 107.292 57.3788 107.25 57.3391C107.208 57.2993 107.158 57.2687 107.103 57.2489C107.049 57.2293 106.991 57.2209 106.933 57.2244H106.284C106.196 57.2244 106.111 57.1895 106.049 57.1272C105.987 57.065 105.952 56.9806 105.952 56.8926C105.952 56.8046 105.987 56.7202 106.049 56.658C106.111 56.5957 106.196 56.5608 106.284 56.5608H107.021C107.077 56.5613 107.132 56.5507 107.183 56.5297C107.235 56.5088 107.281 56.4779 107.321 56.4388C107.36 56.3998 107.391 56.3534 107.413 56.3022C107.434 56.251 107.445 56.196 107.445 56.1405V56.1263C107.445 56.0705 107.434 56.0154 107.413 55.9637C107.392 55.9122 107.361 55.8653 107.322 55.826C107.282 55.7865 107.235 55.755 107.184 55.7337C107.133 55.7124 107.077 55.7013 107.021 55.7013H105.347C105.228 55.7021 105.115 55.7498 105.032 55.8339C104.949 55.9181 104.902 56.0317 104.903 56.15V59.2926C104.904 59.3879 104.942 59.4789 105.01 59.5459C105.078 59.6127 105.169 59.6502 105.265 59.6497H107.104C107.159 59.6496 107.214 59.6383 107.265 59.6168C107.317 59.5954 107.363 59.5639 107.402 59.5244C107.441 59.4849 107.472 59.4381 107.493 59.3868C107.514 59.3353 107.524 59.2801 107.524 59.2247V59.2152C107.524 59.1598 107.514 59.1046 107.493 59.0531C107.472 59.0018 107.441 58.955 107.402 58.9155C107.363 58.876 107.317 58.8445 107.265 58.8231C107.214 58.8016 107.159 58.7903 107.104 58.7902Z" fill="white"/>
<path d="M87.4021 98.4483V106.539C87.4018 106.928 87.2473 107.3 86.9727 107.574C86.6981 107.848 86.3257 108.003 85.9375 108.003H65.309C65.1655 108.002 65.023 107.981 64.8855 107.939C64.8803 107.929 64.877 107.918 64.8761 107.906C64.8108 107.743 64.7775 107.569 64.7781 107.393V99.3015C64.7754 97.5785 65.4366 95.9209 66.6246 94.6729C67.8125 93.425 69.4356 92.6829 71.1566 92.6007C71.2687 92.6007 71.3762 92.5912 71.4884 92.5912H81.6241C81.7154 92.5896 81.8066 92.5928 81.8974 92.6007C82.3352 92.6155 82.7702 92.6743 83.1962 92.7761C84.0885 92.9902 84.9271 93.3861 85.6594 93.939C86.7837 95.1714 87.4054 96.7801 87.4021 98.4483Z" fill="#D7E8F0"/>
<path d="M94.3148 68.7995C94.22 68.74 94.1287 68.6753 94.0414 68.6051C93.5343 68.2291 92.4614 67.3648 91.1722 66.311C87.7372 63.5096 82.7634 59.359 82.7634 59.359L82.5975 59.9641L81.9292 62.3894C81.9292 62.3894 81.9292 62.3894 81.9197 62.3894C75.5238 65.7501 70.5152 62.8413 70.3098 62.7259L69.8027 60.5929L69.6652 60.0162L60.7208 66.5859L57.9384 68.6399C56.4896 64.6472 48.0318 39.323 64.4544 32.0739C66.5968 33.9099 70.9971 36.6812 76.1179 36.1535C76.3755 36.1298 76.6346 36.095 76.8826 36.0619C77.7676 35.9753 78.6421 35.8038 79.4944 35.5499L79.5228 35.5405C83.6814 34.3191 86.5317 31.4941 86.9077 31.1165C104.583 39.6579 94.3148 68.7995 94.3148 68.7995Z" fill="#C8CDFF"/>
<path d="M82.4965 21.3837C82.4965 21.3837 81.9009 21.4185 81.2657 21.409C80.5484 21.409 79.7868 21.3395 79.8121 21.1104C79.8453 20.7944 80.4315 19.6268 80.4615 18.8273C80.471 18.5113 80.3967 18.2648 80.1818 18.1384C79.6162 17.8224 77.3868 15.8253 76.1513 14.4539C76.0691 14.3606 75.9933 14.2737 75.9174 14.1853C75.5667 13.7808 75.3407 13.449 75.317 13.2736C75.2191 12.5026 73.9851 16.225 72.2234 17.5048C72.2234 17.5048 71.3449 19.0848 70.4949 19.1875C70.8227 19.5566 71.0415 20.0096 71.1269 20.4958C71.1471 20.6135 71.1602 20.7321 71.1664 20.8513C71.1687 20.8908 71.1687 20.9303 71.1664 20.9698C71.1664 22.0679 69.7444 21.7993 69.1898 21.6713C68.7648 21.5749 67.8563 21.2905 67.4518 20.7786V16.4115C67.4518 16.4115 68.5578 8.86697 76.3977 8.51147C77.9281 8.5417 79.429 8.9383 80.7743 9.66804C80.7818 9.67202 80.7886 9.67679 80.7949 9.68226C82.4096 10.9463 83.8206 13.084 84.0149 16.7448C84.0133 16.748 84.6485 21.3837 82.4965 21.3837Z" fill="#C8CDFF"/>
<path d="M64.2888 30.7878C64.2888 30.7878 69.2626 36.1014 75.7548 36.1014C82.2471 36.1014 86.9491 31.0691 86.9491 31.0691" stroke="black" stroke-width="0.70784" stroke-miterlimit="10"/>
<path d="M69.6687 60.0164L70.3102 62.7261L75.5131 84.7655C75.582 85.0614 75.6196 85.3638 75.6253 85.6677C75.6242 85.6684 75.6234 85.6695 75.6229 85.6708C75.6223 85.6721 75.622 85.6733 75.622 85.6748C75.622 85.676 75.6223 85.6774 75.6229 85.6786C75.6234 85.6798 75.6242 85.6809 75.6253 85.6819C75.6229 85.6857 75.6215 85.6899 75.6215 85.6945C75.6215 85.6989 75.6229 85.7034 75.6253 85.7072C75.6253 85.7072 75.6253 85.7072 75.6253 85.7166V88.1609H72.1493C71.9616 88.162 71.7756 88.125 71.6026 88.0524C71.4296 87.9795 71.2732 87.8724 71.1428 87.7375C71.0131 87.6008 70.9121 87.4396 70.8458 87.2635C70.8153 87.1895 70.7924 87.1127 70.7778 87.0344C70.7575 86.943 70.7473 86.8498 70.7478 86.7563V86.0042C70.7481 85.4678 70.6157 84.9396 70.3623 84.4669L65.3948 75.2444L61.3832 67.7915L60.9581 67.0015L60.7338 66.586" stroke="black" stroke-width="0.70784" stroke-miterlimit="10"/>
<path d="M82.7623 59.3638L75.7676 84.688C75.6687 85.0483 75.6188 85.4203 75.6191 85.794V88.164H79.4206C79.793 88.164 80.1504 88.016 80.4138 87.7526C80.6772 87.4892 80.8252 87.1318 80.8252 86.7594V85.9078C80.8255 85.3601 80.9641 84.8217 81.2281 84.342L91.1663 66.3094" stroke="black" stroke-width="0.70784" stroke-miterlimit="10"/>
<path d="M87.4844 98.4482V106.539C87.4841 106.927 87.3298 107.299 87.0555 107.573C86.7812 107.848 86.4093 108.002 86.0214 108.002H65.3834C65.2098 108.004 65.0375 107.971 64.8762 107.906C64.5975 107.802 64.3572 107.616 64.1878 107.372C64.0183 107.127 63.9278 106.837 63.9282 106.539V98.4482C63.9282 96.9407 64.4357 95.4772 65.369 94.2934C66.3022 93.1095 67.6069 92.2745 69.0727 91.9228C69.1754 91.8991 69.2718 91.8786 69.3745 91.8596C69.4772 91.8406 69.6194 91.8154 69.7458 91.8011C69.9268 91.7729 70.1095 91.7548 70.2925 91.7474H70.3098C70.422 91.7474 70.5295 91.7379 70.6416 91.7379H80.7773C80.8687 91.7364 80.9598 91.7395 81.0507 91.7474C81.4887 91.7604 81.9239 91.8192 82.3494 91.9228C83.8136 92.2764 85.1162 93.1122 86.0476 94.2958C86.979 95.4794 87.4851 96.942 87.4844 98.4482Z" stroke="black" stroke-width="0.70784" stroke-miterlimit="10"/>
<path d="M80.8263 86.3676H81.5389C81.6444 86.3671 81.7489 86.3875 81.8465 86.4276C81.9442 86.4676 82.033 86.5265 82.1079 86.6009C82.1828 86.6753 82.2422 86.7638 82.2828 86.8612C82.3234 86.9586 82.3444 87.0631 82.3447 87.1686V91.9213" stroke="black" stroke-width="0.47084" stroke-miterlimit="10"/>
<path d="M69.0694 91.9213V87.1686C69.0699 86.9563 69.1544 86.7528 69.3045 86.6027C69.4547 86.4524 69.6582 86.368 69.8704 86.3676H70.7394" stroke="black" stroke-width="0.47084" stroke-miterlimit="10"/>
<path d="M80.4313 87.7295H80.6952C80.7413 87.7295 80.787 87.7387 80.8296 87.7563C80.8723 87.774 80.9112 87.8001 80.9437 87.8328C80.9763 87.8655 81.002 87.9044 81.0196 87.9471C81.0371 87.9899 81.0461 88.0357 81.0459 88.0818V91.7458" stroke="black" stroke-width="0.47084" stroke-miterlimit="10"/>
<path d="M70.31 91.7458V88.0771C70.31 87.9851 70.3463 87.897 70.4113 87.8319C70.4761 87.7668 70.5641 87.73 70.656 87.7295H71.1395" stroke="black" stroke-width="0.47084" stroke-miterlimit="10"/>
<path d="M83.6973 142.021C83.6431 142.797 83.5457 143.57 83.405 144.335C83.0638 146.204 82.3401 148.678 80.847 149.82C80.3398 149.514 79.267 148.454 78.5292 144.872C78.7507 145.228 79.0637 145.517 79.4356 145.71C79.8075 145.904 80.2247 145.993 80.6432 145.97C80.7377 145.967 80.8322 145.959 80.926 145.946C83.0432 145.624 83.6294 142.432 83.6973 142.021Z" fill="black"/>
<path d="M74.1145 142.021C74.0605 142.797 73.9628 143.57 73.8222 144.335C73.4809 146.204 72.7589 148.678 71.2658 149.82C70.757 149.514 69.6858 148.454 68.9479 144.872C69.1691 145.227 69.4819 145.517 69.8537 145.71C70.2253 145.904 70.6421 145.993 71.0604 145.97C71.155 145.967 71.2493 145.959 71.3432 145.946C73.4699 145.624 74.0466 142.432 74.1145 142.021Z" fill="black"/>
<path d="M67.2352 16.2835C67.26 14.0782 68.1522 11.9714 69.7188 10.4189C71.2852 8.86648 73.4 7.9933 75.6055 7.9883C77.8109 7.98333 79.9297 8.84694 81.5032 10.3923C83.0766 11.9376 83.9784 14.0404 84.0132 16.2456V16.2835" stroke="black" stroke-width="0.70784" stroke-miterlimit="10"/>
<path d="M74.6531 24.6195C74.6531 24.6195 74.6531 24.6195 74.6626 24.6195C74.9821 24.6552 75.3034 24.6731 75.6248 24.6732C75.737 24.6732 75.8444 24.6732 75.9566 24.6637C75.9661 24.6637 75.9756 24.6637 75.985 24.6637" stroke="black" stroke-width="0.47084" stroke-miterlimit="10"/>
<path d="M70.6371 18.9363C70.7865 19.8624 71.0553 20.7652 71.4365 21.6223C72.0369 22.9069 73.0481 24.283 74.6534 24.6243C74.6534 24.6243 74.6534 24.6243 74.6629 24.6243C75.0737 24.7115 75.496 24.7297 75.9127 24.678C75.9278 24.6771 75.9427 24.6738 75.9569 24.6686C75.9664 24.6686 75.9759 24.6686 75.9854 24.6686C77.9872 24.4047 79.1327 22.8911 79.7774 21.3885C80.2022 20.4141 80.4756 19.3803 80.5879 18.3233C77.6602 17.2015 75.4102 13.114 75.4102 13.114C75.4102 13.114 72.857 17.7403 70.6371 18.9363Z" stroke="black" stroke-width="0.70784" stroke-miterlimit="10"/>
<path d="M83.2821 143.519C83.2963 143.344 83.3595 142.984 83.3737 142.808C84.4797 128.955 91.5044 106.369 91.9484 82.1442C92.0559 76.2682 91.3053 71.7683 90.065 68.3176" stroke="black" stroke-width="0.70784" stroke-miterlimit="10"/>
<path d="M77.3617 141.977L76.3221 108.002" stroke="black" stroke-width="0.70784" stroke-miterlimit="10"/>
<path d="M77.3682 142.021C77.4014 142.589 77.8074 148.269 80.4223 149.972C80.4223 149.972 82.331 149.612 83.2932 143.42" stroke="black" stroke-width="0.70784" stroke-miterlimit="10"/>
<path d="M83.3749 142.802C82.9941 144.314 82.3242 146.022 80.4218 145.962C78.0755 145.894 77.4404 142.439 77.3677 142.012C77.3666 141.997 77.3666 141.982 77.3677 141.968" stroke="black" stroke-width="0.70784" stroke-miterlimit="10"/>
<path d="M61.3721 67.7899C60.0149 71.3038 59.1806 75.9648 59.2928 82.1379C59.5567 96.538 62.1526 110.369 64.442 122.134C66.0031 130.148 67.4235 137.199 67.8675 142.811C67.8654 142.825 67.8654 142.838 67.8675 142.851C67.8864 143.026 67.9401 143.398 67.9654 143.597C67.9659 143.625 67.9691 143.653 67.9749 143.68" stroke="black" stroke-width="0.70784" stroke-miterlimit="10"/>
<path d="M74.9128 108.002L73.8669 142.168" stroke="black" stroke-width="0.70784" stroke-miterlimit="10"/>
<path d="M73.8701 142.021C73.8369 142.589 73.4308 148.269 70.8159 149.972C70.8159 149.972 68.9199 149.713 67.9561 143.521" stroke="black" stroke-width="0.70784" stroke-miterlimit="10"/>
<path d="M67.8629 142.802C68.2437 144.314 68.9152 146.022 70.8159 145.962C73.1622 145.894 73.7974 142.439 73.8701 142.012C73.8712 141.997 73.8712 141.982 73.8701 141.968" stroke="black" stroke-width="0.47084" stroke-miterlimit="10"/>
<path d="M67.2352 16.0101V19.701C67.2356 20.2095 67.4379 20.6969 67.7975 21.0563C68.1572 21.4156 68.6448 21.6176 69.1533 21.6176H71.4364" stroke="black" stroke-width="0.70784" stroke-miterlimit="10"/>
<path d="M84.0132 16.2472V19.6079C84.0132 20.5875 83.2232 21.3822 82.7255 21.3822H79.9684" stroke="black" stroke-width="0.70784" stroke-miterlimit="10"/>
<path d="M72.2235 22.9463L71.8807 28.263C71.8669 28.4474 71.789 28.6209 71.6606 28.7537C71.5321 28.8865 71.3612 28.97 71.1776 28.9898C43.2274 32.0787 57.7097 68.8058 57.7097 68.8058L69.6655 60.021L66.6114 47.9371" stroke="black" stroke-width="0.70784" stroke-miterlimit="10"/>
<path d="M78.8753 22.9463L79.4821 28.4399C79.5029 28.6125 79.5799 28.7733 79.7014 28.8975C79.8227 29.0217 79.9817 29.1024 80.1536 29.1273C106.917 33.0314 94.3104 68.7995 94.3104 68.7995C93.4951 68.3113 82.759 59.3621 82.759 59.3621L86.0138 47.9766" stroke="black" stroke-width="0.70784" stroke-miterlimit="10"/>
<path d="M70.31 62.726C70.31 62.726 75.4071 65.8323 81.9309 62.3989" stroke="black" stroke-width="0.47084" stroke-miterlimit="10"/>
<path d="M70.6371 18.9363C70.2217 19.148 69.7861 19.3174 69.3367 19.4419" stroke="black" stroke-width="0.70784" stroke-miterlimit="10"/>
<path d="M80.5923 18.3185C80.9595 18.4498 81.3354 18.5553 81.7173 18.6345" stroke="black" stroke-width="0.70784" stroke-miterlimit="10"/>
<path d="M69.8264 25.6291C70.5672 25.6291 71.1678 25.0286 71.1678 24.2877C71.1678 23.547 70.5672 22.9463 69.8264 22.9463C69.0855 22.9463 68.4849 23.547 68.4849 24.2877C68.4849 25.0286 69.0855 25.6291 69.8264 25.6291Z" stroke="black" stroke-width="0.47084" stroke-miterlimit="10"/>
<path d="M81.1548 25.6291C81.8957 25.6291 82.4962 25.0286 82.4962 24.2877C82.4962 23.547 81.8957 22.9463 81.1548 22.9463C80.4141 22.9463 79.8134 23.547 79.8134 24.2877C79.8134 25.0286 80.4141 25.6291 81.1548 25.6291Z" stroke="black" stroke-width="0.47084" stroke-miterlimit="10"/>
<path d="M71.1694 24.2877C71.1684 24.5525 71.0891 24.8112 70.9417 25.0311C70.7941 25.2511 70.5848 25.4223 70.3402 25.5238C70.0954 25.625 69.8264 25.6517 69.5665 25.6006C69.3067 25.5492 69.0678 25.4223 68.8799 25.2357C68.7498 24.9499 68.7237 24.6276 68.8066 24.3245C68.8894 24.0217 69.0757 23.7573 69.3332 23.5775C69.5908 23.3979 69.9032 23.314 70.2162 23.3407C70.529 23.3674 70.8227 23.5029 71.0461 23.7237C71.1302 23.8997 71.1724 24.0928 71.1694 24.2877Z" fill="black"/>
<path d="M82.4969 24.2877C82.4964 24.5525 82.4174 24.8113 82.2701 25.0314C82.1227 25.2514 81.9135 25.423 81.6689 25.5244C81.4242 25.6257 81.1551 25.6524 80.8952 25.601C80.6355 25.5497 80.3967 25.4225 80.209 25.2357C80.0788 24.9499 80.0527 24.6276 80.1357 24.3245C80.2185 24.0217 80.4049 23.7573 80.6623 23.5775C80.9199 23.3979 81.2324 23.314 81.5452 23.3407C81.8582 23.3674 82.1518 23.5029 82.3752 23.7237C82.4577 23.9002 82.4994 24.0929 82.4969 24.2877Z" fill="black"/>
<path d="M69.8267 22.9464V19.2792" stroke="black" stroke-width="0.70784" stroke-miterlimit="10"/>
<path d="M81.1553 22.9464V18.5002" stroke="black" stroke-width="0.70784" stroke-miterlimit="10"/>
<path d="M71.13 87.7295H70.656C70.5641 87.73 70.4761 87.7666 70.4113 87.8319C70.3463 87.897 70.31 87.9852 70.31 88.0771V91.7459C69.8935 91.7653 69.4799 91.8241 69.0744 91.9213V87.1686C69.0748 86.9563 69.1593 86.7528 69.3096 86.6027C69.4597 86.4524 69.6632 86.368 69.8755 86.3676H70.7398V86.7531C70.7374 87.1169 70.8775 87.4674 71.13 87.7295Z" fill="black"/>
<path d="M80.4313 87.7295H80.9053C80.9971 87.73 81.0851 87.7666 81.1501 87.8319C81.2148 87.897 81.2513 87.9852 81.2513 88.0771V91.7459C81.6672 91.7653 82.0804 91.8239 82.4853 91.9213V87.1686C82.4853 86.9564 82.4011 86.7529 82.2512 86.6027C82.1014 86.4526 81.898 86.368 81.6858 86.3676H80.8216V86.7531C80.823 87.1168 80.683 87.4669 80.4313 87.7295Z" fill="black"/>
<path d="M104.058 149.972H40.2091" stroke="black" stroke-width="0.70784" stroke-miterlimit="10"/>
<path d="M77.3694 18.4765C77.6488 18.4765 77.875 18.2501 77.875 17.9709C77.875 17.6917 77.6488 17.4653 77.3694 17.4653C77.0902 17.4653 76.8638 17.6917 76.8638 17.9709C76.8638 18.2501 77.0902 18.4765 77.3694 18.4765Z" fill="black"/>
<path d="M73.3862 18.4765C73.6654 18.4765 73.8918 18.2501 73.8918 17.9709C73.8918 17.6917 73.6654 17.4653 73.3862 17.4653C73.1069 17.4653 72.8806 17.6917 72.8806 17.9709C72.8806 18.2501 73.1069 18.4765 73.3862 18.4765Z" fill="black"/>
<path d="M70.784 17.015C71.0779 17.0008 75.3186 17.015 75.3186 17.015L74.6044 19.3581H71.9722L70.784 17.015Z" fill="#C8CDFF"/>
<path d="M75.437 17.015C75.7293 17.0008 79.9715 17.015 79.9715 17.015L78.7692 19.3581H76.1448L75.437 17.015Z" fill="#C8CDFF"/>
<path d="M70.784 17.015C71.0779 17.0008 75.3186 17.015 75.3186 17.015L74.6044 19.3581H71.9722L70.784 17.015Z" stroke="black" stroke-width="0.47084" stroke-miterlimit="10"/>
<path d="M75.437 17.015C75.7293 17.0008 79.9715 17.015 79.9715 17.015L78.7692 19.3581H76.1448L75.437 17.015Z" stroke="black" stroke-width="0.47084" stroke-miterlimit="10"/>
<path d="M74.3723 21.3821C74.3723 21.3821 75.8165 21.8561 76.202 21.1119" stroke="black" stroke-width="0.47084" stroke-miterlimit="10"/>
<path d="M83.239 143.521C83.2548 143.345 83.318 142.983 83.3322 142.808C83.3723 142.306 83.4213 141.792 83.4791 141.266C83.8346 137.841 84.4982 133.937 85.3088 129.652C85.6501 127.831 86.0166 125.937 86.3974 123.981C86.8603 121.619 87.3454 119.168 87.8115 116.64C87.8905 116.221 87.9695 115.801 88.0517 115.376C88.1686 114.744 88.2855 114.105 88.4024 113.458C88.5494 112.633 88.701 111.804 88.8417 110.97C89.2809 108.442 89.7012 105.846 90.082 103.201C90.3348 101.463 90.5702 99.7011 90.774 97.9204C91.1895 94.4444 91.5166 90.8925 91.722 87.2916C91.8152 85.5884 91.88 83.8694 91.9132 82.1472C92.0206 76.2711 91.2685 71.7715 90.0298 68.3223L91.0979 66.2968C92.7237 67.624 94.0067 68.6541 94.2705 68.8105C94.2705 68.8105 94.6655 67.6872 95.168 65.8085C95.2217 65.6079 95.2802 65.3993 95.3386 65.1765C96.2266 61.7163 97.3405 56.1958 97.2346 50.4968C97.0592 41.0484 93.5358 31.088 80.1201 29.1304C79.9488 29.1048 79.7905 29.0239 79.6698 28.8997C79.549 28.7754 79.4724 28.615 79.4517 28.4431" stroke="black" stroke-width="0.70784" stroke-miterlimit="10"/>
<path d="M53.6331 114.462H43.1056" stroke="white" stroke-width="0.70784" stroke-miterlimit="10"/>
<path d="M53.6331 117.119H43.1056" stroke="white" stroke-width="0.70784" stroke-miterlimit="10"/>
<path d="M53.6331 119.777H43.1056" stroke="white" stroke-width="0.70784" stroke-miterlimit="10"/>
<path d="M53.6331 122.436H43.1056" stroke="white" stroke-width="0.70784" stroke-miterlimit="10"/>
<path d="M40.7703 129.415H30.2428" stroke="white" stroke-width="0.70784" stroke-miterlimit="10"/>
<path d="M40.7703 131.935H30.2428" stroke="white" stroke-width="0.70784" stroke-miterlimit="10"/>
<path d="M40.7703 134.456H30.2428" stroke="white" stroke-width="0.70784" stroke-miterlimit="10"/>
<path d="M40.7703 136.978H30.2428" stroke="white" stroke-width="0.70784" stroke-miterlimit="10"/>
<path d="M53.6331 125.093H43.1056" stroke="white" stroke-width="0.70784" stroke-miterlimit="10"/>
<path d="M53.6314 127.88H51.0939" stroke="white" stroke-width="0.70784" stroke-miterlimit="10"/>
<path d="M54.7977 130.622H45.5263V128.689C45.5258 127.874 45.8339 127.089 46.3886 126.491C46.9432 125.894 47.7035 125.529 48.5166 125.469C49.3295 125.409 50.1351 125.659 50.7716 126.168C51.408 126.677 51.828 127.409 51.9474 128.215C52.1402 129.549 53.4563 130.622 54.7977 130.622Z" fill="#C8CDFF"/>
</svg>
