<svg width="262" height="219" viewBox="0 0 262 219" fill="none" xmlns="http://www.w3.org/2000/svg">
<g clip-path="url(#clip0_162_26)">
<path d="M12.1743 208.684C15.8085 215.432 23.5216 218.329 23.5216 218.329C23.5216 218.329 25.3424 210.285 21.7082 203.536C18.074 196.788 10.3609 193.891 10.3609 193.891C10.3609 193.891 8.54008 201.935 12.1743 208.684Z" fill="#A5E9C0"/>
<path d="M14.6722 206.464C21.2334 210.416 23.7603 218.267 23.7603 218.267C23.7603 218.267 15.6494 219.71 9.08817 215.757C2.52694 211.805 0 203.954 0 203.954C0 203.954 8.11092 202.511 14.6722 206.464Z" fill="#74CD97"/>
<path d="M161.776 10.5135H120.838V11.0991H161.776V10.5135Z" fill="#F2F2F2"/>
<path d="M150.664 10.9526H150.079V16.3693H150.664V10.9526Z" fill="#F2F2F2"/>
<path d="M132.827 10.9526H132.242V16.3693H132.827V10.9526Z" fill="#F2F2F2"/>
<path d="M182.537 38.6215H141.6V39.2071H182.537V38.6215Z" fill="#F2F2F2"/>
<path d="M153.296 33.3513H152.711V38.768H153.296V33.3513Z" fill="#F2F2F2"/>
<path d="M171.133 33.3513H170.548V38.768H171.133V33.3513Z" fill="#F2F2F2"/>
<path d="M236.925 51.7972H195.988V52.3828H236.925V51.7972Z" fill="#F2F2F2"/>
<path d="M207.684 46.5269H207.1V51.9436H207.684V46.5269Z" fill="#F2F2F2"/>
<path d="M225.521 46.5269H224.937V51.9436H225.521V46.5269Z" fill="#F2F2F2"/>
<path d="M232.832 187.653H191.894V188.238H232.832V187.653Z" fill="#F2F2F2"/>
<path d="M203.591 182.382H203.006V187.799H203.591V182.382Z" fill="#F2F2F2"/>
<path d="M221.428 182.382H220.843V187.799H221.428V182.382Z" fill="#F2F2F2"/>
<path d="M162.945 93.6664H122.008V94.252H162.945V93.6664Z" fill="#F2F2F2"/>
<path d="M133.704 88.3961H133.12V93.8128H133.704V88.3961Z" fill="#F2F2F2"/>
<path d="M151.541 88.3961H150.957V93.8128H151.541V88.3961Z" fill="#F2F2F2"/>
<path d="M175.811 164.229H134.874V164.815H175.811V164.229Z" fill="#F2F2F2"/>
<path d="M146.57 158.959H145.985V164.376H146.57V158.959Z" fill="#F2F2F2"/>
<path d="M164.408 158.959H163.823V164.376H164.408V158.959Z" fill="#F2F2F2"/>
<path d="M241.312 142.855H200.374V143.441H241.312V142.855Z" fill="#F2F2F2"/>
<path d="M212.07 137.585H211.485V143.002H212.07V137.585Z" fill="#F2F2F2"/>
<path d="M229.908 137.585H229.323V143.002H229.908V137.585Z" fill="#F2F2F2"/>
<path d="M105.87 205.594H36.6313V205.095H105.372V180.905H42.4521L39.3955 174.529L39.8446 174.313L42.7655 180.406H105.87V205.594Z" fill="#6C6C6C"/>
<path d="M45.8465 217.814C48.7351 217.814 51.0768 215.469 51.0768 212.577C51.0768 209.684 48.7351 207.34 45.8465 207.34C42.9579 207.34 40.6162 209.684 40.6162 212.577C40.6162 215.469 42.9579 217.814 45.8465 217.814Z" fill="#6C6C6C"/>
<path d="M97.4021 217.814C100.291 217.814 102.632 215.469 102.632 212.577C102.632 209.684 100.291 207.34 97.4021 207.34C94.5135 207.34 92.1719 209.684 92.1719 212.577C92.1719 215.469 94.5135 217.814 97.4021 217.814Z" fill="#6C6C6C"/>
<path d="M158.173 104.593C159.961 104.593 161.411 103.141 161.411 101.351C161.411 99.5603 159.961 98.1088 158.173 98.1088C156.385 98.1088 154.935 99.5603 154.935 101.351C154.935 103.141 156.385 104.593 158.173 104.593Z" fill="#6C6C6C"/>
<path d="M113.276 172.675H35.4508L18.6113 117.561H130.618L130.516 117.885L113.276 172.675ZM35.8192 172.176H112.91L129.938 118.06H19.2846L35.8192 172.176Z" fill="#6C6C6C"/>
<path d="M107.201 169.807H38.8444L24.0537 120.927H122.433L122.343 121.215L107.201 169.807Z" fill="#74CD97"/>
<path d="M132.013 112.637L131.532 112.509L134.819 100.104H153.939V100.603H135.202L132.013 112.637Z" fill="#6C6C6C"/>
<path d="M125.021 134.27H24.0532V134.768H125.021V134.27Z" fill="#6C6C6C"/>
<path d="M119.238 152.645H29.6675V153.144H119.238V152.645Z" fill="#6C6C6C"/>
<path d="M74.8624 117.81H74.3643V172.426H74.8624V117.81Z" fill="#6C6C6C"/>
<path d="M97.1641 117.795L93.5884 172.409L94.0855 172.441L97.6612 117.827L97.1641 117.795Z" fill="#6C6C6C"/>
<path d="M52.0728 117.794L51.5757 117.826L55.1306 172.442L55.6278 172.409L52.0728 117.794Z" fill="#6C6C6C"/>
<path d="M262 218.13H0V218.716H262V218.13Z" fill="#6C6C6C"/>
<path d="M174.104 18.1168C174.104 18.1168 178.379 30.2988 175.749 32.173C173.118 34.0471 184.627 49.3527 184.627 49.3527L198.437 45.6044L190.874 32.7977C190.874 32.7977 189.888 19.991 189.888 18.1168C189.888 16.2427 174.104 18.1168 174.104 18.1168Z" fill="#FFEBCC"/>
<path d="M166.93 104.952C166.93 104.952 165.682 120.57 166.93 128.692C168.177 136.813 170.049 159.303 170.049 159.303C170.049 159.303 170.049 201.784 176.912 202.408C183.775 203.033 188.766 203.658 189.39 201.159C190.014 198.66 186.271 197.411 188.142 196.161C190.014 194.912 190.638 190.539 188.142 185.541C185.647 180.543 188.142 129.941 188.142 129.941L199.996 161.802C199.996 161.802 201.244 188.04 202.492 191.788C203.74 195.536 201.244 202.408 205.612 203.033C209.979 203.658 214.97 199.909 217.466 198.66C219.961 197.411 213.722 197.411 214.97 196.786C216.218 196.161 219.961 194.287 218.714 193.662C217.466 193.038 216.218 163.051 216.218 163.051C216.218 163.051 212.787 99.0177 208.419 96.5188C204.052 94.0199 201.244 98.3241 201.244 98.3241L166.93 104.952Z" fill="#B5ACA0"/>
<path d="M178.16 199.909V204.907C178.16 204.907 172.545 218.493 178.16 218.493C183.775 218.493 188.142 219.9 188.142 218.026V201.159L178.16 199.909Z" fill="#6C6C6C"/>
<path d="M214.97 199.901V204.898C214.97 204.898 220.585 218.484 214.97 218.484C209.355 218.484 204.988 219.892 204.988 218.017V201.15L214.97 199.901Z" fill="#6C6C6C"/>
<path d="M182.839 27.1752C189.041 27.1752 194.069 22.1407 194.069 15.9303C194.069 9.71988 189.041 4.68536 182.839 4.68536C176.637 4.68536 171.609 9.71988 171.609 15.9303C171.609 22.1407 176.637 27.1752 182.839 27.1752Z" fill="#FFEBCC"/>
<path d="M179.408 36.8583C179.408 36.8583 182.527 46.229 187.519 44.3549L192.51 42.4807L201.245 102.454C201.245 102.454 194.382 112.449 184.399 106.202C174.417 99.9547 179.408 36.8583 179.408 36.8583Z" fill="white"/>
<path d="M188.143 34.9841L190.95 29.0493C190.95 29.0493 207.484 36.8583 209.979 39.3571C212.475 41.856 212.475 45.6043 212.475 45.6043L208.108 61.2222C208.108 61.2222 209.355 95.5816 209.355 96.8311C209.355 98.0805 213.723 104.952 210.603 102.454C207.484 99.9547 206.86 97.4558 204.364 101.204C201.868 104.952 196.253 109.325 196.253 109.325L188.143 34.9841Z" fill="#D8E8DD"/>
<path d="M209.979 79.9637L208.107 97.4558C208.107 97.4558 196.877 107.451 199.373 108.076C201.868 108.701 203.116 106.202 203.116 106.202C203.116 106.202 207.483 110.575 209.979 108.076C212.475 105.577 218.714 81.8379 218.714 81.8379L209.979 79.9637Z" fill="#FFEBCC"/>
<path d="M183.078 0.0380252C180.589 -0.0510919 177.924 -0.0951749 175.825 1.2482C174.859 1.92238 174.012 2.75269 173.319 3.70517C171.274 6.293 169.508 9.54908 170.267 12.7599L171.149 12.4154C171.149 13.2725 170.959 14.1188 170.592 14.8932C170.716 14.5316 171.132 15.1162 171.021 15.482L170.049 18.6736C171.646 18.0873 173.633 19.2744 173.876 20.9602C173.987 17.2531 174.372 13.0022 177.375 10.8316C178.889 9.73692 180.806 9.40275 182.65 9.106C184.352 8.83224 186.135 8.57119 187.765 9.13202C189.394 9.69285 190.782 11.3616 190.413 13.0469C191.164 12.7877 192.005 13.3121 192.376 14.0156C192.747 14.7192 192.767 15.5491 192.778 16.3448C193.579 16.9116 194.49 15.7861 194.817 14.86C195.583 12.6862 196.264 10.3723 195.851 8.10445C195.439 5.83659 193.593 3.66931 191.291 3.66162C191.57 3.35429 191.719 2.95017 191.706 2.53474L189.809 2.3742C190.291 2.30591 190.734 2.07203 191.062 1.71263C190.3 2.55204 184.31 0.0821226 183.078 0.0380252Z" fill="#6C6C6C"/>
<path d="M182.527 33.11C182.527 33.11 177.448 28.1264 175.62 28.4317C173.793 28.737 171.297 33.11 171.297 33.11C171.297 33.11 156.323 38.1077 156.947 43.1054C157.571 48.1032 164.434 72.4671 164.434 72.4671C164.434 72.4671 170.049 101.829 165.058 104.952C160.067 108.076 188.766 116.197 189.39 112.449C190.014 108.701 191.262 71.2177 189.39 65.5953C187.518 59.9728 182.527 33.11 182.527 33.11Z" fill="#D8E8DD"/>
<path d="M204.364 43.1055H212.078C212.078 43.1055 217.466 66.8447 218.09 69.3436C218.714 71.8425 219.961 83.7121 219.337 83.7121C218.714 83.7121 206.235 81.2132 206.235 83.0874L204.364 43.1055Z" fill="#D8E8DD"/>
<path d="M204.103 101.892H174.569C171.687 88.6164 171.446 75.7902 174.569 63.5358H204.103C199.337 75.5698 199.039 88.3081 204.103 101.892Z" fill="#F2F2F2"/>
<path d="M162.562 85.5862L171.297 89.3346C171.297 89.3346 188.143 91.8334 188.143 84.9615C188.143 78.0896 171.297 81.8379 171.297 81.8379L165.682 80.0402L162.562 85.5862Z" fill="#FFEBCC"/>
<path d="M164.434 39.3572L156.947 41.2313L151.332 74.3413C151.332 74.3413 149.46 83.0874 152.58 83.7121C155.699 84.3368 164.434 89.3346 164.434 89.3346C164.434 89.3346 165.682 79.9638 168.177 79.9638L161.938 74.966L165.682 53.101L164.434 39.3572Z" fill="#D8E8DD"/>
<path d="M58.5547 103.329H17.6172V103.914H58.5547V103.329Z" fill="#F2F2F2"/>
<path d="M29.3138 98.0583H28.729V103.475H29.3138V98.0583Z" fill="#F2F2F2"/>
<path d="M47.1507 98.0583H46.5659V103.475H47.1507V98.0583Z" fill="#F2F2F2"/>
<path d="M72.8828 16.6621H31.9453V17.2477H72.8828V16.6621Z" fill="#F2F2F2"/>
<path d="M61.7713 17.1013H61.1865V22.518H61.7713V17.1013Z" fill="#F2F2F2"/>
<path d="M43.9344 17.1013H43.3496V22.518H43.9344V17.1013Z" fill="#F2F2F2"/>
<path d="M114.113 74.3422H73.1753V74.9277H114.113V74.3422Z" fill="#F2F2F2"/>
<path d="M103.001 74.7814H102.417V80.198H103.001V74.7814Z" fill="#F2F2F2"/>
<path d="M85.1639 74.7814H84.5791V80.198H85.1639V74.7814Z" fill="#F2F2F2"/>
<path d="M44.519 74.0494H3.58154V74.635H44.519V74.0494Z" fill="#F2F2F2"/>
<path d="M33.4076 74.4885H32.8228V79.9052H33.4076V74.4885Z" fill="#F2F2F2"/>
<path d="M15.5702 74.4885H14.9854V79.9052H15.5702V74.4885Z" fill="#F2F2F2"/>
<path d="M93.644 44.7701H52.7065V45.3557H93.644V44.7701Z" fill="#F2F2F2"/>
<path d="M64.4032 39.4999H63.8184V44.9166H64.4032V39.4999Z" fill="#F2F2F2"/>
<path d="M82.2401 39.4999H81.6553V44.9166H82.2401V39.4999Z" fill="#F2F2F2"/>
</g>
<defs>
<clipPath id="clip0_162_26">
<rect width="262" height="219" fill="white"/>
</clipPath>
</defs>
</svg>
