<svg width="17" height="17" viewBox="0 0 17 17" fill="none" xmlns="http://www.w3.org/2000/svg">
<path fill-rule="evenodd" clip-rule="evenodd" d="M3.57082 0.257263C6.63992 -0.0857542 9.81269 -0.0857542 12.8818 0.257263C14.5945 0.448685 15.9763 1.79809 16.1774 3.51758C16.5443 6.65521 16.5443 9.82491 16.1774 12.9625C15.9763 14.682 14.5945 16.0314 12.8818 16.2229C9.81268 16.5659 6.63992 16.5659 3.57082 16.2229C1.8581 16.0314 0.47634 14.682 0.27523 12.9625C-0.0917435 9.82491 -0.0917434 6.65521 0.27523 3.51758C0.47634 1.79809 1.8581 0.448685 3.57082 0.257263ZM4.69599 4.70972C4.98888 4.41683 5.46376 4.41683 5.75665 4.70972L8.22633 7.1794L10.696 4.70973C10.9889 4.41684 11.4638 4.41684 11.7567 4.70973C12.0496 5.00262 12.0496 5.4775 11.7567 5.77039L9.28699 8.24006L11.7566 10.7097C12.0495 11.0026 12.0495 11.4775 11.7566 11.7704C11.4638 12.0633 10.9889 12.0633 10.696 11.7704L8.22633 9.30072L5.75666 11.7704C5.46376 12.0633 4.98889 12.0633 4.696 11.7704C4.4031 11.4775 4.4031 11.0026 4.696 10.7097L7.16567 8.24006L4.69599 5.77038C4.4031 5.47749 4.4031 5.00261 4.69599 4.70972Z" fill="#FD564A"/>
</svg>
