<svg width="749" height="542" viewBox="0 0 749 542" fill="none" xmlns="http://www.w3.org/2000/svg">
<path d="M736.98 254.772C735.712 283.054 717.431 314.26 687.164 345.16C656.953 376.004 615.057 406.28 567.139 432.698C471.265 485.555 351.689 522.751 254.079 518.374C156.687 514.007 99.6351 469.086 67.4663 410.953C35.2182 352.677 27.8973 280.956 30.4919 223.093C31.7386 195.291 28.4694 167.87 25.4451 142.502C25.2911 141.21 25.1378 139.924 24.9857 138.643C21.8336 112.099 19.2471 88.0675 22.5253 67.974C25.7758 48.0504 34.7691 32.1337 54.8422 21.6123C75.0961 10.9961 106.821 5.76855 155.761 7.96306C253.595 12.35 400.465 45.4906 522.225 92.0475C583.104 115.325 637.586 141.912 676.484 169.858C695.933 183.832 711.41 198.091 721.849 212.378C732.284 226.661 737.604 240.856 736.98 254.772Z" stroke="black" stroke-width="4"/>
</svg>
