<svg width="18" height="13" viewBox="0 0 18 13" fill="none" xmlns="http://www.w3.org/2000/svg">
<path d="M0.0539388 10.1803C-0.0421977 10.3702 -0.00762556 10.6001 0.140097 10.7533C0.287819 10.9065 0.516316 10.9494 0.709539 10.8602L3.20888 9.70666C5.30948 8.73716 7.60182 8.29364 9.89021 8.39796C9.91739 9.13282 9.95772 9.86732 10.0112 10.6011L10.0797 11.5401C10.1212 12.1097 10.7564 12.4281 11.2376 12.1206C13.3266 10.7858 15.1427 9.06583 16.589 7.05243L17.0492 6.41181C17.1744 6.23749 17.1744 6.00271 17.0492 5.82839L16.589 5.18777C15.1427 3.17437 13.3266 1.45442 11.2376 0.119594C10.7564 -0.187941 10.1212 0.130497 10.0797 0.700143L10.0112 1.63911C9.9653 2.26896 9.92908 2.89935 9.90255 3.53004H9.25945C5.67848 3.53003 2.40176 5.54368 0.784064 8.73843L0.0539388 10.1803Z" fill="#74CD97"/>
</svg>
