<svg width="19" height="16" viewBox="0 0 19 16" fill="none" xmlns="http://www.w3.org/2000/svg">
<path d="M5.59143 0C2.57221 0 0 2.2944 0 5.27426C0 7.32993 0.947119 9.06062 2.20236 10.4943C3.45329 11.923 5.06719 13.1222 6.5262 14.1259L9.04355 15.8578C9.31924 16.0474 9.68076 16.0474 9.95645 15.8578L12.4738 14.1259C13.9328 13.1222 15.5467 11.923 16.7976 10.4943C18.0529 9.06062 19 7.32993 19 5.27426C19 2.2944 16.4278 0 13.4086 0C11.8522 0 10.4827 0.74167 9.5 1.70133C8.51726 0.74167 7.14777 0 5.59143 0Z" fill="#74CD97"/>
</svg>
