<svg width="88" height="98" viewBox="0 0 88 98" fill="none" xmlns="http://www.w3.org/2000/svg">
<path d="M86.4223 73.2327C85.6934 76.6886 82.8495 85.1472 64.1463 93.1011C27.5513 108.664 -11.4046 63.7411 6.2986 30.8131C13.5367 17.3502 25.173 -2.66351 50.945 2.63203C58.9028 2.78211 74.8078 11.3743 65.3851 27.4116C54.2428 46.3756 78.2734 65.4322 78.2734 65.4322C78.2734 65.4322 86.7898 71.3375 86.4223 73.2327Z" fill="#74CD97" stroke="black" stroke-width="3"/>
<path d="M70.9315 76.5928C49.2262 76.1835 31.7422 53.5163 36.0432 36.5153C40.7393 17.9524 59.2444 11.4744 65.4687 15.1785C69.7682 17.7371 69.7958 19.3675 65.2436 27.1152C54.1013 46.0792 78.2738 65.4323 78.2738 65.4323C78.2738 65.4323 86.7902 71.3375 86.4226 73.2328C85.6938 76.6886 73.4151 76.8679 70.9315 76.5928Z" stroke="black" stroke-width="3"/>
<path d="M61.6982 68.8331C49.888 68.6104 40.4537 52.0874 42.8543 39.6332C45.4755 26.0348 55.5686 21.2297 58.9426 23.9179C61.2733 25.7747 61.2825 26.9675 58.7779 32.6522C52.6474 46.5669 65.7332 60.6414 65.7332 60.6414C65.7332 60.6414 70.3468 64.9319 70.14 66.3199C69.7312 68.851 63.0487 69.0256 61.6982 68.8331Z" fill="#BFFFCB" stroke="black" stroke-width="2"/>
</svg>
