<svg width="371" height="267" viewBox="0 0 371 267" fill="none" xmlns="http://www.w3.org/2000/svg">
<path d="M227.949 175.863L231.189 187.074H225.893H220.598L223.837 175.863L225.893 168.747L227.949 175.863Z" fill="#A5E9C0" stroke="black" stroke-width="4"/>
<path d="M233.725 166.886L235.777 173.998L235.777 173.998L239.017 185.213H233.725H228.43L231.67 173.998L231.67 173.998L233.725 166.886Z" fill="#A5E9C0" stroke="black" stroke-width="4"/>
<path d="M243.61 173.998L246.849 185.213H241.554H236.258L239.498 173.998L239.498 173.998L241.554 166.882L243.61 173.998L243.61 173.998Z" fill="#A5E9C0" stroke="black" stroke-width="4"/>
<path d="M299.97 182.403L302.026 175.288L304.082 182.403L304.082 182.404L307.321 193.618H302.026H296.731L299.97 182.404L299.97 182.403Z" fill="#A5E9C0" stroke="black" stroke-width="4"/>
<path d="M53.0642 179.49L53.0635 179.49L47.8895 180.616L48.6702 168.969L48.6703 168.968L49.1677 161.581L52.6875 168.098L58.2334 178.368L53.0642 179.49Z" fill="#A5E9C0" stroke="black" stroke-width="4"/>
<path d="M58.8412 150.441L72.158 142.933L77.7292 159.637L77.9457 160.286L78.5143 160.666L90.3678 168.597L97.7788 179.526L98.629 180.78L100.066 180.301L111.951 176.342L112.298 176.226L112.582 175.995L127.31 163.987L138.392 160.932L138.68 160.853L138.931 160.693L154.437 150.866L168.648 154.604L169.248 154.761L169.832 154.552L185.282 149.009L185.529 148.92L185.745 148.771L194.541 142.685L203.048 152.887L208.429 167.868L209.589 173.28L209.928 174.861H211.545H225.806H241.653H242.526L243.12 174.22L252.587 164.002L267.209 161.004H281.759L291.772 164.083L291.794 164.09L291.816 164.096L309.103 168.979L348.005 263.506H2.46946L16.9174 195.488L27.7405 181.195L27.8129 181.099L27.8733 180.996L38.7054 162.438L58.8412 150.441Z" fill="#BFFFCB" stroke="black" stroke-width="4"/>
<g opacity="0.3">
<path opacity="0.3" d="M63.6538 72.7819H112.872C115.063 72.7819 116.838 74.5571 116.838 76.7444C116.838 78.9317 115.063 80.7069 112.872 80.7069H63.6538C61.4623 80.7069 59.6877 78.9317 59.6877 76.7444C59.6877 74.5571 61.4623 72.7819 63.6538 72.7819Z" fill="#E0E0E0" stroke="#74CD97" stroke-width="4"/>
<path opacity="0.3" d="M48.7385 84.7069H97.9564C100.148 84.7069 101.922 86.4821 101.922 88.6694C101.922 90.8567 100.148 92.6319 97.9564 92.6319H48.7385C46.547 92.6319 44.7725 90.8567 44.7725 88.6694C44.7725 86.4821 46.547 84.7069 48.7385 84.7069Z" fill="#E0E0E0" stroke="#74CD97" stroke-width="4"/>
<path opacity="0.3" d="M63.6538 96.6319H112.872C115.063 96.6319 116.838 98.4071 116.838 100.594C116.838 102.782 115.063 104.557 112.872 104.557H63.6538C61.4623 104.557 59.6877 102.782 59.6877 100.594C59.6877 98.4071 61.4623 96.6319 63.6538 96.6319Z" fill="#E0E0E0" stroke="#74CD97" stroke-width="4"/>
</g>
<g opacity="0.5">
<path opacity="0.5" d="M162.538 58.7863L167.112 264.214H91.5753L96.1489 58.7863H162.538Z" fill="url(#paint0_linear_121_84)" stroke="black" stroke-width="4"/>
</g>
<path d="M161.17 58.7863L165.561 264.214H93.2097L97.5968 58.7863H161.17Z" fill="white" stroke="black" stroke-width="4"/>
<g opacity="0.05">
<path opacity="0.05" d="M103.003 58.7863L107.394 264.214H93.2097L97.5968 58.7863H103.003Z" fill="black" stroke="black" stroke-width="4"/>
</g>
<path d="M177.37 189.213C176.956 191.697 175.777 194.009 173.972 195.812C171.689 198.093 168.594 199.375 165.366 199.375H93.777C90.5489 199.375 87.4532 198.093 85.1709 195.812C83.3659 194.009 82.1867 191.697 81.7723 189.213H177.37Z" fill="#74CD97" stroke="black" stroke-width="4"/>
<path d="M177.37 118.795C176.956 121.279 175.777 123.591 173.972 125.395C171.689 127.676 168.594 128.957 165.366 128.957H93.777C90.5489 128.957 87.4532 127.676 85.1709 125.395C83.3659 123.591 82.1867 121.279 81.7723 118.795H177.37Z" fill="#74CD97" stroke="black" stroke-width="4"/>
<path d="M145.84 86.7849C145.84 95.7637 138.556 103.045 129.569 103.045C120.582 103.045 113.299 95.7637 113.299 86.7849C113.299 77.806 120.582 70.5252 129.569 70.5252C138.556 70.5252 145.84 77.806 145.84 86.7849Z" fill="#A5E9C0" stroke="black" stroke-width="4"/>
<path opacity="0.1" d="M166.11 201.371H92.656V202.488H166.11V201.371Z" fill="black"/>
<path opacity="0.1" d="M164.621 130.941H93.7771V131.686H164.621V130.941Z" fill="black"/>
<path d="M128.214 264.214V233.979C128.214 231.396 129.24 228.919 131.068 227.093C132.895 225.266 135.374 224.24 137.959 224.24L128.214 264.214ZM128.214 264.214H147.706V233.979C147.706 233.979 147.706 233.979 147.706 233.979C147.705 231.396 146.678 228.92 144.85 227.094C143.023 225.267 140.545 224.241 137.96 224.24L128.214 264.214Z" fill="#A5E9C0" stroke="black" stroke-width="4"/>
<g opacity="0.3">
<path opacity="0.3" d="M226.868 17.7495H276.086C278.278 17.7495 280.052 19.5247 280.052 21.712C280.052 23.8993 278.278 25.6745 276.086 25.6745H226.868C224.677 25.6745 222.902 23.8993 222.902 21.712C222.902 19.5247 224.677 17.7495 226.868 17.7495Z" fill="#74CD97" stroke="#74CD97" stroke-width="4"/>
<path opacity="0.3" d="M211.953 29.6745H261.171C263.363 29.6745 265.137 31.4497 265.137 33.637C265.137 35.8243 263.363 37.5995 261.171 37.5995H211.953C209.762 37.5995 207.987 35.8243 207.987 33.637C207.987 31.4497 209.762 29.6745 211.953 29.6745Z" fill="#74CD97" stroke="#74CD97" stroke-width="4"/>
<path opacity="0.3" d="M226.868 41.5995H276.086C278.278 41.5995 280.052 43.3747 280.052 45.562C280.052 47.7494 278.278 49.5245 276.086 49.5245H226.868C224.677 49.5245 222.902 47.7494 222.902 45.562C222.902 43.3747 224.677 41.5995 226.868 41.5995Z" fill="#74CD97" stroke="#74CD97" stroke-width="4"/>
</g>
<g opacity="0.3">
<path opacity="0.3" d="M277.575 100.392H326.793C329.261 100.392 331.259 102.391 331.259 104.855C331.259 107.318 329.261 109.317 326.793 109.317H277.575C275.108 109.317 273.109 107.318 273.109 104.855C273.109 102.391 275.108 100.392 277.575 100.392Z" fill="#E0E0E0" stroke="#74CD97" stroke-width="3"/>
<path opacity="0.3" d="M262.66 112.317H311.878C314.346 112.317 316.344 114.316 316.344 116.78C316.344 119.243 314.346 121.242 311.878 121.242H262.66C260.193 121.242 258.194 119.243 258.194 116.78C258.194 114.316 260.193 112.317 262.66 112.317Z" fill="#E0E0E0" stroke="#74CD97" stroke-width="3"/>
<path opacity="0.3" d="M277.575 124.242H326.793C329.261 124.242 331.259 126.241 331.259 128.705C331.259 131.168 329.261 133.167 326.793 133.167H277.575C275.108 133.167 273.109 131.168 273.109 128.705C273.109 126.241 275.108 124.242 277.575 124.242Z" fill="#E0E0E0" stroke="#74CD97" stroke-width="3"/>
</g>
<g opacity="0.3">
<path opacity="0.3" d="M251.497 102.622H264.546C264.546 102.622 259.63 111.316 251.497 102.622Z" fill="#74CD97"/>
<path opacity="0.3" d="M252.285 106.319L260.842 96.473C260.842 96.473 264.186 105.884 252.285 106.319Z" fill="#74CD97"/>
</g>
<g opacity="0.3">
<path opacity="0.3" d="M204.89 129.825H217.939C217.939 129.825 213.023 138.519 204.89 129.825Z" fill="#74CD97"/>
<path opacity="0.3" d="M205.678 133.523L214.231 123.676C214.231 123.676 217.578 133.087 205.678 133.523Z" fill="#74CD97"/>
</g>
<g opacity="0.3">
<path opacity="0.3" d="M188.01 27.7181H202.006C202.006 27.7181 196.733 37.0618 188.01 27.7181Z" fill="#74CD97"/>
<path opacity="0.3" d="M188.853 31.6892L198.032 21.1222C198.032 21.1222 201.621 31.2181 188.853 31.6892Z" fill="#74CD97"/>
</g>
<g opacity="0.05">
<path opacity="0.05" d="M91.8042 201.316C92.2004 201.351 92.6163 201.371 93.0283 201.371H107.29L106.989 187.213H92.1172L91.8042 201.316Z" fill="black"/>
</g>
<g opacity="0.05">
<path opacity="0.05" d="M106.244 116.783H94.3595L94.0544 130.941H106.545L106.244 116.783Z" fill="black"/>
</g>
<path d="M370.426 182.189C370.583 182.189 370.734 182.126 370.846 182.015C370.957 181.904 371.02 181.752 371.02 181.595C371.02 181.437 370.957 181.286 370.846 181.175C370.734 181.064 370.583 181.001 370.426 181.001C370.268 181.001 370.117 181.064 370.005 181.175C369.894 181.286 369.831 181.437 369.831 181.595C369.831 181.752 369.894 181.904 370.005 182.015C370.117 182.126 370.268 182.189 370.426 182.189Z" fill="#C5DCDD"/>
<path d="M177.722 42.0503C177.722 47.8531 172.978 53.6417 164.082 58.0987C155.306 62.4965 143.04 65.2741 129.383 65.2741C115.726 65.2741 103.461 62.4965 94.6839 58.0987C85.7887 53.6417 81.0442 47.8531 81.0442 42.0503C81.0442 39.0433 82.2841 35.019 84.7492 30.5719C87.1929 26.1634 90.7531 21.499 95.1752 17.2413C104.044 8.70222 116.157 2 129.383 2C142.609 2 154.723 8.70312 163.591 17.2427C168.013 21.5007 171.573 26.1652 174.017 30.5736C176.482 35.0206 177.722 39.0443 177.722 42.0503Z" fill="#74CD97" stroke="black" stroke-width="4"/>
<g opacity="0.05">
<path opacity="0.05" d="M78.751 42.0503C78.751 55.9826 101.288 67.2741 129.09 67.2741V0C101.288 0 78.751 28.1219 78.751 42.0503Z" fill="black"/>
</g>
<defs>
<linearGradient id="paint0_linear_121_84" x1="129.344" y1="266.214" x2="129.344" y2="56.7863" gradientUnits="userSpaceOnUse">
<stop stop-color="#808080" stop-opacity="0.25"/>
<stop offset="0.54" stop-color="#808080" stop-opacity="0.12"/>
<stop offset="1" stop-color="#808080" stop-opacity="0.1"/>
</linearGradient>
</defs>
</svg>
