<svg width="271" height="162" viewBox="0 0 271 162" fill="none" xmlns="http://www.w3.org/2000/svg">
<g clip-path="url(#clip0_119_10)">
<path d="M63.5162 160.168C66.9858 157.237 69.0932 152.606 68.5405 148.098C67.9879 143.59 64.5648 139.446 60.1245 138.488C55.6842 137.531 50.6226 140.181 49.2739 144.518C48.5317 136.157 47.6764 127.445 43.2304 120.324C39.2046 113.877 32.2319 109.263 24.675 108.438C17.1182 107.613 9.1618 110.73 4.44886 116.694C-0.264071 122.657 -1.41802 131.328 1.8828 138.174C4.3144 143.218 8.79424 146.972 13.488 150.026C28.6553 159.811 46.8464 163.79 64.7145 161.231L63.5162 160.168Z" fill="#D4FFAA"/>
<path d="M11.9215 110.903C18.1568 115.981 23.8771 121.66 28.9995 127.859C37.0161 137.527 43.5033 148.366 48.2349 159.999C48.5813 160.848 47.203 161.217 46.8605 160.378C39.1187 141.472 26.7596 124.808 10.9136 111.91C10.2021 111.331 11.2158 110.328 11.9215 110.903Z" fill="white"/>
<path d="M183.761 159.372C178.995 155.345 176.101 148.985 176.86 142.793C177.619 136.602 182.321 130.91 188.419 129.595C194.518 128.28 201.47 131.92 203.322 137.876C204.342 126.392 205.517 114.426 211.623 104.646C217.153 95.7905 226.73 89.454 237.109 88.3204C247.488 87.1868 258.416 91.4683 264.89 99.6595C271.363 107.851 272.948 119.759 268.414 129.163C265.074 136.091 258.921 141.247 252.474 145.441C231.907 158.823 206.392 164.404 182.115 160.832" fill="#D4FFAA"/>
<path d="M254.626 91.7056C246.061 98.6804 238.205 106.481 231.169 114.995C224.132 123.5 217.937 132.668 212.671 142.369C209.727 147.811 207.082 153.41 204.749 159.14C204.273 160.306 206.166 160.813 206.637 159.66C210.77 149.558 215.883 139.885 221.903 130.78C227.894 121.708 234.751 113.238 242.377 105.49C246.691 101.11 251.242 96.9703 256.01 93.0897C256.987 92.294 255.595 90.9164 254.626 91.7056L254.626 91.7056Z" fill="white"/>
<path d="M76.4718 161.645H190.167V45.0053C190.167 20.1892 169.975 -3.8147e-06 145.156 -3.8147e-06H121.483C96.6636 -3.8147e-06 76.4718 20.1892 76.4718 45.0053V161.645Z" fill="#F2F2F2"/>
<path d="M100.145 161.645H190.167V45.0053C190.192 35.4964 187.181 26.2278 181.571 18.5489C181.365 18.2671 181.158 17.989 180.946 17.7139C178.233 14.1558 175.004 11.0223 171.366 8.41675C171.16 8.26725 170.954 8.12035 170.745 7.97344C167.701 5.8672 164.408 4.14539 160.941 2.8472C160.736 2.76918 160.526 2.69101 160.316 2.61604C157.181 1.49731 153.931 0.73099 150.626 0.331222C150.421 0.303238 150.211 0.28134 150.001 0.259442C146.78 -0.0848631 143.532 -0.0848631 140.312 0.259442C140.102 0.28134 139.891 0.303235 139.684 0.331522C136.38 0.731316 133.131 1.49754 129.997 2.61605C129.787 2.69103 129.577 2.76919 129.371 2.84736C125.947 4.12917 122.693 5.82529 119.681 7.89787C119.472 8.04158 119.263 8.18849 119.056 8.3354C117.017 9.79075 115.102 11.4121 113.33 13.1829C111.909 14.6033 110.585 16.1173 109.366 17.7148C109.154 17.989 108.948 18.2672 108.742 18.5485C103.132 26.2274 100.121 35.4962 100.145 45.0053V161.645Z" fill="#BFFFCB"/>
<path d="M107.466 109.477C104.713 109.477 102.482 107.246 102.482 104.493C102.482 101.741 104.713 99.51 107.466 99.51C110.218 99.51 112.449 101.741 112.449 104.493C112.449 107.246 110.218 109.477 107.466 109.477Z" fill="#74CD97"/>
<path d="M85.7858 158.152H89.6047L91.4216 143.424L85.7851 143.424L85.7858 158.152Z" fill="#FFB8B8"/>
<path d="M92.3325 157.061H84.9676V161.697H96.9697C96.9697 161.088 96.8498 160.486 96.6167 159.923C96.3837 159.36 96.0421 158.849 95.6115 158.419C95.1809 157.988 94.6697 157.647 94.1071 157.414C93.5445 157.181 92.9415 157.061 92.3325 157.061V157.061Z" fill="#2F2E41"/>
<path d="M66.7845 158.152H70.6035L72.4204 143.424L66.7839 143.424L66.7845 158.152Z" fill="#FFB8B8"/>
<path d="M73.3316 157.061H65.9666V161.697H77.9688C77.9688 161.088 77.8488 160.486 77.6158 159.923C77.3827 159.36 77.0411 158.849 76.6105 158.419C76.1799 157.988 75.6687 157.647 75.1061 157.414C74.5435 157.181 73.9405 157.061 73.3316 157.061V157.061Z" fill="#2F2E41"/>
<path d="M104.943 105.481C105.218 105.076 105.401 104.616 105.478 104.133C105.556 103.65 105.527 103.156 105.393 102.685C105.259 102.215 105.023 101.78 104.703 101.41C104.383 101.04 103.985 100.745 103.538 100.546L90.5564 64.7702L84.1686 68.2559L98.991 102.445C98.7058 103.217 98.7139 104.068 99.0139 104.834C99.3139 105.601 99.8848 106.232 100.618 106.606C101.352 106.98 102.198 107.072 102.995 106.865C103.792 106.657 104.485 106.165 104.943 105.481V105.481Z" fill="#FFB8B8"/>
<path d="M68.7354 112.203C69.1598 111.96 69.5257 111.626 69.8073 111.226C70.0889 110.826 70.2794 110.369 70.3653 109.888C70.4512 109.406 70.4305 108.912 70.3046 108.439C70.1787 107.967 69.9507 107.527 69.6366 107.152L73.6582 69.3074L66.3887 69.6395L64.7173 106.865C64.1222 107.434 63.7566 108.202 63.6898 109.023C63.6231 109.844 63.8598 110.66 64.355 111.318C64.8503 111.976 65.5698 112.43 66.3771 112.593C67.1845 112.756 68.0236 112.617 68.7354 112.203V112.203Z" fill="#FFB8B8"/>
<path d="M80.3326 58.1436C76.1072 58.1436 72.6819 54.7187 72.6819 50.4939C72.6819 46.2692 76.1072 42.8443 80.3326 42.8443C84.5579 42.8443 87.9832 46.2692 87.9832 50.4939C87.9832 54.7187 84.5579 58.1436 80.3326 58.1436Z" fill="#FFB8B8"/>
<path d="M68.7845 103.596H91.8496L91.8219 103.416C91.7804 103.148 87.7111 76.4946 90.7124 67.7747C91.0135 66.9178 90.9871 65.9798 90.638 65.1413C90.289 64.3027 89.6421 63.6229 88.8218 63.2326H88.8217C84.5319 61.2127 76.2973 58.7255 69.3471 64.7616C68.3244 65.6645 67.5257 66.7929 67.0143 68.0575C66.5029 69.3222 66.2928 70.6885 66.4006 72.0484L68.7845 103.596Z" fill="#74CD97"/>
<path d="M87.4193 80.4335L97.8035 78.3271L92.936 66.794C92.6447 65.6769 91.9222 64.721 90.927 64.1359C89.9317 63.5507 88.745 63.3842 87.6271 63.6727C86.5093 63.9613 85.5515 64.6814 84.9639 65.6751C84.3763 66.6688 84.2068 67.855 84.4927 68.9734L87.4193 80.4335Z" fill="#74CD97"/>
<path d="M74.1198 84.3447L74.7441 70.036C75.2175 67.3462 73.6775 64.8034 71.3091 64.3878C68.9401 63.9737 66.6268 65.8392 66.1513 68.5488L63.8048 81.9189L74.1198 84.3447Z" fill="#74CD97"/>
<path d="M69.5515 101.883C65.8402 116.016 65.4353 133.984 66.4365 153.584L71.4204 152.962L80.4538 115.587L85.4377 153.584L91.0446 153.273C92.7196 132.708 94.3506 115.053 91.6676 103.44L69.5515 101.883Z" fill="#2F2E41"/>
<path d="M75.2915 56.4058C76.7187 57.926 79.3693 57.1099 79.5553 55.0332C79.5699 54.872 79.5688 54.7097 79.5522 54.5487C79.4561 53.6288 78.9246 52.7936 79.052 51.8223C79.0808 51.5806 79.1708 51.3502 79.3136 51.153C80.451 49.6302 83.1208 51.8341 84.1942 50.4556C84.8524 49.6103 84.0787 48.2794 84.5837 47.3346C85.2504 46.0877 87.2249 46.7028 88.4631 46.0199C89.8407 45.2601 89.7583 43.1467 88.8514 41.8612C87.7455 40.2934 85.8064 39.4569 83.8914 39.3363C81.9765 39.2158 80.0747 39.7333 78.2869 40.43C76.2556 41.2215 74.2413 42.3154 72.9913 44.1013C71.4712 46.2731 71.3249 49.1929 72.0851 51.7325C72.5476 53.2773 74.126 55.1645 75.2915 56.4058Z" fill="#2F2E41"/>
<path d="M9.35065 161.846H239.325C239.423 161.846 239.517 161.806 239.587 161.737C239.656 161.667 239.695 161.573 239.695 161.475C239.695 161.377 239.656 161.283 239.587 161.213C239.517 161.144 239.423 161.104 239.325 161.104H9.35065C9.25247 161.104 9.15841 161.144 9.08908 161.213C9.01976 161.283 8.98083 161.377 8.98083 161.475C8.98083 161.573 9.01976 161.667 9.08908 161.737C9.15841 161.806 9.25247 161.846 9.35065 161.846V161.846Z" fill="#3F3D56"/>
<path d="M124.909 127.852H165.404C165.937 127.855 166.449 127.647 166.829 127.272C167.209 126.897 167.424 126.388 167.428 125.854V35.4795C167.424 34.9463 167.209 34.4365 166.829 34.0619C166.449 33.6873 165.937 33.4786 165.404 33.4814H124.909C124.376 33.4786 123.863 33.6873 123.484 34.0619C123.104 34.4365 122.889 34.9463 122.885 35.4795V125.854C122.889 126.388 123.104 126.897 123.484 127.272C123.863 127.647 124.376 127.855 124.909 127.852V127.852Z" fill="white"/>
<path d="M122.885 62.7239H167.428V63.3468H122.885V62.7239Z" fill="#CCCCCC"/>
<path d="M122.729 98.2642H167.272V98.8871H122.729V98.2642Z" fill="#CCCCCC"/>
<path d="M152.788 33.4815H153.411V128.164H152.788V33.4815Z" fill="#CCCCCC"/>
<path d="M137.213 33.4815H137.836V128.164H137.213V33.4815Z" fill="#CCCCCC"/>
</g>
<defs>
<clipPath id="clip0_119_10">
<rect width="271" height="162" fill="white" transform="matrix(-1 0 0 1 271 0)"/>
</clipPath>
</defs>
</svg>
