<svg width="1783" height="1422" viewBox="0 0 1783 1422" fill="none" xmlns="http://www.w3.org/2000/svg">
<path d="M23.53 969.79C115.9 1007.15 176 1057.41 215 1108L208.51 1164.72L232.84 1133.32C293.52 1227.93 273.16 1317.68 273.16 1317.68L249.97 1317.54C135.32 1316.86 37.82 1232.7 21.58 1119.21C21.4 1118.01 21.24 1116.81 21.08 1115.61L63.59 1110.04L18.09 1085.48C13.85 1021.19 23.53 969.79 23.53 969.79Z" fill="#1C0E0C"/>
<path d="M9.80995 972.25C102.19 1009.61 162.28 1059.87 201.32 1110.51L194.84 1167.22L219.16 1135.82C279.85 1230.43 273.05 1319.05 273.05 1319.05L237.41 1319.16C122.47 1319.54 24.1899 1235.5 7.89995 1121.72C7.72995 1120.51 7.55995 1119.31 7.39995 1118.11L49.92 1112.54L4.40996 1088C0.139959 1023.65 9.80995 972.25 9.80995 972.25Z" fill="#74CD97" stroke="black" stroke-width="6" stroke-linecap="round" stroke-linejoin="round"/>
<path d="M8.92993 1128.5L155.15 1201.42" stroke="#070707" stroke-width="6" stroke-linecap="round" stroke-linejoin="round"/>
<path d="M104.86 1135.7L101.34 1019.48" stroke="#070707" stroke-width="6" stroke-linecap="round" stroke-linejoin="round"/>
<path d="M9.80994 972.25C9.80994 972.25 98.0599 1178.03 273.05 1319.05" stroke="#070707" stroke-width="6" stroke-linecap="round" stroke-linejoin="round"/>
<path d="M1779.07 458C1779.07 458 1718.86 456.14 1745.42 556.2C1771.98 656.26 1660.8 646.4 1640.93 694.14C1630.31 719.67 1686.14 844.95 1590.5 889.26C1511.88 925.69 1427.17 963.34 1405.65 1045.18L1381.5 840C1381.5 840 1363.05 747 1446.12 725.87C1570.67 694.14 1504.12 617.96 1538.21 573.56C1575.66 524.86 1634.04 556.7 1657.94 525.94C1675.47 503.42 1699.16 418.63 1779.07 458Z" fill="#74CD97" stroke="black" stroke-width="6" stroke-linecap="round" stroke-linejoin="round"/>
<path d="M1778.88 458C1777.66 458.01 1776.43 458.097 1775.22 458.26C1766.06 457.49 1741.27 456.83 1725.63 469.93C1716.78 477.35 1712.12 488.15 1711.79 502.03C1711.1 530.97 1708.92 550.39 1699.79 564.03C1690.38 578.14 1673.97 585.6 1644.9 588.98C1616.9 592.23 1595.9 602.68 1583.9 619.19C1572.9 634.38 1569.71 654.77 1574.56 678.19C1578.91 699.19 1581.41 730.19 1568.63 759.04C1554.69 790.46 1525.92 812.34 1483.11 824.04C1459.93 830.39 1440.74 839.98 1426.11 852.54C1414.72 862.174 1405.72 874.31 1399.8 888C1389.95 910.93 1392.41 930.64 1392.44 930.84H1392.19L1389.55 908.43C1390.88 900.849 1393.09 893.449 1396.13 886.38C1402.3 872.145 1411.68 859.529 1423.53 849.52C1438.65 836.58 1458.36 826.71 1482.12 820.21C1579.17 793.63 1579.28 720.34 1570.71 679.01C1565.63 654.5 1569.09 633.01 1580.71 616.89C1593.3 599.44 1615.35 588.43 1644.45 585.04C1672.24 581.81 1687.79 574.87 1696.45 561.84C1704.99 549.02 1707.05 530.18 1707.73 501.97C1708.09 486.89 1713.23 475.08 1723.01 466.9C1729.01 461.9 1740.2 455.55 1759.14 454.19C1762.72 453.936 1766.31 453.862 1769.89 453.97C1772.85 455.12 1775.82 456.44 1778.88 458Z" fill="#070707"/>
<path d="M252.65 1004.79C252.65 1004.79 126.91 1010.79 109.17 892.42C92.82 783.36 170.3 747.76 115.84 706.58C61.38 665.4 28.35 633.41 53.41 580.4C76.41 531.69 62.71 500.7 28.17 510C28.17 510 68.17 456.51 124.25 499.57C176.5 539.66 116.39 614.02 185.35 614.93C252.65 615.82 303.13 640.45 293.11 720.93C289.27 751.69 266.91 795.02 303.35 841.19C354.36 905.83 252.65 1004.79 252.65 1004.79Z" fill="white" stroke="#070707" stroke-width="6" stroke-linecap="round" stroke-linejoin="round"/>
<path d="M26.84 508.66C26.84 508.66 127.79 462.85 106.54 575.13C87.7299 674.51 188.34 631.54 215.46 715.82C240.7 794.25 188.07 927.28 293.71 953.14" stroke="#070707" stroke-width="6" stroke-linecap="round" stroke-linejoin="round"/>
<path d="M1741.69 921.83C1715.07 1017.83 1671.97 1083.26 1626.09 1127.83H1569L1603 1148.43C1515.9 1219.43 1424.42 1209.43 1424.42 1209.43L1411.69 1091.93C1439.76 997.56 1521.46 954.93 1596.53 936.02L1606.9 977.63L1626.12 929.63C1689.53 918.06 1741.69 921.83 1741.69 921.83Z" fill="#1C0E0C"/>
<path d="M1737.69 908.48C1711.07 1004.48 1667.96 1069.92 1622.09 1114.48H1565L1599 1135.09C1511.9 1206.09 1423.08 1209.44 1423.08 1209.44L1407.68 1078.6C1435.76 984.23 1517.45 941.65 1592.53 922.68L1602.89 964.29L1622.12 916.29C1685.52 904.71 1737.69 908.48 1737.69 908.48Z" fill="white" stroke="#070707" stroke-width="6" stroke-linecap="round" stroke-linejoin="round"/>
<path d="M1417.65 1163.51L1737.69 908.48" stroke="#070707" stroke-width="6" stroke-linecap="round" stroke-linejoin="round"/>
<path d="M1582.35 925.36L1526.29 1076.93" stroke="#070707" stroke-width="6" stroke-linecap="round" stroke-linejoin="round"/>
<path d="M1605.38 1013.91L1701.17 1004.79" stroke="#070707" stroke-width="6" stroke-linecap="round" stroke-linejoin="round"/>
<path d="M1434.13 1149.6L1598.97 1135.07" stroke="#070707" stroke-width="6" stroke-linecap="round" stroke-linejoin="round"/>
<path d="M181.98 191.75H542.53V16.42H181.98L228.69 104.09L181.98 191.75Z" fill="#1C0E0C"/>
<path d="M193.32 179.74H553.88V4.41003H193.32L240.03 92.08L193.32 179.74Z" fill="white" stroke="#070707" stroke-width="6" stroke-linecap="round" stroke-linejoin="round"/>
<path d="M553.87 4.41003V719.34" stroke="#070707" stroke-width="8" stroke-linecap="round" stroke-linejoin="round"/>
<path d="M1288.94 259L1177.08 1209.42H555.33L667.18 259H1288.94Z" fill="#74CD97"/>
<path d="M1423.05 1209.42H1155.5L1268.92 245.65H1309.63L1423.05 1209.42Z" stroke="#070707" stroke-width="6" stroke-linecap="round" stroke-linejoin="round"/>
<path d="M1268.92 245.65L1155.5 1209.42H533.74L647.17 245.65H1268.92Z" stroke="#070707" stroke-width="6" stroke-linecap="round" stroke-linejoin="round"/>
<path d="M1023 62.3601C1049.49 62.3601 1074.89 72.8831 1093.63 91.6142C1112.36 110.345 1122.88 135.75 1122.88 162.24V245.65H923.09V162.24C923.09 149.121 925.674 136.131 930.696 124.011C935.717 111.891 943.077 100.879 952.355 91.6036C961.633 82.3285 972.647 74.972 984.768 69.9543C996.89 64.9367 1009.88 62.3561 1023 62.3601Z" fill="#A5E9C0" stroke="#070707" stroke-width="6" stroke-linecap="round" stroke-linejoin="round"/>
<path d="M955.58 62.36C982.07 62.36 1007.47 72.8831 1026.21 91.6142C1044.94 110.345 1055.46 135.75 1055.46 162.24V245.65H855.7V162.24C855.7 135.75 866.223 110.345 884.954 91.6142C903.685 72.8831 929.09 62.36 955.58 62.36V62.36Z" stroke="#070707" stroke-width="6" stroke-linecap="round" stroke-linejoin="round"/>
<path d="M1189.56 539.89H1098.49L1110.09 407.24C1112.29 382.09 1134.46 361.7 1159.62 361.7C1184.77 361.7 1203.37 382.09 1201.17 407.24L1189.56 539.89Z" fill="white"/>
<path d="M1181.56 531.88H1090.48L1102.09 399.23C1104.29 374.08 1126.46 353.69 1151.61 353.69C1176.76 353.69 1195.36 374.08 1193.16 399.23L1181.56 531.88Z" stroke="#070707" stroke-width="6" stroke-linecap="round" stroke-linejoin="round"/>
<path d="M1154.85 397.481C1158.94 393.558 1159.35 387.336 1155.76 383.581C1152.17 379.827 1145.93 379.964 1141.83 383.886C1137.74 387.808 1137.33 394.031 1140.92 397.785C1144.52 401.539 1150.75 401.403 1154.85 397.481Z" stroke="#070707" stroke-width="6" stroke-linecap="round" stroke-linejoin="round"/>
<path d="M1148.69 387.05L1161.69 238.8C1162.13 233.772 1164.44 229.09 1168.16 225.68C1171.88 222.27 1176.74 220.379 1181.79 220.38C1184.44 220.379 1187.06 220.899 1189.51 221.913C1191.96 222.926 1194.18 224.411 1196.06 226.284C1197.93 228.157 1199.42 230.381 1200.43 232.829C1201.45 235.277 1201.97 237.9 1201.97 240.55V245.66" stroke="#070707" stroke-width="6" stroke-linecap="round" stroke-linejoin="round"/>
<path d="M1142.67 484C1144.99 483.634 1147.14 482.566 1148.84 480.94C1150.31 479.514 1151.21 477.608 1151.39 475.57C1151.54 474.657 1151.47 473.723 1151.2 472.84C1150.92 471.957 1150.45 471.149 1149.81 470.48C1148.16 469.074 1146.21 468.05 1144.12 467.48L1139.44 466.08C1136.61 465.323 1133.86 464.274 1131.24 462.95C1129.11 461.841 1127.34 460.144 1126.14 458.06C1124.84 455.547 1124.35 452.693 1124.74 449.89C1124.99 445.813 1126.81 441.992 1129.81 439.22C1132.82 436.44 1136.95 434.827 1142.21 434.38H1147.01C1149.35 434.569 1151.65 435.13 1153.81 436.04C1155.68 436.878 1157.3 438.179 1158.53 439.82C1159.5 441.022 1160.27 442.373 1160.81 443.82C1161.28 445.007 1161.49 446.284 1161.41 447.56C1161.3 448.825 1160.7 449.996 1159.74 450.83C1158.8 451.721 1157.56 452.215 1156.27 452.21C1153.8 452.21 1152.27 450.88 1151.82 448.21C1151.61 446.746 1150.99 445.374 1150.02 444.259C1149.04 443.145 1147.77 442.335 1146.35 441.93L1141.56 441.78C1139.69 442.267 1137.93 443.116 1136.39 444.28C1135.72 444.867 1135.18 445.587 1134.8 446.395C1134.42 447.202 1134.22 448.079 1134.2 448.97C1134.06 449.77 1134.1 450.592 1134.32 451.374C1134.54 452.156 1134.93 452.879 1135.47 453.49C1136.87 454.739 1138.52 455.685 1140.3 456.27L1144.98 457.67C1148.03 458.53 1150.45 459.313 1152.24 460.02C1154.02 460.671 1155.64 461.686 1157 463C1158.44 464.391 1159.53 466.105 1160.18 468C1160.86 470.039 1161.11 472.2 1160.89 474.34C1160.64 477.213 1159.7 479.984 1158.16 482.42C1156.54 484.975 1154.3 487.085 1151.66 488.56C1148.71 490.207 1145.44 491.178 1142.07 491.4L1137.26 491.48C1134.64 491.232 1132.09 490.528 1129.71 489.4C1127.73 488.435 1125.97 487.073 1124.53 485.4C1123.27 483.963 1122.3 482.291 1121.69 480.48C1121.15 478.873 1120.93 477.172 1121.07 475.48C1121.2 474.213 1121.81 473.044 1122.77 472.21C1123.75 471.259 1125.07 470.734 1126.44 470.75C1127.43 470.711 1128.42 470.991 1129.24 471.55C1129.99 472.082 1130.5 472.881 1130.67 473.78C1131.04 475.388 1131.49 476.974 1132.04 478.53C1132.47 479.668 1133.16 480.693 1134.04 481.53C1135.15 482.526 1136.49 483.239 1137.93 483.61L1142.67 484Z" fill="#1C0E0C"/>
<path d="M1139.17 497H1139C1138.74 496.977 1138.48 496.903 1138.25 496.782C1138.02 496.661 1137.81 496.494 1137.64 496.293C1137.47 496.091 1137.34 495.858 1137.26 495.607C1137.19 495.356 1137.16 495.092 1137.18 494.83L1142.91 429.3C1142.93 429.037 1143.01 428.782 1143.13 428.548C1143.25 428.314 1143.42 428.107 1143.62 427.937C1143.82 427.768 1144.05 427.64 1144.31 427.56C1144.56 427.481 1144.82 427.452 1145.08 427.475C1145.35 427.498 1145.6 427.573 1145.84 427.694C1146.07 427.816 1146.28 427.983 1146.45 428.185C1146.62 428.387 1146.75 428.62 1146.82 428.871C1146.9 429.123 1146.93 429.387 1146.91 429.65L1141.18 495.18C1141.13 495.68 1140.9 496.145 1140.53 496.483C1140.16 496.82 1139.67 497.005 1139.17 497Z" fill="#1C0E0C"/>
<path d="M522.54 721.87H449.94C449.94 721.87 380.19 660.1 349.71 623.67C345.549 618.661 341.746 613.364 338.33 607.82C324.19 584.89 340.53 555.32 367.47 555.17H368.25C441.94 555.17 522.58 688.66 522.54 721.87Z" fill="#1C0E0C"/>
<path d="M562.57 721.87H511.49C511.49 721.87 462.43 678.42 441 652.78C438.071 649.259 435.397 645.533 433 641.63C430.745 637.964 429.505 633.764 429.407 629.462C429.309 625.159 430.357 620.907 432.443 617.142C434.529 613.378 437.578 610.235 441.278 608.036C444.978 605.838 449.196 604.662 453.5 604.63H454C505.86 604.59 562.6 698.51 562.57 721.87Z" fill="#A5E9C0"/>
<path d="M410.72 485.43C532.92 484.15 575.43 658.78 572.72 721.87H522.54C522.54 688.66 441.94 555.17 368.25 555.17C342.11 555.17 326.71 578.46 334.59 599.55C334.59 599.55 283.94 486.76 410.72 485.43Z" fill="white" stroke="black" stroke-width="6" stroke-linecap="round" stroke-linejoin="round"/>
<path d="M880.19 692.36C890.44 667.8 876.64 639.5 851.08 631.79C732.56 596.04 611.38 721.87 611.38 721.87H533.74C533.74 721.87 643.84 538.56 827.14 565.81C867.27 571.77 920 610.42 880.19 692.36Z" fill="white" stroke="black" stroke-width="6" stroke-linecap="round" stroke-linejoin="round"/>
<path d="M880 692.78C874.49 705.66 867.75 717.72 863 721.87H795.61C795.61 721.87 811.75 716.41 827.33 692.78C846.26 664.09 837.5 628.58 811.55 626.15C824.87 626.56 838.13 627.88 851.11 631.79C876.78 639.55 890.6 668.12 880 692.78Z" fill="#1C0E0C"/>
<path d="M888.67 720H344.27C320.373 720 301 739.373 301 763.27V1307.67C301 1331.57 320.373 1350.94 344.27 1350.94H888.67C912.567 1350.94 931.94 1331.57 931.94 1307.67V763.27C931.94 739.373 912.567 720 888.67 720Z" fill="black" stroke="black" stroke-width="6" stroke-linecap="round" stroke-linejoin="round"/>
<path d="M823.28 719.87H295.92C272.023 719.87 252.65 739.243 252.65 763.14V1307.54C252.65 1331.44 272.023 1350.81 295.92 1350.81H823.28C847.177 1350.81 866.55 1331.44 866.55 1307.54V763.14C866.55 739.243 847.177 719.87 823.28 719.87Z" fill="#A5E9C0" stroke="#070707" stroke-width="6" stroke-linecap="round" stroke-linejoin="round"/>
<path d="M514.64 796.46C509.132 790.949 502.113 787.195 494.471 785.674C486.829 784.153 478.908 784.932 471.709 787.913C464.51 790.894 458.357 795.944 454.028 802.423C449.699 808.901 447.389 816.518 447.39 824.31V939.07H526.18V824.31C526.187 819.136 525.172 814.012 523.191 809.233C521.211 804.453 518.305 800.112 514.64 796.46V796.46ZM486.79 825.46C485.106 825.462 483.46 824.965 482.059 824.031C480.659 823.097 479.566 821.768 478.921 820.214C478.275 818.659 478.105 816.947 478.432 815.296C478.76 813.645 479.569 812.127 480.759 810.936C481.949 809.745 483.465 808.933 485.116 808.604C486.767 808.275 488.479 808.443 490.034 809.087C491.59 809.731 492.92 810.821 493.855 812.221C494.791 813.621 495.29 815.267 495.29 816.95C495.293 818.068 495.075 819.176 494.649 820.211C494.223 821.245 493.598 822.185 492.808 822.977C492.019 823.769 491.081 824.398 490.048 824.828C489.016 825.257 487.908 825.479 486.79 825.48V825.46Z" fill="white"/>
<path d="M509.3 789.12C503.79 783.607 496.768 779.853 489.124 778.333C481.479 776.812 473.555 777.594 466.355 780.579C459.155 783.564 453.002 788.618 448.676 795.101C444.349 801.584 442.043 809.206 442.05 817V931.76H520.84V817C520.851 811.821 519.838 806.691 517.857 801.906C515.876 797.121 512.968 792.776 509.3 789.12ZM481.45 818.12C479.769 818.12 478.126 817.621 476.728 816.688C475.33 815.754 474.24 814.426 473.597 812.873C472.954 811.32 472.785 809.611 473.113 807.962C473.441 806.313 474.251 804.798 475.44 803.61C476.628 802.421 478.143 801.611 479.792 801.283C481.441 800.955 483.15 801.124 484.703 801.767C486.256 802.41 487.584 803.5 488.518 804.898C489.452 806.295 489.95 807.939 489.95 809.62C489.951 810.738 489.733 811.844 489.306 812.877C488.88 813.91 488.254 814.849 487.465 815.64C486.675 816.432 485.738 817.06 484.706 817.488C483.674 817.917 482.568 818.139 481.45 818.14V818.12Z" stroke="#070707" stroke-width="6" stroke-linecap="round" stroke-linejoin="round"/>
<path d="M481.45 806.43V717.9C481.449 715.313 481.957 712.752 482.946 710.362C483.935 707.972 485.385 705.8 487.213 703.971C489.042 702.141 491.213 700.69 493.603 699.7C495.992 698.71 498.553 698.2 501.14 698.2V698.2C506.365 698.2 511.375 700.276 515.07 703.97C518.764 707.664 520.84 712.675 520.84 717.9V719.9" stroke="#070707" stroke-width="6" stroke-linecap="round" stroke-linejoin="round"/>
<path d="M497.46 876.41C496.75 874.764 495.684 873.296 494.34 872.11C493.086 870.962 491.627 870.06 490.04 869.45C488.43 868.84 486.27 868.17 483.57 867.45H483.38V853.81H483.57C484.842 854.17 485.994 854.863 486.909 855.818C487.823 856.772 488.465 857.954 488.77 859.24C489.41 861.56 490.77 862.71 492.93 862.71C493.469 862.717 494.003 862.615 494.501 862.411C495 862.206 495.452 861.903 495.83 861.52C496.21 861.154 496.511 860.714 496.716 860.227C496.921 859.741 497.024 859.218 497.02 858.69C496.984 857.566 496.711 856.462 496.22 855.45C495.651 854.199 494.903 853.037 494 852C492.811 850.588 491.312 849.469 489.62 848.73C487.705 847.947 485.682 847.462 483.62 847.29H483.43V843.14C483.43 842.61 483.219 842.101 482.844 841.726C482.469 841.351 481.96 841.14 481.43 841.14C480.9 841.14 480.391 841.351 480.016 841.726C479.641 842.101 479.43 842.61 479.43 843.14V847.3C474.93 847.693 471.49 849.087 469.11 851.48C467.916 852.694 466.982 854.138 466.364 855.725C465.747 857.312 465.46 859.008 465.52 860.71C465.412 863.195 466.053 865.654 467.36 867.77C468.549 869.582 470.199 871.046 472.14 872.01C474.476 873.145 476.918 874.049 479.43 874.71V889.92C478.149 889.597 476.958 888.984 475.95 888.13C475.109 887.413 474.427 886.527 473.95 885.53C473.363 884.189 472.849 882.817 472.41 881.42C472.179 880.632 471.681 879.949 471 879.49C470.259 879.013 469.391 878.772 468.51 878.8C467.942 878.785 467.377 878.89 466.852 879.107C466.326 879.324 465.852 879.649 465.46 880.06C465.078 880.427 464.772 880.866 464.561 881.352C464.35 881.837 464.237 882.36 464.23 882.89C464.243 884.383 464.552 885.858 465.14 887.23C465.827 888.804 466.785 890.246 467.97 891.49C469.337 892.915 470.958 894.072 472.75 894.9C474.854 895.866 477.105 896.475 479.41 896.7V899.83C479.41 900.36 479.621 900.869 479.996 901.244C480.371 901.619 480.88 901.83 481.41 901.83C481.94 901.83 482.449 901.619 482.824 901.244C483.199 900.869 483.41 900.36 483.41 899.83V896.64H483.6C486.449 896.464 489.216 895.621 491.68 894.18C493.854 892.911 495.638 891.071 496.84 888.86C498.007 886.713 498.609 884.304 498.59 881.86C498.595 879.985 498.21 878.129 497.46 876.41V876.41ZM475 863.81C474.046 862.69 473.53 861.262 473.549 859.791C473.567 858.32 474.118 856.906 475.1 855.81C476.346 854.797 477.795 854.063 479.35 853.66V866.2C477.76 865.69 476.283 864.879 475 863.81V863.81ZM488.64 887.61C487.277 889.031 485.485 889.965 483.54 890.27H483.35V875.89H483.54C485.423 876.407 487.179 877.305 488.7 878.53C489.295 879.091 489.761 879.776 490.063 880.536C490.365 881.296 490.497 882.113 490.45 882.93C490.485 884.662 489.847 886.339 488.67 887.61H488.64Z" fill="#1C0E0C"/>
<path d="M214.4 561.91C231.841 561.91 245.98 547.771 245.98 530.33C245.98 512.889 231.841 498.75 214.4 498.75C196.959 498.75 182.82 512.889 182.82 530.33C182.82 547.771 196.959 561.91 214.4 561.91Z" fill="white" stroke="#070707" stroke-width="6" stroke-linecap="round" stroke-linejoin="round"/>
<path d="M1382.42 1336.69C1399.86 1336.69 1414 1322.55 1414 1305.11C1414 1287.67 1399.86 1273.53 1382.42 1273.53C1364.98 1273.53 1350.84 1287.67 1350.84 1305.11C1350.84 1322.55 1364.98 1336.69 1382.42 1336.69Z" fill="white" stroke="#070707" stroke-width="6" stroke-linecap="round" stroke-linejoin="round"/>
<path d="M1479.64 659.11C1487.01 659.11 1492.98 653.138 1492.98 645.77C1492.98 638.403 1487.01 632.43 1479.64 632.43C1472.27 632.43 1466.3 638.403 1466.3 645.77C1466.3 653.138 1472.27 659.11 1479.64 659.11Z" fill="#74CD97" stroke="#070707" stroke-width="6" stroke-linecap="round" stroke-linejoin="round"/>
<path d="M1427.46 1362.82C1432.99 1362.82 1437.47 1358.34 1437.47 1352.81C1437.47 1347.28 1432.99 1342.8 1427.46 1342.8C1421.93 1342.8 1417.45 1347.28 1417.45 1352.81C1417.45 1358.34 1421.93 1362.82 1427.46 1362.82Z" fill="white" stroke="#070707" stroke-width="6" stroke-linecap="round" stroke-linejoin="round"/>
<path d="M207.9 1048.65C213.428 1048.65 217.91 1044.17 217.91 1038.64C217.91 1033.11 213.428 1028.63 207.9 1028.63C202.372 1028.63 197.89 1033.11 197.89 1038.64C197.89 1044.17 202.372 1048.65 207.9 1048.65Z" fill="#C5DCDD"/>
<path d="M1293.45 1191.88H613V1418.33H1293.45V1191.88Z" fill="black" stroke="#070707" stroke-width="6" stroke-linecap="round" stroke-linejoin="round"/>
<path d="M1166.1 1191.88H529.7V1418.33H1166.1V1191.88Z" fill="#74CD97" stroke="#070707" stroke-width="6" stroke-linecap="round" stroke-linejoin="round"/>
<path d="M1295.7 1127.06H527.96V1207.23H1295.7V1127.06Z" fill="#1C0E0C"/>
<path d="M1321.7 1111.71H584.75V1191.88H1321.7V1111.71Z" fill="white" stroke="#070707" stroke-width="6" stroke-linecap="round" stroke-linejoin="round"/>
<path d="M1192.51 1111.71H503.27V1191.88H1192.51V1111.71Z" fill="white" stroke="#070707" stroke-width="6" stroke-linecap="round" stroke-linejoin="round"/>
<path d="M1213.35 1051.43C1212.88 1056.93 1202.97 1083.15 1202.97 1083.15L696.54 1066V1037.73C696.54 990.35 712.64 949.43 721.17 931.66C734.32 904.22 752.53 911.06 752.53 911.06C752.53 911.06 802.06 959.47 857.61 959.47C868.32 959.47 876 953.8 881.47 945.55C884.751 940.435 887.306 934.888 889.06 929.07C891.373 921.495 893 913.727 893.92 905.86C894.334 902.53 895.546 899.349 897.451 896.587C899.356 893.825 901.899 891.563 904.865 889.993C907.83 888.423 911.131 887.591 914.486 887.568C917.842 887.545 921.153 888.331 924.14 889.86C945.95 901.07 972.43 926.16 1043.3 964.46C1046.86 966.393 1050.53 968.35 1054.3 970.33C1140.56 1015.67 1212.43 998.79 1213.35 1051.43Z" fill="white" stroke="#070707" stroke-width="6" stroke-linecap="round" stroke-linejoin="round"/>
<path d="M1156.4 1108.2C1171.07 1108.2 1188.95 1101.56 1198.56 1090.82C1208.17 1080.08 1216.24 1060.48 1211.73 1039.42H1211.33C1206.49 1065.42 1183.17 1078.17 1165.63 1078.17L726.57 1065.29C712.95 1065.29 701.3 1055.89 696.57 1042.58V1072.07C696.57 1092.07 711.04 1108.2 728.9 1108.2H1156.4Z" fill="white" stroke="#070707" stroke-width="6" stroke-linecap="round" stroke-linejoin="round"/>
<path d="M881.48 945.55C877.63 960.92 852.67 977.29 780.25 955.81C719.94 937.92 696.54 1013.08 696.54 1042.58V1037.72C696.54 990.34 712.64 949.42 721.17 931.65C734.32 904.21 752.53 911.05 752.53 911.05C752.53 911.05 802.06 959.46 857.61 959.46C868.32 959.46 876 953.79 881.47 945.54L881.48 945.55Z" fill="#74CD97" stroke="black" stroke-width="6" stroke-linecap="round" stroke-linejoin="round"/>
<path d="M1062.59 974.55C952.91 937.04 898.02 920.06 889.06 929.06C891.373 921.485 893 913.717 893.92 905.85C894.334 902.52 895.546 899.339 897.451 896.577C899.356 893.815 901.899 891.553 904.865 889.983C907.83 888.413 911.131 887.581 914.486 887.558C917.842 887.535 921.153 888.321 924.14 889.85C946 901.1 982.41 934.44 1062.59 974.55Z" fill="white" stroke="#070707" stroke-width="6" stroke-linecap="round" stroke-linejoin="round"/>
<path d="M950.6 937.06L964.82 915.44C965.649 914.177 966.727 913.095 967.988 912.261C969.249 911.428 970.666 910.859 972.154 910.591C973.641 910.322 975.168 910.359 976.64 910.7C978.113 911.04 979.501 911.676 980.72 912.57V912.57C982.905 914.166 984.434 916.502 985.021 919.144C985.608 921.785 985.213 924.549 983.91 926.92L982.02 930.38" stroke="#070707" stroke-width="6" stroke-linecap="round" stroke-linejoin="round"/>
<path d="M983.21 946.5L993.28 930.72C994.004 929.616 994.946 928.671 996.047 927.942C997.148 927.213 998.386 926.716 999.686 926.482C1000.99 926.247 1002.32 926.279 1003.61 926.576C1004.89 926.873 1006.11 927.429 1007.17 928.21V928.21C1009.08 929.606 1010.41 931.649 1010.92 933.956C1011.43 936.264 1011.09 938.679 1009.95 940.75L1008.29 943.75" stroke="#070707" stroke-width="6" stroke-linecap="round" stroke-linejoin="round"/>
<path d="M1033.23 958.77C1034.43 956.578 1034.8 954.023 1034.26 951.582C1033.72 949.141 1032.31 946.979 1030.29 945.5V945.5C1029.16 944.676 1027.88 944.089 1026.52 943.776C1025.16 943.462 1023.74 943.429 1022.37 943.678C1020.99 943.927 1019.68 944.452 1018.52 945.223C1017.35 945.993 1016.36 946.993 1015.59 948.16L1009.22 956.51" stroke="#070707" stroke-width="6" stroke-linecap="round" stroke-linejoin="round"/>
<path d="M1062.39 974.45C1036.51 979.133 1012.48 991.02 993.05 1008.75C973.623 1026.47 959.589 1049.32 952.56 1074.66L932.35 1073.98C938.767 1047.87 951.672 1023.8 969.87 1004.01C988.068 984.218 1010.97 969.342 1036.45 960.76C1038.69 961.993 1040.97 963.237 1043.3 964.49C1046.86 966.423 1050.53 968.38 1054.3 970.36C1057 971.79 1059.71 973.14 1062.39 974.45Z" fill="#74CD97" stroke="black" stroke-width="6" stroke-linecap="round" stroke-linejoin="round"/>
<path d="M1112.48 993.86V996.51C1086.73 996.539 1061.54 1004.07 1040 1018.19C1018.46 1032.31 1001.5 1052.4 991.2 1076L970.2 1075.28C978.975 1052.09 993.268 1031.38 1011.84 1014.96C1030.41 998.531 1052.71 986.876 1076.8 981C1088.46 985.915 1100.37 990.208 1112.48 993.86V993.86Z" fill="#74CD97" stroke="black" stroke-width="6" stroke-linecap="round" stroke-linejoin="round"/>
</svg>
