<svg width="39" height="39" viewBox="0 0 39 39" fill="none" xmlns="http://www.w3.org/2000/svg">
<circle cx="19.5" cy="19.5" r="18.5" fill="#D8E8DD" stroke="url(#paint0_linear_35_1225)" stroke-width="2"/>
<path d="M20.3208 5.50125C18.9697 5.52865 16.9895 5.30483 16.1576 6.61833C15.7643 7.239 16.2095 7.86596 16.3871 8.475C16.8445 10.0445 17.173 11.6167 17.7843 13.1518C18.227 14.2638 18.4179 15.4085 18.9814 16.4923C19.1269 16.7722 19.384 17.4 19.7805 17.4C20.5906 17.4 21.4974 14.5917 21.7961 13.9535C22.5602 12.3206 23.0807 10.5794 23.604 8.87587C23.8052 8.22059 24.2485 7.44679 23.9492 6.75235C23.4966 5.70235 21.3342 5.48081 20.3208 5.50125Z" fill="url(#paint1_linear_35_1225)"/>
<path d="M13.3547 7.95322C11.6307 7.84658 9.4335 10.4076 8.68136 11.6927C8.40148 12.1713 7.73564 12.9667 8.01862 13.5394C8.34723 14.2048 9.3779 14.6806 9.98922 15.0522C11.9062 16.2175 15.2045 18.1547 17.522 18.0988C18.6113 18.0725 17.869 16.2227 17.6394 15.7018C16.7947 13.7845 15.8025 11.876 15.0088 9.95548C14.6881 9.17959 14.4226 8.01924 13.3547 7.95322Z" fill="url(#paint2_linear_35_1225)"/>
<path d="M26.1205 8.13548C25.4514 8.50039 25.1471 9.53744 24.7898 10.1735C23.8292 11.884 22.8176 13.5463 22.0098 15.3322C21.7247 15.9628 21.015 17.0161 21.3282 17.7556C21.6066 18.4128 22.6837 17.9626 23.1446 17.7665C24.6755 17.1147 25.9684 16.1045 27.4148 15.3038C28.5333 14.6847 30.1035 13.9017 30.5976 12.6171C31.321 10.7363 28.0415 7.08784 26.1205 8.13548Z" fill="url(#paint3_linear_35_1225)"/>
<path d="M31.7089 15.6502C31.2542 15.6394 30.8049 16.0335 30.3528 16.1184C28.2773 16.5085 26.2016 17.4719 24.2503 18.3239C23.7405 18.5465 22.2768 19.0203 22.3003 19.7563C22.3239 20.4945 23.8695 20.858 24.3859 21.0882C26.6256 22.087 29.0951 23.3876 31.5835 23.3492C33.6619 23.3172 33.737 18.5547 33.2564 17.1325C33.0667 16.571 32.3445 15.6653 31.7089 15.6502Z" fill="url(#paint4_linear_35_1225)"/>
<path d="M7.31115 16.0853C6.05893 16.4438 5.87461 18.1168 5.85547 19.1743C5.81317 21.5075 5.941 24.0115 9.04926 23.1907C11.0133 22.6721 13.1704 21.9071 14.9389 20.9274C15.4427 20.6483 16.5366 20.3204 16.6829 19.6848C16.8856 18.8054 15.2306 18.4893 14.6712 18.2158C13.4009 17.5947 12.0997 17.2914 10.7894 16.8026C9.77931 16.4259 8.43326 15.7643 7.31115 16.0853Z" fill="url(#paint5_linear_35_1225)"/>
<path d="M17.2321 20.9111C16.4561 21.0066 15.7216 21.5917 15.0322 21.9115C13.0114 22.849 9.63757 24.123 8.52757 26.1595C7.43723 28.1597 10.5027 31.2558 12.6829 31.0392C13.5574 30.9523 14.18 29.625 14.5197 28.9666C15.5661 26.9387 16.7494 24.9842 17.7696 22.9399C18.0862 22.3055 18.5112 20.7539 17.2321 20.9111Z" fill="url(#paint6_linear_35_1225)"/>
<path d="M21.4513 21.3872C20.7068 21.9972 22.2429 24.911 22.5744 25.5869C23.2821 27.0293 23.9038 28.4913 24.622 29.9261C24.9119 30.5056 25.132 31.3085 25.9087 31.3923C26.9108 31.5002 27.9184 30.4535 28.6255 29.8764C29.4951 29.1668 31.8516 26.8495 31.3238 25.601C30.7427 24.2258 27.8599 23.3877 26.5937 22.7848C25.3622 22.1983 24.2036 21.6938 22.8656 21.4287C22.4728 21.3508 21.8095 21.0936 21.4513 21.3872Z" fill="url(#paint7_linear_35_1225)"/>
<path d="M19.4585 22.369C18.3209 22.8579 17.8178 25.6526 17.4519 26.703C16.9378 28.1792 15.2692 30.7837 15.7294 32.403C15.9262 33.0953 16.8043 33.2996 17.4143 33.452C19.0086 33.8501 21.4201 34.1264 22.9659 33.3891C23.9403 32.9242 23.7399 31.8834 23.5141 31.055C22.9297 28.9101 22.148 26.5575 21.2391 24.5268C20.9551 23.8923 20.5336 21.907 19.4585 22.369Z" fill="url(#paint8_linear_35_1225)"/>
<defs>
<linearGradient id="paint0_linear_35_1225" x1="19.5" y1="2" x2="19.5" y2="37" gradientUnits="userSpaceOnUse">
<stop stop-color="#74CD97"/>
<stop offset="1" stop-color="#35B3CD"/>
</linearGradient>
<linearGradient id="paint1_linear_35_1225" x1="19.675" y1="5.5" x2="19.675" y2="33.85" gradientUnits="userSpaceOnUse">
<stop stop-color="#59D188"/>
<stop offset="1" stop-color="#34B2CE"/>
</linearGradient>
<linearGradient id="paint2_linear_35_1225" x1="19.675" y1="5.5" x2="19.675" y2="33.85" gradientUnits="userSpaceOnUse">
<stop stop-color="#59D188"/>
<stop offset="1" stop-color="#34B2CE"/>
</linearGradient>
<linearGradient id="paint3_linear_35_1225" x1="19.675" y1="5.5" x2="19.675" y2="33.85" gradientUnits="userSpaceOnUse">
<stop stop-color="#59D188"/>
<stop offset="1" stop-color="#34B2CE"/>
</linearGradient>
<linearGradient id="paint4_linear_35_1225" x1="19.675" y1="5.5" x2="19.675" y2="33.85" gradientUnits="userSpaceOnUse">
<stop stop-color="#59D188"/>
<stop offset="1" stop-color="#34B2CE"/>
</linearGradient>
<linearGradient id="paint5_linear_35_1225" x1="19.675" y1="5.5" x2="19.675" y2="33.85" gradientUnits="userSpaceOnUse">
<stop stop-color="#59D188"/>
<stop offset="1" stop-color="#34B2CE"/>
</linearGradient>
<linearGradient id="paint6_linear_35_1225" x1="19.675" y1="5.5" x2="19.675" y2="33.85" gradientUnits="userSpaceOnUse">
<stop stop-color="#59D188"/>
<stop offset="1" stop-color="#34B2CE"/>
</linearGradient>
<linearGradient id="paint7_linear_35_1225" x1="19.675" y1="5.5" x2="19.675" y2="33.85" gradientUnits="userSpaceOnUse">
<stop stop-color="#59D188"/>
<stop offset="1" stop-color="#34B2CE"/>
</linearGradient>
<linearGradient id="paint8_linear_35_1225" x1="19.675" y1="5.5" x2="19.675" y2="33.85" gradientUnits="userSpaceOnUse">
<stop stop-color="#59D188"/>
<stop offset="1" stop-color="#34B2CE"/>
</linearGradient>
</defs>
</svg>
