<svg width="283" height="282" viewBox="0 0 283 282" fill="none" xmlns="http://www.w3.org/2000/svg">
<path d="M126.803 1.36429C74.6753 8.20889 34.0933 44.4349 12.7753 90.9399C9.65834 97.7389 5.23134 104.618 3.48733 111.94C-2.68167 137.839 0.377347 163.001 8.63633 187.94C12.8083 200.539 17.2823 213.234 25.4013 223.94C44.0623 248.547 67.1733 263.924 95.8033 274.158C114.553 280.86 134.933 283.094 154.803 280.654C168.241 279.003 183.214 277.646 195.803 272.486C245.377 252.168 277.849 204.649 281.713 151.94C287.507 72.8979 206.726 -9.1296 126.803 1.36429V1.36429Z" fill="#007F3F"/>
<path d="M130.713 6.42909C109.939 9.35489 88.1663 16.4319 70.8033 28.6729C41.5363 49.3059 19.3353 76.8719 10.3603 111.94C-2.77266 163.259 20.9783 222.836 64.8073 251.871C92.5063 270.22 129.038 277.729 161.803 273.756C235.474 264.821 283.68 193.44 273.492 121.94C264.808 60.9919 194.401 -2.539 130.713 6.42909V6.42909Z" fill="#74CD97"/>
<path d="M138.803 29.3679C117.649 31.8939 99.2413 34.5779 80.8033 46.5839C35.7963 75.8919 15.1653 135.791 36.6773 185.77C47.0313 209.825 65.7493 229.367 88.0883 242.82C110.777 256.484 139.479 256.657 164.803 253.773C181.185 251.908 198.571 240.488 210.933 230.212C234.445 210.667 250.588 184.677 253.519 153.94C259.377 92.5119 204.917 21.4739 138.803 29.3679V29.3679Z" fill="#D4FFAA"/>
<path d="M146.803 35.6849C137.083 35.8899 122.837 34.2149 116.852 44.0449C114.023 48.6899 117.226 53.3819 118.503 57.9399C121.794 69.6859 124.157 81.4519 128.555 92.9399C131.74 101.262 133.113 109.829 137.167 117.94C138.214 120.035 140.063 124.733 142.916 124.733C148.744 124.733 155.267 103.716 157.416 98.9399C162.913 86.7199 166.658 73.6889 170.422 60.9399C171.87 56.0359 175.059 50.2449 172.906 45.0479C169.65 37.1899 154.093 35.5319 146.803 35.6849V35.6849Z" fill="#74CD97"/>
<path d="M96.8023 53.9569C83.9963 53.1589 67.6753 72.3229 62.0883 81.9399C60.0093 85.5209 55.0633 91.4729 57.1653 95.7589C59.6063 100.738 67.2623 104.298 71.8033 107.079C86.0433 115.799 110.543 130.295 127.758 129.877C135.849 129.68 130.335 115.838 128.63 111.94C122.355 97.5929 114.985 83.3109 109.089 68.9399C106.707 63.1339 104.735 54.4509 96.8023 53.9569V53.9569Z" fill="#74CD97"/>
<path d="M191.104 56.9279C186.09 59.6159 183.809 67.2549 181.132 71.9399C173.933 84.5399 166.352 96.7849 160.299 109.94C158.162 114.585 152.844 122.344 155.191 127.791C157.277 132.632 165.349 129.316 168.803 127.871C180.275 123.07 189.964 115.629 200.803 109.731C209.185 105.17 220.952 99.4029 224.655 89.9399C230.076 76.0859 205.5 49.2109 191.104 56.9279V56.9279Z" fill="#74CD97"/>
<path d="M231.803 112.227C228.45 112.149 225.137 114.997 221.803 115.611C206.498 118.43 191.192 125.393 176.803 131.551C173.044 133.16 162.251 136.584 162.424 141.904C162.598 147.239 173.995 149.866 177.803 151.53C194.319 158.749 212.529 168.149 230.878 167.871C246.204 167.64 246.758 133.219 243.214 122.94C241.815 118.882 236.49 112.336 231.803 112.227V112.227Z" fill="#74CD97"/>
<path d="M50.8183 114.513C41.4633 117.232 40.0863 129.92 39.9433 137.94C39.6273 155.635 40.5823 174.626 63.8033 168.401C78.4763 164.468 94.5913 158.666 107.803 151.236C111.567 149.119 119.739 146.632 120.832 141.812C122.346 135.142 109.982 132.745 105.803 130.671C96.3133 125.96 86.5923 123.66 76.8033 119.953C69.2573 117.096 59.2013 112.078 50.8183 114.513V114.513Z" fill="#74CD97"/>
<path d="M123.799 151.791C118.155 152.504 112.813 156.873 107.799 159.261C93.1023 166.261 68.5643 175.774 60.4913 190.98C52.5613 205.915 74.8563 229.033 90.7133 227.416C97.0733 226.767 101.601 216.856 104.072 211.94C111.682 196.798 120.288 182.204 127.708 166.94C130.011 162.203 133.102 150.617 123.799 151.791V151.791Z" fill="#74CD97"/>
<path d="M156.56 154.969C151.168 159.468 162.293 180.956 164.694 185.94C169.819 196.577 174.322 207.359 179.523 217.94C181.623 222.213 183.217 228.134 188.842 228.752C196.099 229.548 203.397 221.829 208.518 217.573C214.816 212.34 231.882 195.251 228.06 186.044C223.851 175.903 202.973 169.722 193.803 165.276C184.884 160.951 176.493 157.23 166.803 155.275C163.958 154.701 159.154 152.804 156.56 154.969V154.969Z" fill="#74CD97"/>
<path d="M139.861 162.076C131.481 165.67 127.775 186.217 125.08 193.94C121.293 204.793 109.001 223.942 112.391 235.847C113.841 240.937 120.309 242.439 124.803 243.559C136.547 246.486 154.311 248.518 165.698 243.097C172.876 239.679 171.4 232.027 169.737 225.936C165.432 210.167 159.673 192.87 152.978 177.94C150.886 173.275 147.781 158.679 139.861 162.076V162.076Z" fill="#74CD97"/>
</svg>
