<svg width="100" height="100" viewBox="0 0 100 100" fill="none" xmlns="http://www.w3.org/2000/svg">
<rect x="1.5" y="1.5" width="97" height="97" rx="48.5" fill="#BFFFCB"/>
<rect x="1.5" y="1.5" width="97" height="97" rx="48.5" stroke="#74CD97" stroke-width="3"/>
<path d="M55.7868 70.976C56.2561 70.5493 56.7254 70.336 57.1948 70.336C57.7068 70.336 58.1121 70.6347 58.4108 71.232C58.7521 71.7867 58.9228 72.4693 58.9228 73.28C58.9228 75.072 58.2828 76.5013 57.0028 77.568C54.7841 79.4027 52.2668 80.32 49.4508 80.32C45.3974 80.32 42.4321 78.6347 40.5548 75.264C38.6774 71.8507 37.7388 67.4133 37.7388 61.952C37.7388 56.7467 38.4001 50.816 39.7228 44.16C41.0881 37.504 43.0721 31.7867 45.6748 27.008C48.3201 22.2293 51.4561 19.84 55.0828 19.84C57.1308 19.84 58.7308 20.8 59.8828 22.72C61.0774 24.5973 61.6748 27.3067 61.6748 30.848C61.6748 35.9253 60.2668 41.8133 57.4508 48.512C54.6774 55.2107 50.8801 61.824 46.0588 68.352C46.3574 70.1013 46.8908 71.36 47.6588 72.128C48.4268 72.896 49.4721 73.28 50.7948 73.28C51.5201 73.28 52.3308 73.0667 53.2268 72.64C54.1654 72.2133 55.0188 71.6587 55.7868 70.976ZM53.6748 26.176C52.6934 26.176 51.5841 27.9467 50.3468 31.488C49.1094 35.0293 48.0214 39.424 47.0828 44.672C46.1441 49.92 45.6321 54.9547 45.5468 59.776C48.5761 54.784 50.9868 49.792 52.7788 44.8C54.5708 39.7653 55.4668 35.1787 55.4668 31.04C55.4668 27.7973 54.8694 26.176 53.6748 26.176Z" fill="#74CD97"/>
</svg>
