<svg width="106" height="106" viewBox="0 0 106 106" fill="none" xmlns="http://www.w3.org/2000/svg">
<circle cx="53" cy="53" r="51.5" fill="#D9F1E1" stroke="#74CD97" stroke-width="3"/>
<path d="M55.3453 13.0036C51.4849 13.0818 45.8271 12.4424 43.4502 16.1952C42.3266 17.9686 43.5987 19.7599 44.1058 21.5C45.4129 25.9844 46.3513 30.4763 48.098 34.8622C49.3629 38.0393 49.9082 41.31 51.5183 44.4066C51.9341 45.2064 52.6684 47 53.8015 47C56.1161 47 58.7067 38.9762 59.5602 37.1528C61.7433 32.4875 63.2307 27.5126 64.7255 22.6453C65.3006 20.7731 66.5671 18.5622 65.7121 16.5782C64.4189 13.5782 58.2405 12.9452 55.3453 13.0036V13.0036Z" fill="#74CD97"/>
<path d="M35.4419 20.0092C30.5162 19.7045 24.2386 27.0216 22.0896 30.6936C21.2899 32.0608 19.3875 34.3334 20.196 35.9699C21.1349 37.8709 24.0797 39.2302 25.8263 40.292C31.3036 43.6214 40.7271 49.1562 47.3486 48.9966C50.4607 48.9214 48.3398 43.6363 47.684 42.148C45.2705 36.6701 42.4357 31.217 40.1679 25.73C39.2517 23.5131 38.4932 20.1978 35.4419 20.0092V20.0092Z" fill="#74CD97"/>
<path d="M71.9157 20.5299C70.0041 21.5726 69.1344 24.5355 68.1138 26.3527C65.3691 31.24 62.4787 35.9895 60.1709 41.0921C59.3562 42.8937 57.3286 45.9033 58.2235 48.016C59.0188 49.8937 62.0963 48.6076 63.4132 48.0471C67.787 46.1849 71.4811 43.2987 75.6136 41.011C78.8093 39.2419 83.2956 37.005 84.7074 33.3345C86.7742 27.9609 77.4044 17.5367 71.9157 20.5299V20.5299Z" fill="#74CD97"/>
<path d="M87.8826 42.0006C86.5834 41.9698 85.2997 43.0956 84.0079 43.3384C78.0779 44.4528 72.1473 47.2054 66.5721 49.6397C65.1157 50.2758 60.9338 51.6294 61.0008 53.7324C61.0682 55.8414 65.4841 56.8799 66.9596 57.5378C73.3589 60.3915 80.4146 64.1075 87.5242 63.9976C93.4624 63.9063 93.6771 50.2991 92.3039 46.2356C91.7619 44.6315 89.6986 42.0437 87.8826 42.0006V42.0006Z" fill="#74CD97"/>
<path d="M18.1747 43.2438C14.5969 44.2681 14.0703 49.048 14.0156 52.0694C13.8948 58.7356 14.26 65.89 23.1407 63.5449C28.7523 62.0632 34.9154 59.8775 39.9683 57.0784C41.4078 56.2808 44.5331 55.3439 44.9512 53.5281C45.5302 51.0153 40.8016 50.1123 39.2034 49.3309C35.574 47.5562 31.8563 46.6897 28.1125 45.2932C25.2266 44.2169 21.3807 42.3264 18.1747 43.2438V43.2438Z" fill="#74CD97"/>
<path d="M46.5203 57.0318C44.3031 57.3046 42.2045 58.9764 40.2348 59.8901C34.4612 62.5686 24.8216 66.2087 21.6502 72.0272C18.5349 77.742 27.2933 86.5879 33.5227 85.9692C36.0212 85.7209 37.7999 81.9285 38.7707 80.0474C41.7602 74.2534 45.141 68.6691 48.0559 62.8284C48.9606 61.0159 50.1749 56.5825 46.5203 57.0318V57.0318Z" fill="#74CD97"/>
<path d="M58.5751 58.3919C56.4479 60.1349 60.8368 68.4601 61.784 70.3911C63.8059 74.5122 65.5824 78.6895 67.6342 82.7889C68.4627 84.4445 69.0915 86.7384 71.3106 86.9779C74.1735 87.2863 77.0527 84.2957 79.0729 82.6468C81.5575 80.6193 88.2902 73.9985 86.7824 70.4314C85.1219 66.5024 76.8854 64.1077 73.2678 62.3851C69.7491 60.7095 66.4388 59.2679 62.6161 58.5104C61.4937 58.288 59.5985 57.5531 58.5751 58.3919V58.3919Z" fill="#74CD97"/>
<path d="M52.8813 61.1972C49.631 62.5939 48.1936 70.5788 47.1483 73.58C45.6795 77.7977 40.912 85.2393 42.2268 89.8657C42.7892 91.8438 45.2979 92.4274 47.0409 92.8627C51.5959 94.0002 58.4859 94.7898 62.9024 92.6832C65.6865 91.3549 65.114 88.3812 64.469 86.0141C62.7992 79.8861 60.5656 73.1642 57.9688 67.3622C57.1575 65.5493 55.9531 59.8771 52.8813 61.1972V61.1972Z" fill="#74CD97"/>
</svg>
