<svg width="290" height="81" viewBox="0 0 290 81" fill="none" xmlns="http://www.w3.org/2000/svg">
<g clip-path="url(#clip0)">
<path d="M196.02 4H173.77C172.249 4 170.954 5.107 170.717 6.609L161.719 63.662C161.541 64.788 162.41 65.808 163.551 65.808H174.967C176.031 65.808 176.94 65.033 177.104 63.981L179.657 47.806C179.893 46.303 181.188 45.197 182.711 45.197H189.752C204.407 45.197 212.865 38.104 215.076 24.046C216.071 17.899 215.116 13.067 212.237 9.686C209.073 5.966 203.464 4 196.02 4ZM198.588 24.837C197.372 32.824 191.273 32.824 185.372 32.824H182.017L184.371 17.912C184.514 17.012 185.291 16.348 186.203 16.348H187.742C191.758 16.348 195.553 16.348 197.508 18.636C198.677 20.004 199.031 22.033 198.588 24.837Z" fill="black" fill-opacity="0.23"/>
<path d="M37.325 4H15.075C13.554 4 12.259 5.107 12.021 6.609L3.023 63.662C2.846 64.788 3.716 65.808 4.856 65.808H15.48C17.001 65.808 18.296 64.701 18.534 63.198L20.962 47.806C21.199 46.303 22.494 45.197 24.015 45.197H31.056C45.712 45.197 54.17 38.104 56.381 24.046C57.376 17.899 56.421 13.067 53.543 9.686C50.376 5.966 44.768 4 37.325 4ZM39.892 24.837C38.676 32.824 32.576 32.824 26.677 32.824H23.32L25.674 17.912C25.817 17.012 26.593 16.348 27.506 16.348H29.045C33.061 16.348 36.855 16.348 38.81 18.636C39.98 20.004 40.334 22.033 39.892 24.837Z" fill="black" fill-opacity="0.23"/>
<path d="M103.828 24.582H93.175C92.263 24.582 91.486 25.246 91.343 26.148L90.874 29.127L90.129 28.049C87.821 24.698 82.679 23.58 77.544 23.58C65.774 23.58 55.718 32.5 53.761 45.012C52.742 51.252 54.188 57.217 57.727 61.379C60.978 65.204 65.618 66.796 71.146 66.796C80.633 66.796 85.896 60.7 85.896 60.7L85.42 63.662C85.241 64.788 86.111 65.808 87.252 65.808H96.847C98.368 65.808 99.662 64.701 99.9 63.199L105.661 26.726C105.837 25.599 104.968 24.582 103.828 24.582ZM88.979 45.32C87.951 51.408 83.118 55.494 76.954 55.494C73.864 55.494 71.39 54.5 69.8 52.619C68.224 50.753 67.631 48.096 68.131 45.136C69.09 39.103 74.001 34.884 80.071 34.884C83.096 34.884 85.553 35.888 87.174 37.786C88.806 39.699 89.447 42.374 88.979 45.32Z" fill="black" fill-opacity="0.23"/>
<path d="M262.524 24.582H251.871C250.958 24.582 250.181 25.246 250.039 26.148L249.569 29.127L248.825 28.049C246.516 24.698 241.375 23.58 236.24 23.58C224.469 23.58 214.414 32.5 212.458 45.012C211.438 51.252 212.886 57.217 216.424 61.379C219.675 65.204 224.316 66.796 229.843 66.796C239.33 66.796 244.593 60.7 244.593 60.7L244.117 63.662C243.938 64.788 244.807 65.808 245.949 65.808H255.544C257.065 65.808 258.358 64.701 258.597 63.199L264.357 26.726C264.535 25.599 263.664 24.582 262.524 24.582ZM247.677 45.32C246.648 51.408 241.816 55.494 235.652 55.494C232.56 55.494 230.088 54.5 228.497 52.619C226.922 50.753 226.328 48.096 226.828 45.136C227.788 39.103 232.697 34.884 238.767 34.884C241.791 34.884 244.248 35.888 245.871 37.786C247.501 39.699 248.143 42.374 247.677 45.32Z" fill="black" fill-opacity="0.23"/>
<path d="M160.574 24.582H149.865C148.841 24.582 147.884 25.091 147.307 25.937L132.535 47.694L126.274 26.788C125.881 25.479 124.678 24.582 123.313 24.582H112.786C111.515 24.582 110.621 25.832 111.03 27.036L122.822 61.648L111.731 77.296C110.86 78.525 111.739 80.224 113.245 80.224H123.942C124.957 80.224 125.906 79.727 126.483 78.894L162.098 27.494C162.95 26.264 162.069 24.582 160.574 24.582Z" fill="black" fill-opacity="0.23"/>
<path d="M275.082 5.567L265.949 63.664C265.772 64.79 266.641 65.809 267.781 65.809H276.966C278.487 65.809 279.782 64.702 280.021 63.2L289.025 6.147C289.203 5.021 288.334 4.002 287.193 4.002H276.915C276.001 4 275.224 4.665 275.082 5.567Z" fill="black" fill-opacity="0.23"/>
</g>
<g clip-path="url(#clip1)">
<path d="M193.02 0H170.77C169.249 0 167.954 1.107 167.717 2.609L158.719 59.662C158.541 60.788 159.41 61.808 160.551 61.808H171.967C173.031 61.808 173.94 61.033 174.104 59.981L176.657 43.806C176.893 42.303 178.188 41.197 179.711 41.197H186.752C201.407 41.197 209.865 34.104 212.076 20.046C213.071 13.899 212.116 9.067 209.237 5.686C206.073 1.966 200.464 0 193.02 0ZM195.588 20.837C194.372 28.824 188.273 28.824 182.372 28.824H179.017L181.371 13.912C181.514 13.012 182.291 12.348 183.203 12.348H184.742C188.758 12.348 192.553 12.348 194.508 14.636C195.677 16.004 196.031 18.033 195.588 20.837Z" fill="black"/>
<path d="M34.325 0H12.075C10.554 0 9.259 1.107 9.021 2.609L0.0229958 59.662C-0.154004 60.788 0.715996 61.808 1.856 61.808H12.48C14.001 61.808 15.296 60.701 15.534 59.198L17.962 43.806C18.199 42.303 19.494 41.197 21.015 41.197H28.056C42.712 41.197 51.17 34.104 53.381 20.046C54.376 13.899 53.421 9.067 50.543 5.686C47.376 1.966 41.768 0 34.325 0ZM36.892 20.837C35.676 28.824 29.576 28.824 23.677 28.824H20.32L22.674 13.912C22.817 13.012 23.593 12.348 24.506 12.348H26.045C30.061 12.348 33.855 12.348 35.81 14.636C36.98 16.004 37.334 18.033 36.892 20.837Z" fill="black"/>
<path d="M100.828 20.582H90.175C89.263 20.582 88.486 21.246 88.343 22.148L87.874 25.127L87.129 24.049C84.821 20.698 79.679 19.58 74.544 19.58C62.774 19.58 52.718 28.5 50.761 41.012C49.742 47.252 51.188 53.217 54.727 57.379C57.978 61.204 62.618 62.796 68.146 62.796C77.633 62.796 82.896 56.7 82.896 56.7L82.42 59.662C82.241 60.788 83.111 61.808 84.252 61.808H93.847C95.368 61.808 96.662 60.701 96.9 59.199L102.661 22.726C102.837 21.599 101.968 20.582 100.828 20.582ZM85.979 41.32C84.951 47.408 80.118 51.494 73.954 51.494C70.864 51.494 68.39 50.5 66.8 48.619C65.224 46.753 64.631 44.096 65.131 41.136C66.09 35.103 71.001 30.884 77.071 30.884C80.096 30.884 82.553 31.888 84.174 33.786C85.806 35.699 86.447 38.374 85.979 41.32Z" fill="black"/>
<path d="M259.524 20.582H248.871C247.958 20.582 247.181 21.246 247.039 22.148L246.569 25.127L245.825 24.049C243.516 20.698 238.375 19.58 233.24 19.58C221.469 19.58 211.414 28.5 209.458 41.012C208.438 47.252 209.886 53.217 213.424 57.379C216.675 61.204 221.316 62.796 226.843 62.796C236.33 62.796 241.593 56.7 241.593 56.7L241.117 59.662C240.938 60.788 241.807 61.808 242.949 61.808H252.544C254.065 61.808 255.358 60.701 255.597 59.199L261.357 22.726C261.535 21.599 260.664 20.582 259.524 20.582ZM244.677 41.32C243.648 47.408 238.816 51.494 232.652 51.494C229.56 51.494 227.088 50.5 225.497 48.619C223.922 46.753 223.328 44.096 223.828 41.136C224.788 35.103 229.697 30.884 235.767 30.884C238.791 30.884 241.248 31.888 242.871 33.786C244.501 35.699 245.143 38.374 244.677 41.32Z" fill="black"/>
<path d="M157.574 20.582H146.865C145.841 20.582 144.884 21.091 144.307 21.937L129.535 43.694L123.274 22.788C122.881 21.479 121.678 20.582 120.313 20.582H109.786C108.515 20.582 107.621 21.832 108.03 23.036L119.822 57.648L108.731 73.296C107.86 74.525 108.739 76.224 110.245 76.224H120.942C121.957 76.224 122.906 75.727 123.483 74.894L159.098 23.494C159.95 22.264 159.069 20.582 157.574 20.582Z" fill="black"/>
<path d="M272.082 1.567L262.949 59.664C262.772 60.79 263.641 61.809 264.781 61.809H273.966C275.487 61.809 276.782 60.702 277.021 59.2L286.025 2.147C286.203 1.021 285.334 0.00199959 284.193 0.00199959H273.915C273.001 -4.14206e-07 272.224 0.665 272.082 1.567Z" fill="black"/>
</g>
<defs>
<clipPath id="clip0">
<rect width="286.048" height="76.225" fill="white" transform="translate(3 4)"/>
</clipPath>
<clipPath id="clip1">
<rect width="286.048" height="76.225" fill="white"/>
</clipPath>
</defs>
</svg>
