<svg width="18" height="18" viewBox="0 0 18 18" fill="none" xmlns="http://www.w3.org/2000/svg">
<path d="M4.00739 9.00006C4.00739 8.58585 4.34317 8.25006 4.75739 8.25006H8.25V4.75742C8.25 4.3432 8.58579 4.00742 9 4.00742C9.41421 4.00742 9.75 4.3432 9.75 4.75742V8.25006H13.2427C13.6569 8.25006 13.9927 8.58585 13.9927 9.00006C13.9927 9.41427 13.6569 9.75006 13.2427 9.75006H9.75V13.2427C9.75 13.6569 9.41421 13.9927 9 13.9927C8.58579 13.9927 8.25 13.6569 8.25 13.2427V9.75006H4.75739C4.34317 9.75006 4.00739 9.41427 4.00739 9.00006Z" fill="white"/>
<path fill-rule="evenodd" clip-rule="evenodd" d="M4.31673 0.768819C7.40429 0.42374 10.5957 0.42374 13.6832 0.768819C15.5096 0.972944 16.9845 2.41159 17.1994 4.24855C17.5686 7.40547 17.5686 10.5947 17.1994 13.7516C16.9845 15.5885 15.5096 17.0272 13.6832 17.2313C10.5957 17.5764 7.40429 17.5764 4.31673 17.2313C2.49035 17.0272 1.01545 15.5885 0.800605 13.7516C0.431374 10.5947 0.431374 7.40547 0.800605 4.24855C1.01545 2.41159 2.49035 0.972944 4.31673 0.768819ZM13.5166 2.25954C10.5398 1.92683 7.46017 1.92683 4.48334 2.25954C3.33891 2.38744 2.42286 3.29069 2.29045 4.4228C1.93476 7.46395 1.93476 10.5362 2.29045 13.5773C2.42286 14.7094 3.33891 15.6127 4.48334 15.7406C7.46017 16.0733 10.5398 16.0733 13.5166 15.7406C14.6611 15.6127 15.5771 14.7094 15.7095 13.5773C16.0652 10.5362 16.0652 7.46395 15.7095 4.4228C15.5771 3.29069 14.6611 2.38744 13.5166 2.25954Z" fill="white"/>
</svg>
