<svg width="216" height="212" viewBox="0 0 216 212" fill="none" xmlns="http://www.w3.org/2000/svg">
<path d="M194.56 20.62H42.25C32.5243 20.62 24.64 28.5043 24.64 38.23V190.54C24.64 200.266 32.5243 208.15 42.25 208.15H194.56C204.286 208.15 212.17 200.266 212.17 190.54V38.23C212.17 28.5043 204.286 20.62 194.56 20.62Z" fill="#A5E9C0" stroke="black" stroke-width="6" stroke-linecap="round" stroke-linejoin="round"/>
<path d="M173.58 3.92999H21.27C11.5443 3.92999 3.66 11.8143 3.66 21.54V173.85C3.66 183.576 11.5443 191.46 21.27 191.46H173.58C183.306 191.46 191.19 183.576 191.19 173.85V21.54C191.19 11.8143 183.306 3.92999 173.58 3.92999Z" fill="white" stroke="#070707" stroke-width="6" stroke-linecap="round" stroke-linejoin="round"/>
<path d="M83.0912 56.6623L95.9316 52.9366C100.575 51.5894 105.563 52.1419 109.799 54.4726C114.036 56.8033 117.172 60.7213 118.519 65.3647L140.04 139.536L92.1934 153.418L70.6728 79.2473C69.326 74.6056 69.8776 69.619 72.2063 65.3839C74.535 61.1487 78.4502 58.0116 83.0912 56.6623V56.6623Z" fill="#BFFFCB" stroke="black" stroke-width="6" stroke-linecap="round" stroke-linejoin="round"/>
<path d="M78.11 54.7H91.85C96.8149 54.7 101.576 56.6723 105.087 60.183C108.598 63.6937 110.57 68.4552 110.57 73.42V154.84H59.39V73.42C59.39 70.9617 59.8742 68.5274 60.815 66.2562C61.7557 63.985 63.1346 61.9213 64.873 60.183C66.6113 58.4447 68.675 57.0658 70.9462 56.125C73.2174 55.1842 75.6517 54.7 78.11 54.7V54.7Z" fill="#74CD97" stroke="#070707" stroke-width="6" stroke-linecap="round" stroke-linejoin="round"/>
<path d="M85.85 81.05C88.8986 81.05 91.37 78.5786 91.37 75.53C91.37 72.4814 88.8986 70.01 85.85 70.01C82.8014 70.01 80.33 72.4814 80.33 75.53C80.33 78.5786 82.8014 81.05 85.85 81.05Z" fill="#F4F1ED" stroke="#070707" stroke-width="6" stroke-linecap="round" stroke-linejoin="round"/>
<path d="M85.85 73.44V31.67" stroke="#070707" stroke-width="6" stroke-linecap="round" stroke-linejoin="round"/>
<path d="M87.23 127.9C88.4962 127.709 89.6636 127.104 90.55 126.18C91.3023 125.363 91.7168 124.291 91.71 123.18C91.7425 122.65 91.6581 122.119 91.4628 121.624C91.2676 121.13 90.9662 120.685 90.58 120.32C89.5899 119.53 88.4505 118.949 87.23 118.61L84.53 117.83C82.8894 117.401 81.2951 116.812 79.77 116.07C78.5094 115.443 77.4366 114.494 76.66 113.32C75.7149 111.658 75.3165 109.742 75.5211 107.841C75.7257 105.94 76.523 104.152 77.8 102.73C79.6467 101.049 82.0339 100.084 84.53 100.01H87.23C88.5699 100.125 89.8847 100.442 91.13 100.95C92.2294 101.425 93.2021 102.151 93.97 103.07C94.5689 103.736 95.0644 104.487 95.44 105.3C95.7646 105.958 95.9453 106.677 95.97 107.41C95.9729 107.754 95.9052 108.094 95.771 108.411C95.6369 108.728 95.4391 109.013 95.19 109.25C94.9465 109.501 94.6538 109.699 94.3303 109.831C94.0068 109.964 93.6595 110.028 93.31 110.02C92.6622 110.042 92.0291 109.825 91.5312 109.41C91.0333 108.995 90.7054 108.411 90.61 107.77C90.4114 106.934 89.9936 106.166 89.3994 105.546C88.8053 104.925 88.0564 104.475 87.23 104.24L84.53 104.16C83.5114 104.424 82.5604 104.901 81.74 105.56C81.1172 106.276 80.7692 107.19 80.7582 108.139C80.7472 109.088 81.0739 110.01 81.68 110.74C82.5228 111.436 83.4899 111.965 84.53 112.3L87.23 113.09C88.99 113.57 90.39 114.01 91.43 114.4C92.4626 114.792 93.4099 115.379 94.22 116.13C95.0851 116.9 95.7682 117.853 96.22 118.92C96.7084 120.043 96.9537 121.256 96.94 122.48C96.9485 124.065 96.5563 125.627 95.8 127.02C95.0169 128.453 93.8589 129.645 92.45 130.47C90.8496 131.408 89.0512 131.956 87.2 132.07H84.5C82.9937 131.932 81.5223 131.536 80.15 130.9C78.9853 130.363 77.9333 129.61 77.05 128.68C76.2786 127.876 75.6556 126.941 75.21 125.92C74.8245 125.029 74.6205 124.071 74.61 123.1C74.6143 122.756 74.6872 122.415 74.8246 122.099C74.962 121.783 75.161 121.498 75.41 121.26C75.6685 120.992 75.9798 120.781 76.324 120.64C76.6683 120.499 77.0381 120.431 77.41 120.44C77.9801 120.421 78.5422 120.578 79.02 120.89C79.4599 121.19 79.7845 121.631 79.94 122.14C80.2211 123.049 80.555 123.94 80.94 124.81C81.2433 125.457 81.6794 126.033 82.22 126.5C82.8865 127.056 83.669 127.456 84.51 127.67L87.23 127.9Z" fill="#070707"/>
<path d="M85.8 135.86C85.342 135.857 84.9035 135.674 84.5796 135.35C84.2557 135.026 84.0726 134.588 84.07 134.13V97.3C84.1032 96.8626 84.3004 96.4539 84.6222 96.1557C84.9439 95.8575 85.3663 95.6918 85.805 95.6918C86.2437 95.6918 86.6661 95.8575 86.9878 96.1557C87.3096 96.4539 87.5068 96.8626 87.54 97.3V134.13C87.5374 134.59 87.3529 135.03 87.0268 135.354C86.7008 135.678 86.2598 135.86 85.8 135.86Z" fill="#070707"/>
</svg>
