<?xml version="1.0" standalone="no"?><svg xmlns:xlink="http://www.w3.org/1999/xlink" xmlns="http://www.w3.org/2000/svg" viewBox="0 0 1080 432" preserveAspectRatio="xMaxYMax slice"><g transform="scale(0.7152317880794702)"><rect x="0" y="0" width="1510" height="604" fill="#f5faf6"/><rect x="0" y="0" width="75.5" height="75.5" fill="#eaf7ec"/><path d="M 0 75.5 A 75.5 75.5 0 0 0 75.5 0 L 0 0" fill="#f2f9f3"/><rect x="75.5" y="0" width="75.5" height="75.5" fill="#e7f7ea"/><path d="M 75.5 0 A 75.5 75.5 0 0 0 151 75.5 L 151 0" fill="#e6f7e9"/><rect x="151" y="0" width="75.5" height="75.5" fill="#e5f6e7"/><path d="M 151 75.5 A 75.5 75.5 0 0 1  226.5 0 L 226.5 75.5" fill="#eaf7ed"/><rect x="226.5" y="0" width="75.5" height="75.5" fill="#ebf8ed"/><path d="M 226.5 75.5 A 75.5 75.5 0 0 0 302 0 L 226.5 0" fill="#ecf8ee"/><rect x="302" y="0" width="75.5" height="75.5" fill="#ebf8ed"/><path d="M 302 0 A 75.5 75.5 0 0 1  377.5 75.5 L 302 0 A 75.5 75.5 0 0 0 377.5 75.5" fill="#e7f7e9"/><rect x="377.5" y="0" width="75.5" height="75.5" fill="#ecf8ee"/><path d="M 377.5 0 A 75.5 75.5 0 0 1  453 75.5 L 377.5 0 A 75.5 75.5 0 0 0 453 75.5" fill="#eff9f0"/><rect x="453" y="0" width="75.5" height="75.5" fill="#e6f6e9"/><path d="M 453 75.5 A 75.5 75.5 0 0 1  528.5 0 L 453 75.5 A 75.5 75.5 0 0 0 528.5 0" fill="#f3faf4"/><rect x="528.5" y="0" width="75.5" height="75.5" fill="#f0f9f2"/><path d="M 528.5 0 A 75.5 75.5 0 0 1  604 75.5 L 528.5 0 A 75.5 75.5 0 0 0 604 75.5" fill="#f1f9f3"/><rect x="604" y="0" width="75.5" height="75.5" fill="#e7f7ea"/><path d="M 604 0 A 75.5 75.5 0 0 0 679.5 75.5 L 679.5 0" fill="#ecf8ee"/><rect x="679.5" y="0" width="75.5" height="75.5" fill="#f3f9f4"/><path d="M 679.5 0 A 75.5 75.5 0 0 0 755 75.5 L 755 0" fill="#eef8f0"/><rect x="755" y="0" width="75.5" height="75.5" fill="#edf8ef"/><path d="M 755 75.5 A 75.5 75.5 0 0 1  830.5 0 L 755 75.5 A 75.5 75.5 0 0 0 830.5 0" fill="#eff9f0"/><rect x="830.5" y="0" width="75.5" height="75.5" fill="#e8f7eb"/><path d="M 830.5 75.5 A 75.5 75.5 0 0 1  906 0 L 830.5 75.5 A 75.5 75.5 0 0 0 906 0" fill="#f3f9f4"/><rect x="906" y="0" width="75.5" height="75.5" fill="#f0f9f1"/><path d="M 906 75.5 A 75.5 75.5 0 0 1  981.5 0 L 906 75.5 A 75.5 75.5 0 0 0 981.5 0" fill="#ecf8ee"/><rect x="981.5" y="0" width="75.5" height="75.5" fill="#eaf7ed"/><path d="M 981.5 0 A 75.5 75.5 0 0 1  1057 75.5 L 981.5 0 A 75.5 75.5 0 0 0 1057 75.5" fill="#ecf8ee"/><rect x="1057" y="0" width="75.5" height="75.5" fill="#e8f7eb"/><path d="M 1057 0 A 75.5 75.5 0 0 1 1132.5 75.5 L 1057 75.5" fill="#eff9f1"/><rect x="1132.5" y="0" width="75.5" height="75.5" fill="#e9f7eb"/><path d="M 1132.5 75.5 A 75.5 75.5 0 0 1  1208 0 L 1132.5 75.5 A 75.5 75.5 0 0 0 1208 0" fill="#f1f9f3"/><rect x="1208" y="0" width="75.5" height="75.5" fill="#e7f7ea"/><path d="M 1208 0 A 75.5 75.5 0 0 1 1283.5 75.5 L 1208 75.5" fill="#eff9f1"/><rect x="1283.5" y="0" width="75.5" height="75.5" fill="#e7f7ea"/><path d="M 1283.5 75.5 A 75.5 75.5 0 0 1  1359 0 L 1283.5 75.5 A 75.5 75.5 0 0 0 1359 0" fill="#edf8ef"/><rect x="1359" y="0" width="75.5" height="75.5" fill="#e5f6e8"/><path d="M 1359 0 A 75.5 75.5 0 0 1  1434.5 75.5 L 1359 0 A 75.5 75.5 0 0 0 1434.5 75.5" fill="#f2f9f3"/><rect x="1434.5" y="0" width="75.5" height="75.5" fill="#f0f9f2"/><path d="M 1434.5 75.5 A 75.5 75.5 0 0 1  1510 0 L 1434.5 75.5 A 75.5 75.5 0 0 0 1510 0" fill="#e5f6e8"/><rect x="0" y="75.5" width="75.5" height="75.5" fill="#f0f9f2"/><path d="M 0 151 A 75.5 75.5 0 0 1  75.5 75.5 L 0 151 A 75.5 75.5 0 0 0 75.5 75.5" fill="#f5faf6"/><rect x="75.5" y="75.5" width="75.5" height="75.5" fill="#e7f7ea"/><path d="M 75.5 151 A 75.5 75.5 0 0 1  151 75.5 L 151 151" fill="#f2f9f3"/><rect x="151" y="75.5" width="75.5" height="75.5" fill="#f1f9f3"/><path d="M 151 75.5 A 75.5 75.5 0 0 0 226.5 151 L 226.5 75.5" fill="#f4faf5"/><rect x="226.5" y="75.5" width="75.5" height="75.5" fill="#eaf7ed"/><path d="M 226.5 151 A 75.5 75.5 0 0 1  302 75.5 L 226.5 151 A 75.5 75.5 0 0 0 302 75.5" fill="#e8f7ea"/><rect x="302" y="75.5" width="75.5" height="75.5" fill="#eef8f0"/><path d="M 302 151 A 75.5 75.5 0 0 1  377.5 75.5 L 302 151 A 75.5 75.5 0 0 0 377.5 75.5" fill="#ebf8ed"/><rect x="377.5" y="75.5" width="75.5" height="75.5" fill="#e9f7eb"/><path d="M 377.5 75.5 A 75.5 75.5 0 0 1  453 151 L 377.5 75.5 A 75.5 75.5 0 0 0 453 151" fill="#f3f9f4"/><rect x="453" y="75.5" width="75.5" height="75.5" fill="#f1f9f3"/><path d="M 453 75.5 A 75.5 75.5 0 0 1  528.5 151 L 453 75.5 A 75.5 75.5 0 0 0 528.5 151" fill="#eef8f0"/><rect x="528.5" y="75.5" width="75.5" height="75.5" fill="#f2f9f3"/><path d="M 528.5 151 A 75.5 75.5 0 0 1  604 75.5 L 528.5 151 A 75.5 75.5 0 0 0 604 75.5" fill="#f3faf5"/><rect x="604" y="75.5" width="75.5" height="75.5" fill="#e8f7eb"/><path d="M 604 151 A 75.5 75.5 0 0 1  679.5 75.5 L 604 151 A 75.5 75.5 0 0 0 679.5 75.5" fill="#eef8ef"/><rect x="679.5" y="75.5" width="75.5" height="75.5" fill="#eaf7ec"/><path d="M 679.5 75.5 A 75.5 75.5 0 0 1 755 151 L 679.5 151" fill="#eaf7ec"/><rect x="755" y="75.5" width="75.5" height="75.5" fill="#f5faf6"/><path d="M 755 151 A 75.5 75.5 0 0 1  830.5 75.5 L 755 151 A 75.5 75.5 0 0 0 830.5 75.5" fill="#e8f7eb"/><rect x="830.5" y="75.5" width="75.5" height="75.5" fill="#f3f9f4"/><path d="M 830.5 75.5 A 75.5 75.5 0 0 1  906 151 L 830.5 75.5 A 75.5 75.5 0 0 0 906 151" fill="#e8f7eb"/><rect x="906" y="75.5" width="75.5" height="75.5" fill="#eaf7ec"/><path d="M 906 75.5 A 75.5 75.5 0 0 1  981.5 151 L 906 75.5 A 75.5 75.5 0 0 0 981.5 151" fill="#e7f7ea"/><rect x="981.5" y="75.5" width="75.5" height="75.5" fill="#e8f7eb"/><path d="M 981.5 75.5 A 75.5 75.5 0 0 1  1057 151 L 981.5 75.5 A 75.5 75.5 0 0 0 1057 151" fill="#eef8f0"/><rect x="1057" y="75.5" width="75.5" height="75.5" fill="#f5faf6"/><path d="M 1057 151 A 75.5 75.5 0 0 0 1132.5 75.5 L 1057 75.5" fill="#e4f6e7"/><rect x="1132.5" y="75.5" width="75.5" height="75.5" fill="#f1f9f2"/><path d="M 1132.5 75.5 A 75.5 75.5 0 0 0 1208 151 L 1208 75.5" fill="#ebf8ed"/><rect x="1208" y="75.5" width="75.5" height="75.5" fill="#f4faf5"/><path d="M 1208 75.5 A 75.5 75.5 0 0 1  1283.5 151 L 1208 75.5 A 75.5 75.5 0 0 0 1283.5 151" fill="#ebf8ed"/><rect x="1283.5" y="75.5" width="75.5" height="75.5" fill="#ebf8ed"/><path d="M 1283.5 75.5 A 75.5 75.5 0 0 1  1359 151 L 1283.5 75.5 A 75.5 75.5 0 0 0 1359 151" fill="#e9f7eb"/><rect x="1359" y="75.5" width="75.5" height="75.5" fill="#f5faf6"/><path d="M 1359 151 A 75.5 75.5 0 0 1  1434.5 75.5 L 1359 151 A 75.5 75.5 0 0 0 1434.5 75.5" fill="#ecf8ee"/><rect x="1434.5" y="75.5" width="75.5" height="75.5" fill="#f3faf4"/><path d="M 1434.5 151 A 75.5 75.5 0 0 1  1510 75.5 L 1434.5 151 A 75.5 75.5 0 0 0 1510 75.5" fill="#eef8f0"/><rect x="0" y="151" width="75.5" height="75.5" fill="#e7f7ea"/><path d="M 0 151 A 75.5 75.5 0 0 1  75.5 226.5 L 0 151 A 75.5 75.5 0 0 0 75.5 226.5" fill="#f0f9f2"/><rect x="75.5" y="151" width="75.5" height="75.5" fill="#e9f7eb"/><path d="M 75.5 226.5 A 75.5 75.5 0 0 1  151 151 L 75.5 226.5 A 75.5 75.5 0 0 0 151 151" fill="#ecf8ee"/><rect x="151" y="151" width="75.5" height="75.5" fill="#ecf8ee"/><path d="M 151 226.5 A 75.5 75.5 0 0 1  226.5 151 L 151 226.5 A 75.5 75.5 0 0 0 226.5 151" fill="#f1f9f2"/><rect x="226.5" y="151" width="75.5" height="75.5" fill="#edf8ef"/><path d="M 226.5 226.5 A 75.5 75.5 0 0 1  302 151 L 302 226.5" fill="#ecf8ee"/><rect x="302" y="151" width="75.5" height="75.5" fill="#f3f9f4"/><path d="M 302 151 A 75.5 75.5 0 0 1  377.5 226.5 L 302 151 A 75.5 75.5 0 0 0 377.5 226.5" fill="#f3faf5"/><rect x="377.5" y="151" width="75.5" height="75.5" fill="#eaf8ed"/><path d="M 377.5 226.5 A 75.5 75.5 0 0 1  453 151 L 377.5 226.5 A 75.5 75.5 0 0 0 453 151" fill="#eaf7ec"/><rect x="453" y="151" width="75.5" height="75.5" fill="#e7f7ea"/><path d="M 453 226.5 A 75.5 75.5 0 0 1  528.5 151 L 453 226.5 A 75.5 75.5 0 0 0 528.5 151" fill="#ecf8ee"/><rect x="528.5" y="151" width="75.5" height="75.5" fill="#f4faf5"/><path d="M 528.5 226.5 A 75.5 75.5 0 0 0 604 151 L 528.5 151" fill="#e9f7ec"/><rect x="604" y="151" width="75.5" height="75.5" fill="#eff9f1"/><path d="M 604 226.5 A 75.5 75.5 0 0 1  679.5 151 L 604 226.5 A 75.5 75.5 0 0 0 679.5 151" fill="#eef8f0"/><rect x="679.5" y="151" width="75.5" height="75.5" fill="#edf8ef"/><path d="M 679.5 226.5 A 75.5 75.5 0 0 1  755 151 L 679.5 226.5 A 75.5 75.5 0 0 0 755 151" fill="#f3f9f4"/><rect x="755" y="151" width="75.5" height="75.5" fill="#e8f7eb"/><path d="M 755 151 A 75.5 75.5 0 0 1  830.5 226.5 L 755 151 A 75.5 75.5 0 0 0 830.5 226.5" fill="#ecf8ee"/><rect x="830.5" y="151" width="75.5" height="75.5" fill="#eaf7ec"/><path d="M 830.5 226.5 A 75.5 75.5 0 0 1  906 151 L 830.5 226.5 A 75.5 75.5 0 0 0 906 151" fill="#eff9f1"/><rect x="906" y="151" width="75.5" height="75.5" fill="#edf8ef"/><path d="M 906 151 A 75.5 75.5 0 0 0 981.5 226.5 L 981.5 151" fill="#e6f7e9"/><rect x="981.5" y="151" width="75.5" height="75.5" fill="#f4faf5"/><path d="M 981.5 226.5 A 75.5 75.5 0 0 1  1057 151 L 981.5 226.5 A 75.5 75.5 0 0 0 1057 151" fill="#f5faf6"/><rect x="1057" y="151" width="75.5" height="75.5" fill="#f4faf5"/><path d="M 1057 226.5 A 75.5 75.5 0 0 1  1132.5 151 L 1057 226.5 A 75.5 75.5 0 0 0 1132.5 151" fill="#ebf8ed"/><rect x="1132.5" y="151" width="75.5" height="75.5" fill="#ecf8ee"/><path d="M 1132.5 151 A 75.5 75.5 0 0 1  1208 226.5 L 1132.5 151 A 75.5 75.5 0 0 0 1208 226.5" fill="#e8f7ea"/><rect x="1208" y="151" width="75.5" height="75.5" fill="#eff9f1"/><path d="M 1208 226.5 A 75.5 75.5 0 0 1  1283.5 151 L 1208 226.5 A 75.5 75.5 0 0 0 1283.5 151" fill="#edf8ef"/><rect x="1283.5" y="151" width="75.5" height="75.5" fill="#f3faf4"/><path d="M 1283.5 151 A 75.5 75.5 0 0 1  1359 226.5 L 1283.5 151 A 75.5 75.5 0 0 0 1359 226.5" fill="#f4faf6"/><rect x="1359" y="151" width="75.5" height="75.5" fill="#ebf8ed"/><path d="M 1359 226.5 A 75.5 75.5 0 0 1  1434.5 151 L 1359 226.5 A 75.5 75.5 0 0 0 1434.5 151" fill="#f3f9f4"/><rect x="1434.5" y="151" width="75.5" height="75.5" fill="#eaf7ec"/><path d="M 1434.5 226.5 A 75.5 75.5 0 0 1  1510 151 L 1434.5 226.5 A 75.5 75.5 0 0 0 1510 151" fill="#f0f9f2"/><rect x="0" y="226.5" width="75.5" height="75.5" fill="#e6f6e9"/><path d="M 0 302 A 75.5 75.5 0 0 1  75.5 226.5 L 0 302 A 75.5 75.5 0 0 0 75.5 226.5" fill="#eaf8ed"/><rect x="75.5" y="226.5" width="75.5" height="75.5" fill="#eef8f0"/><path d="M 75.5 226.5 A 75.5 75.5 0 0 1  151 302 L 75.5 226.5 A 75.5 75.5 0 0 0 151 302" fill="#e8f7eb"/><rect x="151" y="226.5" width="75.5" height="75.5" fill="#ecf8ee"/><path d="M 151 226.5 A 75.5 75.5 0 0 1  226.5 302 L 151 226.5 A 75.5 75.5 0 0 0 226.5 302" fill="#ecf8ee"/><rect x="226.5" y="226.5" width="75.5" height="75.5" fill="#ecf8ee"/><path d="M 226.5 302 A 75.5 75.5 0 0 1  302 226.5 L 226.5 302 A 75.5 75.5 0 0 0 302 226.5" fill="#f3f9f4"/><rect x="302" y="226.5" width="75.5" height="75.5" fill="#f1f9f2"/><path d="M 302 302 A 75.5 75.5 0 0 1  377.5 226.5 L 302 302 A 75.5 75.5 0 0 0 377.5 226.5" fill="#edf8ef"/><rect x="377.5" y="226.5" width="75.5" height="75.5" fill="#edf8ef"/><path d="M 377.5 226.5 A 75.5 75.5 0 0 1 453 302 L 377.5 302" fill="#f3faf5"/><rect x="453" y="226.5" width="75.5" height="75.5" fill="#e6f7e9"/><path d="M 453 226.5 A 75.5 75.5 0 0 1  528.5 302 L 453 226.5 A 75.5 75.5 0 0 0 528.5 302" fill="#edf8ef"/><rect x="528.5" y="226.5" width="75.5" height="75.5" fill="#ecf8ee"/><path d="M 528.5 302 A 75.5 75.5 0 0 1  604 226.5 L 528.5 302 A 75.5 75.5 0 0 0 604 226.5" fill="#f2f9f3"/><rect x="604" y="226.5" width="75.5" height="75.5" fill="#f5faf6"/><path d="M 604 226.5 A 75.5 75.5 0 0 1 679.5 302 L 604 302" fill="#f0f9f2"/><rect x="679.5" y="226.5" width="75.5" height="75.5" fill="#f1f9f3"/><path d="M 679.5 302 A 75.5 75.5 0 0 1  755 226.5 L 679.5 302 A 75.5 75.5 0 0 0 755 226.5" fill="#e6f6e9"/><rect x="755" y="226.5" width="75.5" height="75.5" fill="#ecf8ee"/><path d="M 755 226.5 A 75.5 75.5 0 0 1  830.5 302 L 755 226.5 A 75.5 75.5 0 0 0 830.5 302" fill="#f5faf6"/><rect x="830.5" y="226.5" width="75.5" height="75.5" fill="#f3faf4"/><path d="M 830.5 226.5 A 75.5 75.5 0 0 1  906 302 L 830.5 226.5 A 75.5 75.5 0 0 0 906 302" fill="#f2f9f3"/><rect x="906" y="226.5" width="75.5" height="75.5" fill="#e7f7e9"/><path d="M 906 302 A 75.5 75.5 0 0 1  981.5 226.5 L 906 302 A 75.5 75.5 0 0 0 981.5 226.5" fill="#e9f7ec"/><rect x="981.5" y="226.5" width="75.5" height="75.5" fill="#ecf8ee"/><path d="M 981.5 302 A 75.5 75.5 0 0 1  1057 226.5 L 981.5 302 A 75.5 75.5 0 0 0 1057 226.5" fill="#edf8ef"/><rect x="1057" y="226.5" width="75.5" height="75.5" fill="#e6f7e9"/><path d="M 1057 302 A 75.5 75.5 0 0 1  1132.5 226.5 L 1057 302 A 75.5 75.5 0 0 0 1132.5 226.5" fill="#e6f7e9"/><rect x="1132.5" y="226.5" width="75.5" height="75.5" fill="#f4faf5"/><path d="M 1132.5 226.5 A 75.5 75.5 0 0 1  1208 302 L 1132.5 226.5 A 75.5 75.5 0 0 0 1208 302" fill="#f4faf5"/><rect x="1208" y="226.5" width="75.5" height="75.5" fill="#eaf7ec"/><path d="M 1208 226.5 A 75.5 75.5 0 0 1  1283.5 302 L 1208 226.5 A 75.5 75.5 0 0 0 1283.5 302" fill="#e8f7eb"/><rect x="1283.5" y="226.5" width="75.5" height="75.5" fill="#f2f9f3"/><path d="M 1283.5 226.5 A 75.5 75.5 0 0 0 1359 302 L 1359 226.5" fill="#e8f7eb"/><rect x="1359" y="226.5" width="75.5" height="75.5" fill="#f3faf4"/><path d="M 1359 226.5 A 75.5 75.5 0 0 1 1434.5 302 L 1359 302" fill="#f3faf5"/><rect x="1434.5" y="226.5" width="75.5" height="75.5" fill="#eaf8ed"/><path d="M 1434.5 302 A 75.5 75.5 0 0 1  1510 226.5 L 1434.5 302 A 75.5 75.5 0 0 0 1510 226.5" fill="#f1f9f2"/><rect x="0" y="302" width="75.5" height="75.5" fill="#e6f7e9"/><path d="M 0 377.5 A 75.5 75.5 0 0 1  75.5 302 L 0 377.5 A 75.5 75.5 0 0 0 75.5 302" fill="#ecf8ee"/><rect x="75.5" y="302" width="75.5" height="75.5" fill="#edf8ef"/><path d="M 75.5 377.5 A 75.5 75.5 0 0 1  151 302 L 75.5 377.5 A 75.5 75.5 0 0 0 151 302" fill="#e8f7ea"/><rect x="151" y="302" width="75.5" height="75.5" fill="#f0f9f2"/><path d="M 151 377.5 A 75.5 75.5 0 0 1  226.5 302 L 151 377.5 A 75.5 75.5 0 0 0 226.5 302" fill="#f2f9f3"/><rect x="226.5" y="302" width="75.5" height="75.5" fill="#f0f9f1"/><path d="M 226.5 302 A 75.5 75.5 0 0 1  302 377.5 L 226.5 302 A 75.5 75.5 0 0 0 302 377.5" fill="#eff9f1"/><rect x="302" y="302" width="75.5" height="75.5" fill="#f4faf5"/><path d="M 302 377.5 A 75.5 75.5 0 0 1  377.5 302 L 302 377.5 A 75.5 75.5 0 0 0 377.5 302" fill="#f3f9f4"/><rect x="377.5" y="302" width="75.5" height="75.5" fill="#f0f9f1"/><path d="M 377.5 377.5 A 75.5 75.5 0 0 0 453 302 L 377.5 302" fill="#eff9f0"/><rect x="453" y="302" width="75.5" height="75.5" fill="#ebf8ee"/><path d="M 453 377.5 A 75.5 75.5 0 0 1  528.5 302 L 453 377.5 A 75.5 75.5 0 0 0 528.5 302" fill="#e5f6e8"/><rect x="528.5" y="302" width="75.5" height="75.5" fill="#e7f7e9"/><path d="M 528.5 377.5 A 75.5 75.5 0 0 1  604 302 L 604 377.5" fill="#eff9f1"/><rect x="604" y="302" width="75.5" height="75.5" fill="#eef8f0"/><path d="M 604 302 A 75.5 75.5 0 0 1  679.5 377.5 L 604 302 A 75.5 75.5 0 0 0 679.5 377.5" fill="#f2f9f4"/><rect x="679.5" y="302" width="75.5" height="75.5" fill="#eff9f1"/><path d="M 679.5 302 A 75.5 75.5 0 0 1  755 377.5 L 679.5 302 A 75.5 75.5 0 0 0 755 377.5" fill="#f4faf5"/><rect x="755" y="302" width="75.5" height="75.5" fill="#e5f6e7"/><path d="M 755 377.5 A 75.5 75.5 0 0 1  830.5 302 L 755 377.5 A 75.5 75.5 0 0 0 830.5 302" fill="#e9f7ec"/><rect x="830.5" y="302" width="75.5" height="75.5" fill="#edf8ef"/><path d="M 830.5 302 A 75.5 75.5 0 0 1  906 377.5 L 830.5 302 A 75.5 75.5 0 0 0 906 377.5" fill="#f2f9f4"/><rect x="906" y="302" width="75.5" height="75.5" fill="#eff9f1"/><path d="M 906 377.5 A 75.5 75.5 0 0 0 981.5 302 L 906 302" fill="#eef8ef"/><rect x="981.5" y="302" width="75.5" height="75.5" fill="#f1f9f3"/><path d="M 981.5 302 A 75.5 75.5 0 0 1  1057 377.5 L 981.5 302 A 75.5 75.5 0 0 0 1057 377.5" fill="#eaf7ed"/><rect x="1057" y="302" width="75.5" height="75.5" fill="#f0f9f1"/><path d="M 1057 302 A 75.5 75.5 0 0 1  1132.5 377.5 L 1057 302 A 75.5 75.5 0 0 0 1132.5 377.5" fill="#ebf8ed"/><rect x="1132.5" y="302" width="75.5" height="75.5" fill="#e5f6e8"/><path d="M 1132.5 377.5 A 75.5 75.5 0 0 1  1208 302 L 1208 377.5" fill="#e6f6e9"/><rect x="1208" y="302" width="75.5" height="75.5" fill="#f3f9f4"/><path d="M 1208 377.5 A 75.5 75.5 0 0 1  1283.5 302 L 1208 377.5 A 75.5 75.5 0 0 0 1283.5 302" fill="#eaf7ec"/><rect x="1283.5" y="302" width="75.5" height="75.5" fill="#e8f7eb"/><path d="M 1283.5 377.5 A 75.5 75.5 0 0 1  1359 302 L 1283.5 377.5 A 75.5 75.5 0 0 0 1359 302" fill="#f0f9f2"/><rect x="1359" y="302" width="75.5" height="75.5" fill="#f5faf6"/><path d="M 1359 377.5 A 75.5 75.5 0 0 1  1434.5 302 L 1359 377.5 A 75.5 75.5 0 0 0 1434.5 302" fill="#f3f9f4"/><rect x="1434.5" y="302" width="75.5" height="75.5" fill="#eff9f1"/><path d="M 1434.5 302 A 75.5 75.5 0 0 1 1510 377.5 L 1434.5 377.5" fill="#e7f7ea"/><rect x="0" y="377.5" width="75.5" height="75.5" fill="#f3faf4"/><path d="M 0 453 A 75.5 75.5 0 0 1  75.5 377.5 L 0 453 A 75.5 75.5 0 0 0 75.5 377.5" fill="#f3faf4"/><rect x="75.5" y="377.5" width="75.5" height="75.5" fill="#eff9f1"/><path d="M 75.5 453 A 75.5 75.5 0 0 1  151 377.5 L 75.5 453 A 75.5 75.5 0 0 0 151 377.5" fill="#e5f6e8"/><rect x="151" y="377.5" width="75.5" height="75.5" fill="#edf8ef"/><path d="M 151 377.5 A 75.5 75.5 0 0 1  226.5 453 L 151 377.5 A 75.5 75.5 0 0 0 226.5 453" fill="#eef8f0"/><rect x="226.5" y="377.5" width="75.5" height="75.5" fill="#eaf7ed"/><path d="M 226.5 453 A 75.5 75.5 0 0 0 302 377.5 L 226.5 377.5" fill="#f3f9f4"/><rect x="302" y="377.5" width="75.5" height="75.5" fill="#e6f7e9"/><path d="M 302 377.5 A 75.5 75.5 0 0 1  377.5 453 L 302 377.5 A 75.5 75.5 0 0 0 377.5 453" fill="#ebf8ed"/><rect x="377.5" y="377.5" width="75.5" height="75.5" fill="#e8f7ea"/><path d="M 377.5 453 A 75.5 75.5 0 0 1  453 377.5 L 377.5 453 A 75.5 75.5 0 0 0 453 377.5" fill="#f1f9f2"/><rect x="453" y="377.5" width="75.5" height="75.5" fill="#edf8ef"/><path d="M 453 453 A 75.5 75.5 0 0 1  528.5 377.5 L 453 453 A 75.5 75.5 0 0 0 528.5 377.5" fill="#ebf8ed"/><rect x="528.5" y="377.5" width="75.5" height="75.5" fill="#ebf8ee"/><path d="M 528.5 453 A 75.5 75.5 0 0 1  604 377.5 L 528.5 453 A 75.5 75.5 0 0 0 604 377.5" fill="#f0f9f2"/><rect x="604" y="377.5" width="75.5" height="75.5" fill="#e6f7e9"/><path d="M 604 453 A 75.5 75.5 0 0 1  679.5 377.5 L 679.5 453" fill="#f2f9f3"/><rect x="679.5" y="377.5" width="75.5" height="75.5" fill="#e5f6e8"/><path d="M 679.5 453 A 75.5 75.5 0 0 0 755 377.5 L 679.5 377.5" fill="#e8f7eb"/><rect x="755" y="377.5" width="75.5" height="75.5" fill="#e6f7e9"/><path d="M 755 453 A 75.5 75.5 0 0 1  830.5 377.5 L 755 453 A 75.5 75.5 0 0 0 830.5 377.5" fill="#ecf8ee"/><rect x="830.5" y="377.5" width="75.5" height="75.5" fill="#ebf8ee"/><path d="M 830.5 453 A 75.5 75.5 0 0 1  906 377.5 L 830.5 453 A 75.5 75.5 0 0 0 906 377.5" fill="#e6f7e9"/><rect x="906" y="377.5" width="75.5" height="75.5" fill="#f4faf5"/><path d="M 906 377.5 A 75.5 75.5 0 0 1  981.5 453 L 906 377.5 A 75.5 75.5 0 0 0 981.5 453" fill="#f1f9f2"/><rect x="981.5" y="377.5" width="75.5" height="75.5" fill="#ebf8ed"/><path d="M 981.5 377.5 A 75.5 75.5 0 0 1  1057 453 L 981.5 377.5 A 75.5 75.5 0 0 0 1057 453" fill="#f1f9f2"/><rect x="1057" y="377.5" width="75.5" height="75.5" fill="#eaf7ec"/><path d="M 1057 453 A 75.5 75.5 0 0 0 1132.5 377.5 L 1057 377.5" fill="#f4faf5"/><rect x="1132.5" y="377.5" width="75.5" height="75.5" fill="#e9f7eb"/><path d="M 1132.5 453 A 75.5 75.5 0 0 0 1208 377.5 L 1132.5 377.5" fill="#ebf8ed"/><rect x="1208" y="377.5" width="75.5" height="75.5" fill="#f0f9f2"/><path d="M 1208 453 A 75.5 75.5 0 0 1  1283.5 377.5 L 1208 453 A 75.5 75.5 0 0 0 1283.5 377.5" fill="#eaf7ec"/><rect x="1283.5" y="377.5" width="75.5" height="75.5" fill="#e8f7eb"/><path d="M 1283.5 377.5 A 75.5 75.5 0 0 0 1359 453 L 1359 377.5" fill="#e8f7ea"/><rect x="1359" y="377.5" width="75.5" height="75.5" fill="#e9f7ec"/><path d="M 1359 453 A 75.5 75.5 0 0 1  1434.5 377.5 L 1359 453 A 75.5 75.5 0 0 0 1434.5 377.5" fill="#f1f9f2"/><rect x="1434.5" y="377.5" width="75.5" height="75.5" fill="#f2f9f3"/><path d="M 1434.5 453 A 75.5 75.5 0 0 1  1510 377.5 L 1434.5 453 A 75.5 75.5 0 0 0 1510 377.5" fill="#eff9f1"/><rect x="0" y="453" width="75.5" height="75.5" fill="#f0f9f2"/><path d="M 0 528.5 A 75.5 75.5 0 0 1  75.5 453 L 0 528.5 A 75.5 75.5 0 0 0 75.5 453" fill="#eaf7ec"/><rect x="75.5" y="453" width="75.5" height="75.5" fill="#eff9f1"/><path d="M 75.5 528.5 A 75.5 75.5 0 0 1  151 453 L 75.5 528.5 A 75.5 75.5 0 0 0 151 453" fill="#f3f9f4"/><rect x="151" y="453" width="75.5" height="75.5" fill="#f4faf5"/><path d="M 151 453 A 75.5 75.5 0 0 1  226.5 528.5 L 151 453 A 75.5 75.5 0 0 0 226.5 528.5" fill="#eaf7ec"/><rect x="226.5" y="453" width="75.5" height="75.5" fill="#f4faf5"/><path d="M 226.5 528.5 A 75.5 75.5 0 0 0 302 453 L 226.5 453" fill="#f0f9f1"/><rect x="302" y="453" width="75.5" height="75.5" fill="#f2f9f3"/><path d="M 302 528.5 A 75.5 75.5 0 0 1  377.5 453 L 377.5 528.5" fill="#edf8ef"/><rect x="377.5" y="453" width="75.5" height="75.5" fill="#eff9f0"/><path d="M 377.5 453 A 75.5 75.5 0 0 1 453 528.5 L 377.5 528.5" fill="#e7f7ea"/><rect x="453" y="453" width="75.5" height="75.5" fill="#e9f7eb"/><path d="M 453 453 A 75.5 75.5 0 0 1 528.5 528.5 L 453 528.5" fill="#eff9f1"/><rect x="528.5" y="453" width="75.5" height="75.5" fill="#e5f6e7"/><path d="M 528.5 453 A 75.5 75.5 0 0 0 604 528.5 L 604 453" fill="#f4faf5"/><rect x="604" y="453" width="75.5" height="75.5" fill="#e6f6e9"/><path d="M 604 453 A 75.5 75.5 0 0 1  679.5 528.5 L 604 453 A 75.5 75.5 0 0 0 679.5 528.5" fill="#e9f7eb"/><rect x="679.5" y="453" width="75.5" height="75.5" fill="#f3f9f4"/><path d="M 679.5 528.5 A 75.5 75.5 0 0 1  755 453 L 679.5 528.5 A 75.5 75.5 0 0 0 755 453" fill="#f0f9f2"/><rect x="755" y="453" width="75.5" height="75.5" fill="#eef8f0"/><path d="M 755 453 A 75.5 75.5 0 0 1  830.5 528.5 L 755 453 A 75.5 75.5 0 0 0 830.5 528.5" fill="#f4faf5"/><rect x="830.5" y="453" width="75.5" height="75.5" fill="#eff9f1"/><path d="M 830.5 453 A 75.5 75.5 0 0 1  906 528.5 L 830.5 453 A 75.5 75.5 0 0 0 906 528.5" fill="#ebf8ed"/><rect x="906" y="453" width="75.5" height="75.5" fill="#e4f6e7"/><path d="M 906 528.5 A 75.5 75.5 0 0 1  981.5 453 L 906 528.5 A 75.5 75.5 0 0 0 981.5 453" fill="#e6f7e9"/><rect x="981.5" y="453" width="75.5" height="75.5" fill="#e8f7ea"/><path d="M 981.5 453 A 75.5 75.5 0 0 1  1057 528.5 L 981.5 453 A 75.5 75.5 0 0 0 1057 528.5" fill="#e8f7eb"/><rect x="1057" y="453" width="75.5" height="75.5" fill="#e9f7eb"/><path d="M 1057 528.5 A 75.5 75.5 0 0 0 1132.5 453 L 1057 453" fill="#e7f7e9"/><rect x="1132.5" y="453" width="75.5" height="75.5" fill="#edf8ef"/><path d="M 1132.5 453 A 75.5 75.5 0 0 1  1208 528.5 L 1132.5 453 A 75.5 75.5 0 0 0 1208 528.5" fill="#e4f6e7"/><rect x="1208" y="453" width="75.5" height="75.5" fill="#e6f7e9"/><path d="M 1208 528.5 A 75.5 75.5 0 0 0 1283.5 453 L 1208 453" fill="#eff9f1"/><rect x="1283.5" y="453" width="75.5" height="75.5" fill="#e9f7eb"/><path d="M 1283.5 453 A 75.5 75.5 0 0 1  1359 528.5 L 1283.5 453 A 75.5 75.5 0 0 0 1359 528.5" fill="#eef8ef"/><rect x="1359" y="453" width="75.5" height="75.5" fill="#e6f7e9"/><path d="M 1359 528.5 A 75.5 75.5 0 0 1  1434.5 453 L 1359 528.5 A 75.5 75.5 0 0 0 1434.5 453" fill="#eef8f0"/><rect x="1434.5" y="453" width="75.5" height="75.5" fill="#eef8f0"/><path d="M 1434.5 453 A 75.5 75.5 0 0 1  1510 528.5 L 1434.5 453 A 75.5 75.5 0 0 0 1510 528.5" fill="#f0f9f2"/><rect x="0" y="528.5" width="75.5" height="75.5" fill="#e7f7e9"/><path d="M 0 604 A 75.5 75.5 0 0 0 75.5 528.5 L 0 528.5" fill="#f4faf5"/><rect x="75.5" y="528.5" width="75.5" height="75.5" fill="#e8f7eb"/><path d="M 75.5 528.5 A 75.5 75.5 0 0 1 151 604 L 75.5 604" fill="#ecf8ee"/><rect x="151" y="528.5" width="75.5" height="75.5" fill="#f1f9f2"/><path d="M 151 604 A 75.5 75.5 0 0 1  226.5 528.5 L 151 604 A 75.5 75.5 0 0 0 226.5 528.5" fill="#eff8f0"/><rect x="226.5" y="528.5" width="75.5" height="75.5" fill="#e4f6e7"/><path d="M 226.5 604 A 75.5 75.5 0 0 1  302 528.5 L 226.5 604 A 75.5 75.5 0 0 0 302 528.5" fill="#e5f6e8"/><rect x="302" y="528.5" width="75.5" height="75.5" fill="#eaf7ed"/><path d="M 302 604 A 75.5 75.5 0 0 1  377.5 528.5 L 302 604 A 75.5 75.5 0 0 0 377.5 528.5" fill="#ebf8ed"/><rect x="377.5" y="528.5" width="75.5" height="75.5" fill="#f0f9f2"/><path d="M 377.5 528.5 A 75.5 75.5 0 0 1  453 604 L 377.5 528.5 A 75.5 75.5 0 0 0 453 604" fill="#e7f7ea"/><rect x="453" y="528.5" width="75.5" height="75.5" fill="#f0f9f2"/><path d="M 453 604 A 75.5 75.5 0 0 1  528.5 528.5 L 453 604 A 75.5 75.5 0 0 0 528.5 528.5" fill="#f2f9f3"/><rect x="528.5" y="528.5" width="75.5" height="75.5" fill="#e7f7ea"/><path d="M 528.5 528.5 A 75.5 75.5 0 0 1 604 604 L 528.5 604" fill="#ebf8ed"/><rect x="604" y="528.5" width="75.5" height="75.5" fill="#eaf7ec"/><path d="M 604 528.5 A 75.5 75.5 0 0 1 679.5 604 L 604 604" fill="#f5faf6"/><rect x="679.5" y="528.5" width="75.5" height="75.5" fill="#f0f9f1"/><path d="M 679.5 604 A 75.5 75.5 0 0 0 755 528.5 L 679.5 528.5" fill="#e9f7eb"/><rect x="755" y="528.5" width="75.5" height="75.5" fill="#e6f6e9"/><path d="M 755 604 A 75.5 75.5 0 0 1  830.5 528.5 L 755 604 A 75.5 75.5 0 0 0 830.5 528.5" fill="#f0f9f2"/><rect x="830.5" y="528.5" width="75.5" height="75.5" fill="#f4faf5"/><path d="M 830.5 604 A 75.5 75.5 0 0 1  906 528.5 L 830.5 604 A 75.5 75.5 0 0 0 906 528.5" fill="#eff9f0"/><rect x="906" y="528.5" width="75.5" height="75.5" fill="#eaf7ed"/><path d="M 906 528.5 A 75.5 75.5 0 0 1  981.5 604 L 906 528.5 A 75.5 75.5 0 0 0 981.5 604" fill="#f1f9f2"/><rect x="981.5" y="528.5" width="75.5" height="75.5" fill="#eaf8ed"/><path d="M 981.5 604 A 75.5 75.5 0 0 1  1057 528.5 L 981.5 604 A 75.5 75.5 0 0 0 1057 528.5" fill="#ecf8ee"/><rect x="1057" y="528.5" width="75.5" height="75.5" fill="#eef8f0"/><path d="M 1057 604 A 75.5 75.5 0 0 1  1132.5 528.5 L 1057 604 A 75.5 75.5 0 0 0 1132.5 528.5" fill="#e6f6e9"/><rect x="1132.5" y="528.5" width="75.5" height="75.5" fill="#eaf7ec"/><path d="M 1132.5 528.5 A 75.5 75.5 0 0 1  1208 604 L 1132.5 528.5 A 75.5 75.5 0 0 0 1208 604" fill="#e4f6e7"/><rect x="1208" y="528.5" width="75.5" height="75.5" fill="#e5f6e8"/><path d="M 1208 528.5 A 75.5 75.5 0 0 1  1283.5 604 L 1208 528.5 A 75.5 75.5 0 0 0 1283.5 604" fill="#ecf8ee"/><rect x="1283.5" y="528.5" width="75.5" height="75.5" fill="#f2f9f3"/><path d="M 1283.5 604 A 75.5 75.5 0 0 1  1359 528.5 L 1283.5 604 A 75.5 75.5 0 0 0 1359 528.5" fill="#f0f9f2"/><rect x="1359" y="528.5" width="75.5" height="75.5" fill="#ecf8ee"/><path d="M 1359 604 A 75.5 75.5 0 0 1  1434.5 528.5 L 1359 604 A 75.5 75.5 0 0 0 1434.5 528.5" fill="#e7f7ea"/><rect x="1434.5" y="528.5" width="75.5" height="75.5" fill="#ecf8ee"/><path d="M 1434.5 604 A 75.5 75.5 0 0 1  1510 528.5 L 1434.5 604 A 75.5 75.5 0 0 0 1510 528.5" fill="#eef8ef"/></g></svg>