<svg width="17" height="16" viewBox="0 0 17 16" fill="none" xmlns="http://www.w3.org/2000/svg">
<path d="M7.75 14.75C7.75 14.3358 8.08579 14 8.5 14H14.5C14.6381 14 14.75 13.8881 14.75 13.75L14.75 1.75C14.75 1.61193 14.6381 1.5 14.5 1.5L8.5 1.5C8.08579 1.5 7.75 1.16421 7.75 0.750001C7.75 0.335788 8.08579 0 8.5 0H14.5C15.4665 0 16.25 0.783502 16.25 1.75V13.75C16.25 14.7165 15.4665 15.5 14.5 15.5H8.5C8.08579 15.5 7.75 15.1642 7.75 14.75Z" fill="#74CD97"/>
<path d="M0 8.86522C0 9.4175 0.447715 9.86522 1 9.86522H5.85599C5.87892 10.2206 5.90762 10.5758 5.9421 10.9305L5.97176 11.2357C6.01999 11.732 6.54695 12.0291 6.99657 11.8137C8.82449 10.9376 10.4793 9.73887 11.8813 8.275L11.9113 8.24372C12.1784 7.96485 12.1784 7.52506 11.9113 7.24619L11.8813 7.21491C10.4793 5.75104 8.82449 4.55226 6.99657 3.67625C6.54695 3.46077 6.01999 3.75796 5.97176 4.2542L5.9421 4.5594C5.90762 4.91413 5.87892 5.26928 5.85599 5.6247L1 5.62471C0.447716 5.62471 0 6.07242 0 6.6247V8.86522Z" fill="#74CD97"/>
</svg>
