<svg width="375" height="180" viewBox="0 0 375 180" fill="none" xmlns="http://www.w3.org/2000/svg">
<path d="M294.491 27.0431H202.046V25.141H160.128V27.0431H67.3021C65.6435 27.0431 64.0528 27.701 62.88 28.8719C61.7072 30.0428 61.0483 31.6309 61.0483 33.2868V33.2868V159.667C61.0483 161.323 61.7072 162.911 62.88 164.082C64.0528 165.253 65.6435 165.911 67.3021 165.911H294.491C296.15 165.911 297.74 165.253 298.913 164.082C300.086 162.911 300.745 161.323 300.745 159.667V33.2861C300.744 31.6303 300.085 30.0424 298.913 28.8716C297.74 27.7009 296.149 27.0431 294.491 27.0431V27.0431Z" fill="#3F3D56"/>
<path d="M292.36 38.0763H69.4326V163.627H292.36V38.0763Z" fill="#E6E6E6"/>
<path d="M282.982 44.7158H78.8867V153.239H282.982V44.7158Z" fill="white"/>
<path d="M180.706 34.6526C181.969 34.6526 182.992 33.6305 182.992 32.3697C182.992 31.109 181.969 30.0869 180.706 30.0869C179.443 30.0869 178.419 31.109 178.419 32.3697C178.419 33.6305 179.443 34.6526 180.706 34.6526Z" fill="#74CD97"/>
<path d="M307.004 161.345H285.247V159.78C285.247 159.697 285.215 159.618 285.156 159.56C285.098 159.502 285.019 159.469 284.936 159.469H277.477C277.395 159.469 277.315 159.502 277.257 159.56C277.199 159.618 277.166 159.697 277.166 159.78V159.78V161.345H272.504V159.78C272.504 159.697 272.471 159.618 272.413 159.56C272.355 159.502 272.276 159.469 272.193 159.469H264.734C264.652 159.469 264.572 159.502 264.514 159.56C264.456 159.618 264.423 159.697 264.423 159.78V159.78V161.345H259.761V159.78C259.761 159.697 259.728 159.618 259.67 159.56C259.612 159.502 259.533 159.469 259.45 159.469H251.991C251.909 159.469 251.829 159.502 251.771 159.56C251.713 159.618 251.68 159.697 251.68 159.78V159.78V161.345H247.018V159.78C247.018 159.697 246.985 159.618 246.927 159.56C246.869 159.502 246.79 159.469 246.707 159.469H239.248C239.166 159.469 239.087 159.502 239.028 159.56C238.97 159.618 238.937 159.697 238.937 159.78V159.78V161.345H234.275V159.78C234.275 159.697 234.242 159.618 234.184 159.56C234.126 159.502 234.047 159.469 233.964 159.469H226.505C226.423 159.469 226.344 159.502 226.285 159.56C226.227 159.618 226.194 159.697 226.194 159.78V159.78V161.345H221.532V159.78C221.532 159.697 221.499 159.618 221.441 159.56C221.383 159.502 221.304 159.469 221.221 159.469H213.764C213.681 159.469 213.602 159.502 213.544 159.56C213.486 159.618 213.453 159.697 213.453 159.78V159.78V161.345H208.789V159.78C208.789 159.697 208.756 159.618 208.698 159.56C208.64 159.502 208.561 159.469 208.478 159.469H150.047C149.965 159.469 149.886 159.502 149.827 159.56C149.769 159.618 149.736 159.697 149.736 159.78V159.78V161.345H145.074V159.78C145.074 159.697 145.042 159.618 144.983 159.56C144.925 159.502 144.846 159.469 144.763 159.469H137.304C137.222 159.469 137.143 159.502 137.084 159.56C137.026 159.618 136.993 159.697 136.993 159.78V159.78V161.345H132.331V159.78C132.331 159.697 132.299 159.618 132.24 159.56C132.182 159.502 132.103 159.469 132.02 159.469H124.561C124.479 159.469 124.4 159.502 124.342 159.56C124.283 159.618 124.251 159.697 124.251 159.78V159.78V161.345H119.588V159.78C119.588 159.697 119.556 159.618 119.497 159.56C119.439 159.502 119.36 159.469 119.277 159.469H111.818C111.736 159.469 111.657 159.502 111.599 159.56C111.54 159.618 111.507 159.697 111.507 159.78V159.78V161.345H106.846V159.78C106.846 159.697 106.814 159.618 106.755 159.56C106.697 159.502 106.618 159.469 106.535 159.469H99.0754C98.9929 159.469 98.9138 159.502 98.8555 159.56C98.7972 159.618 98.7645 159.697 98.7645 159.78V159.78V161.345H94.1026V159.78C94.1026 159.697 94.0698 159.618 94.0115 159.56C93.9532 159.502 93.8742 159.469 93.7917 159.469H86.3324C86.2499 159.469 86.1708 159.502 86.1125 159.56C86.0542 159.618 86.0215 159.697 86.0215 159.78V159.78V161.345H81.3596V159.78C81.3596 159.697 81.3268 159.618 81.2685 159.56C81.2102 159.502 81.1311 159.469 81.0487 159.469H73.5879C73.5055 159.469 73.4264 159.502 73.3681 159.56C73.3098 159.618 73.277 159.697 73.277 159.78V159.78V161.345H58.9816C57.0032 161.345 55.1059 162.129 53.707 163.526C52.3081 164.923 51.5222 166.817 51.5222 168.792V172.159C51.5222 174.134 52.3081 176.029 53.707 177.425C55.1059 178.822 57.0032 179.607 58.9816 179.607H307.004C308.982 179.607 310.879 178.822 312.278 177.425C313.677 176.029 314.463 174.135 314.463 172.16V168.792C314.463 166.817 313.677 164.923 312.278 163.526C310.879 162.13 308.982 161.345 307.004 161.345V161.345Z" fill="#3F3D56"/>
<path d="M226.061 52.3274H135.809V147.046H226.061V52.3274Z" fill="#74CD97" fill-opacity="0.2"/>
<path d="M377 179.29H0V180H377V179.29Z" fill="#E6E6E6"/>
<path d="M340.386 154.506C345.494 159.978 345.758 168.022 345.758 168.022C345.758 168.022 337.74 167.192 332.632 161.72C327.524 156.248 327.26 148.204 327.26 148.204C327.26 148.204 335.278 149.033 340.386 154.506Z" fill="#74CD97"/>
<path d="M356.467 163.048C350.986 168.148 342.929 168.411 342.929 168.411C342.929 168.411 343.76 160.406 349.241 155.306C354.722 150.207 362.779 149.943 362.779 149.943C362.779 149.943 361.949 157.948 356.467 163.048Z" fill="#74CD97"/>
<path d="M355.105 179.29H334.944C334.557 179.29 334.178 179.182 333.85 178.977C333.522 178.772 333.259 178.479 333.09 178.132L328.7 169.124C328.547 168.81 328.476 168.462 328.495 168.114C328.513 167.765 328.62 167.427 328.806 167.131C328.991 166.835 329.249 166.591 329.555 166.422C329.861 166.252 330.205 166.164 330.555 166.164H359.495C359.844 166.164 360.188 166.252 360.494 166.422C360.8 166.591 361.058 166.835 361.244 167.131C361.429 167.427 361.536 167.765 361.555 168.114C361.573 168.462 361.502 168.81 361.349 169.124L356.96 178.132C356.791 178.48 356.527 178.772 356.199 178.977C355.871 179.182 355.492 179.291 355.105 179.29L355.105 179.29Z" fill="#A5E9C0"/>
<path d="M21.6595 154.506C26.7677 159.978 27.0317 168.022 27.0317 168.022C27.0317 168.022 19.0138 167.192 13.9056 161.72C8.79745 156.248 8.53345 148.204 8.53345 148.204C8.53345 148.204 16.5514 149.033 21.6595 154.506Z" fill="#74CD97"/>
<path d="M33.1802 179.29H13.0194C12.6326 179.29 12.2535 179.182 11.9255 178.977C11.5976 178.772 11.334 178.479 11.1649 178.132L6.77562 169.124C6.62234 168.81 6.55158 168.462 6.57 168.114C6.58842 167.765 6.6954 167.427 6.88089 167.131C7.06638 166.835 7.32426 166.591 7.63027 166.422C7.93628 166.252 8.28034 166.164 8.63006 166.164H37.5699C37.9196 166.164 38.2637 166.252 38.5697 166.422C38.8757 166.591 39.1336 166.835 39.319 167.131C39.5045 167.427 39.6115 167.765 39.6299 168.114C39.6484 168.462 39.5776 168.81 39.4243 169.124L35.035 178.132C34.8659 178.48 34.6023 178.772 34.2744 178.977C33.9464 179.182 33.5674 179.291 33.1805 179.29L33.1802 179.29Z" fill="#A5E9C0"/>
<path d="M191.824 79.1406C198.449 79.1406 203.819 73.779 203.819 67.1652C203.819 60.5514 198.449 55.1898 191.824 55.1898C185.2 55.1898 179.83 60.5514 179.83 67.1652C179.83 73.779 185.2 79.1406 191.824 79.1406Z" fill="#F1EFEF"/>
<path d="M164.226 147.241L171.972 98.5561C172.384 95.9676 173.344 93.4964 174.786 91.3068C176.229 89.1173 178.123 87.2596 180.34 85.8574C182.558 84.4552 185.05 83.5406 187.649 83.1745C190.249 82.8085 192.897 82.9993 195.416 83.7342V83.7342C199.822 85.0064 203.595 87.8728 205.997 91.7733C208.399 95.6738 209.259 100.328 208.407 104.828L200.306 148.306L164.226 147.241Z" fill="#74CD97"/>
<path d="M195.136 155.952C195.735 155.557 196.24 155.036 196.616 154.425C196.991 153.814 197.228 153.128 197.309 152.416C197.39 151.704 197.314 150.983 197.086 150.303C196.858 149.623 196.484 149.002 195.989 148.482L203.996 133.001L194.979 133.962L188.757 148.516C187.942 149.404 187.48 150.56 187.46 151.765C187.439 152.97 187.861 154.14 188.647 155.056C189.432 155.971 190.525 156.567 191.721 156.733C192.916 156.898 194.131 156.62 195.136 155.952L195.136 155.952Z" fill="#F1EFEF"/>
<path d="M196.851 145.752C196.408 145.689 195.994 145.494 195.666 145.191L192.602 142.364C192.271 142.058 192.043 141.657 191.947 141.216C191.852 140.775 191.895 140.316 192.069 139.9L198.192 125.41L197.323 96.7802C197.577 94.9228 198.56 93.2422 200.055 92.1079C201.55 90.9737 203.435 90.4789 205.295 90.7322C207.155 90.9856 208.839 91.9665 209.975 93.459C211.111 94.9516 211.606 96.8335 211.353 98.6909V98.6909L212.838 116.689C213.289 122.151 211.738 127.591 208.473 131.997L198.924 144.885C198.741 145.132 198.507 145.339 198.238 145.49C197.969 145.642 197.672 145.735 197.364 145.764C197.193 145.78 197.021 145.776 196.851 145.752V145.752Z" fill="#74CD97"/>
<path d="M122.75 60.6406C122.881 61.3454 123.165 62.013 123.582 62.5964C123.999 63.1798 124.539 63.6648 125.164 64.0173C125.789 64.3697 126.484 64.5811 127.2 64.6364C127.916 64.6917 128.635 64.5897 129.307 64.3375L140.464 77.735L143.094 69.0699L132.096 57.6756C131.594 56.5801 130.708 55.7059 129.605 55.2179C128.502 54.7299 127.258 54.6619 126.108 55.0268C124.958 55.3916 123.982 56.164 123.363 57.1982C122.745 58.2325 122.527 59.4569 122.751 60.6406H122.75Z" fill="#F1EFEF"/>
<path d="M131.49 66.1939C131.72 65.811 132.062 65.5074 132.47 65.3233L136.272 63.6088C136.684 63.4241 137.143 63.3703 137.586 63.4545C138.03 63.5386 138.437 63.7569 138.753 64.0796L149.73 75.3582L176.476 85.7222C177.276 86.196 177.975 86.8225 178.532 87.566C179.089 88.3094 179.494 89.1552 179.724 90.055C179.954 90.9548 180.004 91.891 179.871 92.8101C179.738 93.7292 179.425 94.6132 178.95 95.4115C178.475 96.2098 177.847 96.9068 177.102 97.4628C176.357 98.0187 175.51 98.4226 174.608 98.6514C173.707 98.8802 172.769 98.9294 171.849 98.7963C170.928 98.6631 170.043 98.3502 169.244 97.8753V97.8753L152.065 92.2234C146.851 90.5088 142.438 86.9617 139.647 82.2418L131.483 68.4384C131.326 68.1729 131.227 67.8775 131.192 67.5713C131.157 67.2651 131.187 66.955 131.28 66.6611C131.332 66.4977 131.403 66.341 131.491 66.1942L131.49 66.1939Z" fill="#74CD97"/>
<path opacity="0.1" d="M201.554 108.69L201.065 124.292L192.069 139.901L199.581 122.508L201.554 108.69Z" fill="black"/>
<path d="M183.701 61.1628C184.939 62.6247 187.032 63.037 188.964 63.2062C192.886 63.5496 198.59 62.9933 202.423 62.1089C202.697 64.7564 201.951 67.6108 203.513 69.7886C204.245 67.152 204.671 64.4401 204.781 61.7063C204.829 60.5356 204.81 59.3209 204.333 58.2446C203.856 57.1683 202.815 56.2548 201.617 56.2452C202.507 55.5708 203.55 55.1256 204.654 54.949L200.859 53.045L201.833 52.046L194.963 51.6264L196.953 50.3642C193.958 49.9537 190.928 49.8585 187.913 50.0804C186.513 50.1832 185.049 50.3801 183.915 51.19C182.78 51.9999 182.125 53.6094 182.829 54.7986C181.947 54.9431 181.117 55.31 180.417 55.8644C179.718 56.4189 179.171 57.1425 178.83 57.9669C178.324 59.2468 178.37 60.6686 178.526 62.0327C178.785 64.2142 179.293 66.359 180.04 68.4253" fill="#2F2E41"/>
<path d="M234.978 31.1628L125.681 56.3553C125.144 56.4784 124.581 56.3838 124.114 56.0925C123.646 55.8011 123.314 55.3367 123.19 54.8011L116.93 27.7329C116.807 27.197 116.902 26.6342 117.194 26.1679C117.486 25.7016 117.951 25.37 118.487 25.2456L227.784 0.0530948C228.321 -0.0699494 228.885 0.0245796 229.352 0.315943C229.819 0.607307 230.151 1.07171 230.276 1.6073L236.535 28.6756C236.658 29.2114 236.564 29.7742 236.272 30.2405C235.98 30.7068 235.515 31.0384 234.978 31.1628Z" fill="white"/>
<path d="M234.978 31.1628L125.681 56.3553C125.144 56.4784 124.581 56.3838 124.114 56.0925C123.646 55.8011 123.314 55.3367 123.19 54.8011L116.93 27.7329C116.807 27.197 116.902 26.6342 117.194 26.1679C117.486 25.7016 117.951 25.37 118.487 25.2456L227.784 0.0530948C228.321 -0.0699494 228.885 0.0245796 229.352 0.315943C229.819 0.607307 230.151 1.07171 230.276 1.6073L236.535 28.6756C236.658 29.2114 236.564 29.7742 236.272 30.2405C235.98 30.7068 235.515 31.0384 234.978 31.1628ZM118.674 26.0541C118.352 26.1287 118.073 26.3277 117.898 26.6075C117.723 26.8873 117.666 27.2251 117.74 27.5466L123.999 54.6149C124.074 54.9363 124.273 55.2151 124.554 55.3899C124.834 55.5648 125.172 55.6215 125.494 55.5475L234.792 30.355C235.113 30.2805 235.393 30.0814 235.568 29.8016C235.743 29.5218 235.8 29.184 235.726 28.8625L229.466 1.79386C229.392 1.47241 229.192 1.19366 228.912 1.0188C228.632 0.84394 228.293 0.787267 227.971 0.861219L118.674 26.0541Z" fill="#E6E6E6"/>
<path d="M156.599 25.9704C156.419 26.0117 156.248 26.088 156.097 26.1951C155.946 26.3022 155.818 26.438 155.719 26.5946C155.621 26.7513 155.554 26.9257 155.523 27.1081C155.492 27.2904 155.498 27.4771 155.539 27.6574C155.58 27.8376 155.657 28.008 155.764 28.1588C155.872 28.3095 156.008 28.4377 156.164 28.5359C156.321 28.6342 156.496 28.7006 156.679 28.7314C156.862 28.7622 157.048 28.7567 157.229 28.7154L157.234 28.7143L222.014 13.7827C222.378 13.6983 222.693 13.473 222.891 13.1565C223.089 12.84 223.153 12.4581 223.069 12.0946C222.985 11.7311 222.76 11.4158 222.443 11.2178C222.126 11.0199 221.744 10.9555 221.379 11.0389L156.599 25.9704Z" fill="#E6E6E6"/>
<path d="M158.503 34.2024C158.322 34.2436 158.152 34.3199 158.001 34.427C157.85 34.5341 157.721 34.6699 157.623 34.8265C157.524 34.9832 157.458 35.1577 157.427 35.34C157.396 35.5224 157.401 35.709 157.443 35.8893C157.484 36.0696 157.56 36.2399 157.668 36.3907C157.775 36.5414 157.911 36.6696 158.068 36.7678C158.225 36.8661 158.4 36.9325 158.582 36.9633C158.765 36.9941 158.952 36.9887 159.133 36.9473L159.137 36.9462L187.012 30.5211C187.377 30.4377 187.693 30.2131 187.892 29.8968C188.091 29.5805 188.155 29.1983 188.072 28.8344C187.988 28.4705 187.763 28.1546 187.447 27.9561C187.13 27.7577 186.747 27.693 186.383 27.7762L186.378 27.7773L158.503 34.2024Z" fill="#E6E6E6"/>
<path d="M138.89 44.2151C143.563 44.2151 147.351 40.4328 147.351 35.7671C147.351 31.1014 143.563 27.319 138.89 27.319C134.216 27.319 130.428 31.1014 130.428 35.7671C130.428 40.4328 134.216 44.2151 138.89 44.2151Z" fill="#74CD97"/>
<path d="M138.652 40.6406C138.375 40.7049 138.084 40.6775 137.824 40.5626L137.808 40.5554L134.403 39.0122C134.245 38.9407 134.103 38.8388 133.984 38.7123C133.866 38.5858 133.773 38.4371 133.712 38.2749C133.651 38.1127 133.623 37.9401 133.629 37.7669C133.635 37.5937 133.675 37.4234 133.746 37.2657C133.818 37.1079 133.921 36.9659 134.047 36.8476C134.174 36.7294 134.323 36.6373 134.486 36.5766C134.648 36.5159 134.821 36.4878 134.995 36.4939C135.168 36.5 135.339 36.5402 135.497 36.6121L137.703 37.6149L140.798 30.825C140.943 30.5071 141.208 30.2597 141.536 30.1372C141.864 30.0147 142.227 30.0272 142.545 30.1718V30.1718L142.527 30.2161L142.546 30.1716C142.864 30.3166 143.112 30.5818 143.235 30.9089C143.357 31.236 143.345 31.5983 143.2 31.9162L139.56 39.9037C139.476 40.0877 139.35 40.2498 139.193 40.3775C139.035 40.5052 138.851 40.595 138.653 40.64L138.652 40.6406Z" fill="white"/>
</svg>
