<svg width="24" height="22" viewBox="0 0 24 22" fill="none" xmlns="http://www.w3.org/2000/svg">
<path d="M12.8649 1.99624C12.4796 1.33209 11.5204 1.33208 11.1351 1.99624L8.42101 6.67355C8.23064 7.00163 7.90159 7.22552 7.52653 7.28217L2.44021 8.0504C1.58593 8.17942 1.28627 9.25803 1.95158 9.80923L5.74067 12.9485C6.09141 13.239 6.25633 13.6974 6.17113 14.1448L5.17996 19.35C5.02327 20.1728 5.88706 20.8121 6.62821 20.4219L11.4176 17.9001C11.7821 17.7081 12.2178 17.7081 12.5824 17.9001L17.3718 20.4219C18.1129 20.8121 18.9767 20.1728 18.82 19.35L17.8289 14.1448C17.7437 13.6974 17.9086 13.239 18.2593 12.9485L22.0484 9.80923C22.7137 9.25804 22.4141 8.17942 21.5598 8.0504L16.4735 7.28217C16.0984 7.22552 15.7694 7.00163 15.579 6.67355L12.8649 1.99624Z" stroke="#74CD97" stroke-width="2" stroke-linejoin="round"/>
</svg>
