<svg width="29" height="29" viewBox="0 0 29 29" fill="none" xmlns="http://www.w3.org/2000/svg">
<path d="M15.3208 0.501254C13.9697 0.528647 11.9895 0.30483 11.1576 1.61833C10.7643 2.239 11.2095 2.86596 11.3871 3.475C11.8445 5.04453 12.173 6.61672 12.7843 8.15177C13.227 9.26377 13.4179 10.4085 13.9814 11.4923C14.1269 11.7722 14.384 12.4 14.7805 12.4C15.5906 12.4 16.4974 9.59167 16.7961 8.9535C17.5602 7.32064 18.0807 5.57941 18.604 3.87587C18.8052 3.22059 19.2485 2.44679 18.9492 1.75235C18.4966 0.702353 16.3342 0.48081 15.3208 0.501254Z" fill="url(#paint0_linear_35_1227)"/>
<path d="M8.35465 2.95322C6.63068 2.84658 4.4335 5.40757 3.68136 6.69274C3.40148 7.17129 2.73564 7.96668 3.01862 8.53944C3.34723 9.20481 4.3779 9.68056 4.98922 10.0522C6.90625 11.2175 10.2045 13.1547 12.522 13.0988C13.6113 13.0725 12.869 11.2227 12.6394 10.7018C11.7947 8.78453 10.8025 6.87595 10.0088 4.95548C9.68809 4.17959 9.42261 3.01924 8.35465 2.95322Z" fill="url(#paint1_linear_35_1227)"/>
<path d="M21.1205 3.13548C20.4514 3.50039 20.1471 4.53744 19.7898 5.17346C18.8292 6.88399 17.8176 8.54633 17.0098 10.3322C16.7247 10.9628 16.015 12.0161 16.3282 12.7556C16.6066 13.4128 17.6837 12.9626 18.1446 12.7665C19.6755 12.1147 20.9684 11.1045 22.4148 10.3038C23.5333 9.68466 25.1035 8.90175 25.5976 7.61708C26.321 5.73631 23.0415 2.08784 21.1205 3.13548Z" fill="url(#paint2_linear_35_1227)"/>
<path d="M26.7089 10.6502C26.2542 10.6394 25.8049 11.0335 25.3528 11.1184C23.2773 11.5085 21.2016 12.4719 19.2503 13.3239C18.7405 13.5465 17.2768 14.0203 17.3003 14.7563C17.3239 15.4945 18.8695 15.858 19.3859 16.0882C21.6256 17.087 24.0951 18.3876 26.5835 18.3492C28.6619 18.3172 28.737 13.5547 28.2564 12.1325C28.0667 11.571 27.3445 10.6653 26.7089 10.6502Z" fill="url(#paint3_linear_35_1227)"/>
<path d="M2.31115 11.0853C1.05893 11.4438 0.874611 13.1168 0.855469 14.1743C0.813169 16.5075 0.941004 19.0115 4.04926 18.1907C6.01332 17.6721 8.17041 16.9071 9.9389 15.9274C10.4427 15.6483 11.5366 15.3204 11.6829 14.6848C11.8856 13.8054 10.2306 13.4893 9.67119 13.2158C8.4009 12.5947 7.09969 12.2914 5.78938 11.8026C4.77931 11.4259 3.43326 10.7643 2.31115 11.0853Z" fill="url(#paint4_linear_35_1227)"/>
<path d="M12.2321 15.9111C11.4561 16.0066 10.7216 16.5917 10.0322 16.9115C8.01142 17.849 4.63757 19.123 3.52757 21.1595C2.43723 23.1597 5.50269 26.2558 7.68295 26.0392C8.55742 25.9523 9.17999 24.625 9.51975 23.9666C10.5661 21.9387 11.7494 19.9842 12.7696 17.9399C13.0862 17.3055 13.5112 15.7539 12.2321 15.9111Z" fill="url(#paint5_linear_35_1227)"/>
<path d="M16.4513 16.3872C15.7068 16.9972 17.2429 19.911 17.5744 20.5869C18.2821 22.0293 18.9038 23.4913 19.622 24.9261C19.9119 25.5056 20.132 26.3085 20.9087 26.3923C21.9108 26.5002 22.9184 25.4535 23.6255 24.8764C24.4951 24.1668 26.8516 21.8495 26.3238 20.601C25.7427 19.2258 22.8599 18.3877 21.5937 17.7848C20.3622 17.1983 19.2036 16.6938 17.8656 16.4287C17.4728 16.3508 16.8095 16.0936 16.4513 16.3872Z" fill="url(#paint6_linear_35_1227)"/>
<path d="M14.4585 17.369C13.3209 17.8579 12.8178 20.6526 12.4519 21.703C11.9378 23.1792 10.2692 25.7837 10.7294 27.403C10.9262 28.0953 11.8043 28.2996 12.4143 28.452C14.0086 28.8501 16.4201 29.1264 17.9659 28.3891C18.9403 27.9242 18.7399 26.8834 18.5141 26.055C17.9297 23.9101 17.148 21.5575 16.2391 19.5268C15.9551 18.8923 15.5336 16.907 14.4585 17.369Z" fill="url(#paint7_linear_35_1227)"/>
<defs>
<linearGradient id="paint0_linear_35_1227" x1="14.675" y1="0.5" x2="14.675" y2="28.85" gradientUnits="userSpaceOnUse">
<stop stop-color="#59D188"/>
<stop offset="1" stop-color="#34B2CE"/>
</linearGradient>
<linearGradient id="paint1_linear_35_1227" x1="14.675" y1="0.5" x2="14.675" y2="28.85" gradientUnits="userSpaceOnUse">
<stop stop-color="#59D188"/>
<stop offset="1" stop-color="#34B2CE"/>
</linearGradient>
<linearGradient id="paint2_linear_35_1227" x1="14.675" y1="0.5" x2="14.675" y2="28.85" gradientUnits="userSpaceOnUse">
<stop stop-color="#59D188"/>
<stop offset="1" stop-color="#34B2CE"/>
</linearGradient>
<linearGradient id="paint3_linear_35_1227" x1="14.675" y1="0.5" x2="14.675" y2="28.85" gradientUnits="userSpaceOnUse">
<stop stop-color="#59D188"/>
<stop offset="1" stop-color="#34B2CE"/>
</linearGradient>
<linearGradient id="paint4_linear_35_1227" x1="14.675" y1="0.5" x2="14.675" y2="28.85" gradientUnits="userSpaceOnUse">
<stop stop-color="#59D188"/>
<stop offset="1" stop-color="#34B2CE"/>
</linearGradient>
<linearGradient id="paint5_linear_35_1227" x1="14.675" y1="0.5" x2="14.675" y2="28.85" gradientUnits="userSpaceOnUse">
<stop stop-color="#59D188"/>
<stop offset="1" stop-color="#34B2CE"/>
</linearGradient>
<linearGradient id="paint6_linear_35_1227" x1="14.675" y1="0.5" x2="14.675" y2="28.85" gradientUnits="userSpaceOnUse">
<stop stop-color="#59D188"/>
<stop offset="1" stop-color="#34B2CE"/>
</linearGradient>
<linearGradient id="paint7_linear_35_1227" x1="14.675" y1="0.5" x2="14.675" y2="28.85" gradientUnits="userSpaceOnUse">
<stop stop-color="#59D188"/>
<stop offset="1" stop-color="#34B2CE"/>
</linearGradient>
</defs>
</svg>
